<?xml version="1.0" encoding="utf-8"?>
<!-- Generator: Adobe Illustrator 21.1.0, SVG Export Plug-In . SVG Version: 6.00 Build 0)  -->
<svg version="1.1" id="Capa_1" xmlns="http://www.w3.org/2000/svg" xmlns:xlink="http://www.w3.org/1999/xlink" x="0px" y="0px"
	 viewBox="0 0 463.1 144.2" style="enable-background:new 0 0 463.1 144.2;" xml:space="preserve">
<style type="text/css">
	.st0{fill:#3E3E3E;}
</style>
<g id="FLOR">
	<path class="st0" d="M411.1,99.2c-3.7-6.2-7.4-12.3-14-17.5c4.5-0.9,8.3-1.6,12.1-2.4c0-0.2,0-0.3,0-0.5c-3.3-0.2-6.6-0.3-10.2-0.5
		c6.6-5.8,14.3-9,23.5-10.5c-9-1.4-15.8,2.8-23.6,4.6c2.3-2.9,4.6-5.8,6.9-8.7c-0.1-0.1-0.2-0.2-0.3-0.3c-1.9,1.3-3.7,2.6-5.6,3.9
		c-0.2-0.1-0.3-0.2-0.5-0.3c1.5-2.7,2.7-5.6,4.6-8.1c2.7-3.6,5.7-7.3,9.2-10.4c3.6-3.1,8.1-3.5,12.7-1.2c1,0.5,2,0.9,3,1.4
		c2.8,1.5,5.7,2.6,8.9,0.9c-0.4,3.6-0.8,7-1.2,10.4c-0.5,3.9-2.6,6.6-7.5,7.7c1,0.4,1.4,0.5,1.7,0.6c7.5,2,10.8,5.6,11.5,12.7
		c0.4,4.9,1,9.7,5.7,13.1c-0.8,0.5-1.2,0.9-1.9,1.1c-5.2,1.7-9.1,5.1-12.8,8.8c-5.8,5.8-10.2,6-16.7,0.8c-1.1-0.8-2.1-1.7-3.1-2.5
		C412.7,101.3,411.8,100.3,411.1,99.2z"/>
	<path class="st0" d="M411.1,99.2c0.8,1,1.6,2.1,2.4,3.1c0.2,0.4,0.3,0.8,0.5,1.1c5.6,8.3,4.2,16.2-2,23.6
		c-3.5,4.2-7.1,8.2-10.7,12.4c0,0-0.3,0-0.4-0.2c-1.4-4.2-5.2-5.6-9.3-7c-11.4-3.8-14.1-7.7-13.2-18.8c0.8-8.7,4.5-16.5,9.9-24.3
		c0.3,4.5,0.7,8.5,0.9,12.5c0.2,0,0.4,0,0.7,0c0.2-2.9,0.1-5.9,0.5-8.7c0.4-2.9,1.3-5.7,2-8.6c0.3-0.1,0.7-0.2,1.1-0.2
		c5.1,4.5,10.3,8.9,15.5,13.4C409.8,98.1,410.4,98.7,411.1,99.2z"/>
	<path class="st0" d="M353,123.8c1.1-3.6,2.4-7.2,3.3-10.8c1-3.6,1.6-7.3,2.4-11.1c-3.3,2.9-6.8,5.6-11.7,3.6
		c-3.2-1.3-4.7-3.9-5.5-7.4c4.6,0.8,5.5-2.5,7.2-4.9c4-5.7,8.6-11,15-14.9c5.9-3.6,12.2-5.1,19.7-2.8c-3.4,1.4-6.4,2.6-9.5,3.9
		c0.1,0.2,0.1,0.3,0.2,0.5c3.7-0.2,7.4-0.4,11-0.7c0.1,0.3,0.1,0.5,0.2,0.8c-2.4,1.9-4.9,3.9-7.3,5.8c0.1,0.2,0.3,0.4,0.4,0.6
		c2.7-1.5,5.5-3.1,8.2-4.6c0.2,0.1,0.3,0.2,0.5,0.3c-1.1,2.4-2,4.9-3.2,7.3c-3.9,7.6-5.9,15.7-7.2,23.9c-0.4,2.7-1.3,5.5-2.5,8
		c-2.4,4.9-7,6.5-12.7,4.8C358.6,125.2,355.8,124.5,353,123.8z"/>
	<path class="st0" d="M389.6,71.3c-0.7-1-1.4-1.9-2.3-3.3c-0.3,1.4-0.5,2.4-0.8,3.3c-6-1.6-7.4-5.9-3.2-9.8c2-1.8,4.5-3.3,6.7-4.9
		c1.2-0.8,2.8-1.4,3.5-2.5c2.4-3.8,6.2-2.4,9.7-2.6c1.6-0.1,2.1,0.9,1.3,2.2c-0.2,0.4-0.5,0.9-0.9,1.3c-5.1,4.9-10.7,9.6-13.2,16.4
		C390.1,71.4,389.9,71.3,389.6,71.3z"/>
	<path class="st0" d="M387.7,75.9c1.6-1.4,3.1-3,4.8-4c2-1.1,3.6,0.2,3.6,2.3c0,2.3-2.4,5.4-4.9,5.9c-0.9,0.2-2.3,0-2.7-0.5
		C387.9,78.7,388,77.4,387.7,75.9z"/>
</g>
<g id="Ornamento_L">
	<g id="circulos_1_">
		<path class="st0" d="M221,131.3c0,4.5-4,8.2-9,8.2s-9-3.7-9-8.2s4-8.2,9-8.2S221,126.8,221,131.3"/>
		<path class="st0" d="M241.6,136.1c0,2.8-2.5,5.1-5.6,5.1s-5.6-2.3-5.6-5.1s2.5-5.1,5.6-5.1S241.6,133.3,241.6,136.1"/>
		<path class="st0" d="M261.4,136.5c0,2.3-2,4.1-4.5,4.1s-4.5-1.8-4.5-4.1s2-4.1,4.5-4.1S261.4,134.3,261.4,136.5"/>
		<path class="st0" d="M279.4,133.1c0,1.6-1.4,2.9-3.2,2.9c-1.7,0-3.2-1.3-3.2-2.9s1.4-2.8,3.2-2.8
			C278.1,130.2,279.4,131.5,279.4,133.1"/>
		<path class="st0" d="M294.9,127.4c0,1.1-1,2-2.2,2s-2.2-0.9-2.2-2s1-2,2.2-2S294.9,126.3,294.9,127.4"/>
		<path class="st0" d="M309.4,119.4c0,1.1-1,2-2.2,2s-2.2-0.9-2.2-2s1-2,2.2-2S309.4,118.3,309.4,119.4"/>
		<path class="st0" d="M321.8,109.6c0,1.1-1,2-2.2,2s-2.2-0.9-2.2-2s1-2,2.2-2C320.7,107.5,321.8,108.4,321.8,109.6"/>
		<path class="st0" d="M149,89.7c0,2.8-2.5,5.1-5.6,5.1s-5.6-2.3-5.6-5.1c0-2.8,2.5-5.1,5.6-5.1S149,86.9,149,89.7"/>
		<path class="st0" d="M130.5,86.9c0,2.8-2.5,5.1-5.6,5.1s-5.6-2.3-5.6-5.1s2.5-5.1,5.6-5.1S130.5,84.1,130.5,86.9"/>
		<path class="st0" d="M112.6,92c0,2.8-2.5,5.1-5.6,5.1s-5.6-2.3-5.6-5.1c0-2.8,2.5-5.1,5.6-5.1S112.6,89.2,112.6,92"/>
		<path class="st0" d="M106,108.4c0,2.8-2.5,5.1-5.6,5.1s-5.6-2.3-5.6-5.1s2.5-5.1,5.6-5.1C103.4,103.3,106,105.6,106,108.4"/>
	</g>
	<g id="lineas_1_">
		<path class="st0" d="M343.3,75.4c0.5,0.2-0.7,1.8-1.9,3.4c-5.5,7.3-17.7,20.8-33.4,32.8c-17.8,13.5-37,17.3-50.1,17.6
			c-25.4,0.7-45.9-8-56.4-20.8s-13.3-33.4-3.1-46.8c4.3-5.6,11.4-11.1,19.2-13.9c10.9-4,24-3,31.6,0.1c7.5,3.1,12.2,7.4,15.5,12.2
			c8.6,12.5,5.2,27.3-2.2,35.2c-6.9,7.2-15.3,8.7-20,8.9c-6.3,0.3-10.9-2-13.2-4.2c-5-4.7-2.7-12.3,4.5-13.1c5.1-0.6,9,3.3,8.7,6.9
			c-0.2,2.4-2.4,4.5-4.6,5.1c-2.1,0.6-4.5,0.2-4.5,0.2s4,3.2,12.2,0.9c5.1-1.4,10.5-5.1,14-10.5c3.1-4.8,4.4-10.5,3.6-17.6
			c-1.1-9.5-7.9-16.1-13.7-19.1c-7.4-3.8-16.9-4-23.1-2.8c-14.3,2.8-27.1,12.9-29.2,27.9c-1.1,8,1.4,21.7,12.3,32
			c9.6,9.1,24.7,16.6,46.7,16.3c18.1-0.2,31.5-5.9,43.5-13c9.7-5.7,19.3-14.5,24.6-19.5c5.2-5,10.2-10.6,13.9-14.6
			C341.6,75.6,342,75,343.3,75.4"/>
		<path class="st0" d="M310.4,101.1c0,0-8,6.2-18.1,11.8c-5.6,3.1-10.9,5.5-17.4,7.6c-10.4,3.3-18.5,3.3-25,2.9
			c-10.7-0.6-19.6-4-26.2-8.3c-3.1-1.9-6.6-5-8.9-8c-1.9-2.5-3.7-6.5-4.4-9.7c-0.5-2.7-0.5-6.4,0.4-8.9c0.8-1.9,1.9-3.5,3.5-4.6
			c1.9-1.3,4.2-1.6,6-1.1c3.9,1.1,4.6,4.9,3.2,7.1c-1.2,1.7-4.4,2.4-5.8,0.6c-0.5-0.7-0.5-1.5-0.2-2.2s1.2-1.1,1.9-0.9
			c1.5,0.4,1.7-2.3-0.1-2.8c-1-0.3-2.4,0-3.4,0.7c-1.4,0.9-2.2,2-3,4.2c-0.5,1.7-0.9,6.6,0.5,10.3c2,5.4,6,9.9,10.9,13.3
			c5.7,4,13.6,7.3,25.2,8.2c7.4,0.5,18-0.2,25-2.7c4.3-1.5,10.4-3.6,17.4-7C302.2,106.9,310.2,100.2,310.4,101.1"/>
		<path class="st0" d="M227.4,53.6c5.4-1.1,13.6-0.9,20.1,2.5c5,2.6,10.9,8.4,11.9,16.7c0.8,6.3-0.4,11.3-3.1,15.5
			c-1.6,2.6-4.6,5.3-7.2,6.7c0,0,5.7-5.5,7.6-12.1s0.4-13.5-0.8-15.9s-3-4.6-5.2-6.4c-2.1-1.7-4.5-3.2-9.1-4.5
			c-1.5-0.4-11-2-18.6,0.6c-8.2,2.8-12.6,6.9-14.8,10.8c-1.5,2.7-1.3,6.5-0.7,8.6c0.4,1.4,1.7,3,3.2,3.8c2.3,1.2,4.8,1.5,6.8,0.3
			c2-1.1,3.7-3.5,2-7.2c-0.7-1.5-0.2-2.3,0.8-1.4c1.5,1.3,2.2,3.2,1.7,6c-0.5,3.3-4.3,5.3-7.3,5.4c-4.7,0.1-8.6-3.1-9.4-7.3
			c-0.4-2.3-0.7-7,2.3-10.8C213.4,57.3,222,54.7,227.4,53.6z"/>
		<path class="st0" d="M205.1,114c0,0-19.8-14.8-28-20.7S156.6,81,141.6,77.1c-10.5-2.8-29.9-5.2-43.3,5.9c-3.7,3.1-6.3,6.3-8.1,9.7
			c-3.6,6.8-4.2,12.2-2.7,19c1.7,8.2,8.6,17,20.2,21.3c5.9,2.2,13.6,2.6,19.1,1.2c3.8-1,8-2.9,11.3-6.8c2.2-2.6,3.2-6.7,3.2-9.5
			c0-2.9-1.1-6.4-2.6-8.5c-4.9-6.3-11.7-7-16.6-4.3c-4.6,2.5-4.8,8.1-1.3,10.1c2.8,1.6,6.9,0.7,8.3-1.6c1.3-2.2,1.2-4.6-0.5-6.1
			c-1.7-1.4,4.6-1,7.8,3.6c2.8,4.1,1.7,12-1.7,15.6c-2.1,2-5.2,3.6-8.2,4.4c-4.2,1.2-9.2,1-15.2-0.5c-5.4-1.3-10.8-5.3-14.4-9.8
			c-2.8-3.6-4.4-7.4-5-10.7c-1.9-9.1,1.9-18.8,9-24.5c5.2-4.2,11.5-7.3,21.7-7.7c5-0.2,11.9-0.1,19.7,1.9c5.5,1.4,9.8,3.3,15.1,5.6
			c7.8,3.5,13.9,6.8,18.1,9.7c5.6,3.8,21.5,15.3,28.4,19.4C203.7,114.6,204.6,114.3,205.1,114"/>
		<path class="st0" d="M26.6,30.6c2.5-3.6,5.9-6.4,10.2-8.3c2.1-0.9,4.3-1.6,6.3-2.4c0,0.1,0.1,0.2,0.1,0.3c-0.3,0.1-0.7,0.2-1,0.3
			c-4.5,1.4-8.4,3.5-11.7,6.6c-4.4,4-6.6,8.7-5.4,14.5c0.8,3.9,4.4,9.7,10.3,12.4c4.2,1.9,10.1,1.2,10.4,1.1
			c3.5-0.5,6.9-1.5,9.7-3.6c6-4.4,9.9-9.6,14.9-13c10.6-7.4,36-10.4,53-1.4c21.9,11.5,16.4,37.4,2.6,37.2c-10.4-0.2-9.3-8.9-6-10.7
			c5.6-3,10.6,1.8,7.5,6.5c2-0.6,6.8-0.8,7.4-10.2c0.5-7.1-3.3-17-18-23.1C103,31,84.8,33.5,73.7,39.3C66,43.4,63.3,50.1,61.6,52.7
			c-2.3,3.4-5.4,8.8-7.3,12.4c-0.1-0.2-0.7-1.1-0.8-1.2c1.2-2.2,3.2-6,4.4-8.2c1.3-2.4,3-4.7,4.4-7c-0.5,0.2-1.1,0.6-1.5,0.9
			c-3.3,2.5-12.3,8.2-21.5,6.6c-8.5-1.4-12.6-8.3-13.4-10.3C23.4,40.7,23.1,35.5,26.6,30.6z"/>
		<path class="st0" d="M177.3,63c0.1,1.2,1.2,5.4,2.4,8.5c3.6,9.5,5,11.3,5.1,11.4c0-0.6,0-1.1,0-1.7c-0.1-9.6,2.7-18.7,8.6-27
			c2.5-3.6,5.7-6.1,9.2-7.8c0.3-0.2,0.8-0.3,1.1-0.5c0.1,0,0.1,0,0.4,0.1c-0.9,0.5-1.6,0.8-2.3,1.2c-4.8,2.7-8.4,6.9-11,12.3
			c-4.4,9.1-6.3,18.1-4.3,27.1c0.9,3.7,2.4,6.8,4.4,9.4c-0.3,0.2-0.5,0.5-0.9,0.7c-1.1-1.5-2.1-3.2-3-5c-4.8-9.7-9.6-23.6-10.8-28.3
			C176.6,63.5,177.1,63,177.3,63z"/>
	</g>
	<g id="hojas_1_">
		<path class="st0" d="M172.3,87.8c-0.3-3.4,0.3-6.9-0.5-10.4c-4.7,3.7-4,10-0.3,11.4c-2.5-2.3-2.8-5.2-0.7-8c0.4,2.4,0.9,4.7,1.3,7
			C172.1,87.8,172.2,87.8,172.3,87.8z"/>
		<path class="st0" d="M39.1,58c-3,0.7-5.7,2.2-8.9,2.5c1.7-4.3,7.3-5.6,9.5-3.4c-2.7-1.1-5.2-0.5-7,1.8c2.2-0.4,4.3-0.7,6.2-1.1
			C39,57.9,39.1,57.9,39.1,58z"/>
		<path class="st0" d="M160.5,99.8c3.9-1.6,7.6-3.8,12.3-3.3c-1.5-0.7-3.1-0.7-8.9,0.1c1-3.3,6-4,10.4-1.1c-2.2-2.4-4.7-3.3-7.6-2.6
			C163.4,93.6,160.9,96.5,160.5,99.8z"/>
		<path class="st0" d="M44.5,47.1c-1.2,2.3-2.8,4.3-2.7,7.2c-0.4-1-0.4-1.9,0.3-5.4c-2.4,0.3-3,3.3-1.1,6.2
			c-1.6-1.5-2.2-3.1-1.6-4.9C40.1,48.3,42.2,47.1,44.5,47.1z"/>
		<g>
			<path class="st0" d="M181.1,64c1.9-0.9,3.6-1.1,5.2,0.3c-0.7-0.8-1.4-1.4-1.3-2.7c0.7,0.8,1.3,1.4,1.9,2.1
				c-0.5-1.5-1.5-2.6-2.8-3.5l0,0c0.2,0.9,0.4,1.8,0.7,2.8c-2.2-0.5-4.2-0.3-5.6,1.6c1.7,0.1,3.5,0.2,5.1,0.3
				c-0.4,0.6-1,1.2-1.3,1.8c-0.3,0.7-0.3,1.5,0.2,2.2c1-1.2,2-2.4,3-3.6c-0.9,0.7-1.6,1.3-2.5,2c-0.2-1.2,0.7-2.1,2.6-2.5
				C184.4,64.5,182.8,64.2,181.1,64z"/>
			<path class="st0" d="M188.5,58.9c-1.7,0.7-2.2,2.8-1,5c-0.2-1.2-0.5-2.3,0.3-3.4c0.2,1,0.4,2,0.7,3.2V58.9z"/>
		</g>
	</g>
	<g id="flores1_1_">
		<g>
			<g>
				<path class="st0" d="M209.4,40.3c1.4-1.8,2.7-3.5,5-4.9c-1.3-0.4-2.5-0.8-3.6-1.2c0-0.1,0-0.1,0-0.2c1,0.1,2.1,0.1,3.2,0.2
					c-1.7-2-3.9-3.2-6.8-4c2.8-0.1,4.7,1.4,7,2.2c-0.5-1-1.2-1.9-1.7-2.9l0.1-0.1c0.5,0.5,1,0.9,1.5,1.4c0.1,0,0.1,0,0.2-0.1
					c-0.3-0.9-0.5-1.8-1.1-2.6c-0.7-1.2-1.4-2.4-2.4-3.5s-2.3-1.4-3.8-0.8c-0.3,0.1-0.7,0.2-1,0.3c-0.9,0.4-1.9,0.6-2.7,0
					c0,1.1-0.1,2.2-0.1,3.2c0,1.2,0.5,2.1,2,2.6c-0.3,0.1-0.4,0.1-0.5,0.1c-2.4,0.3-3.5,1.3-4,3.5c-0.3,1.5-0.7,2.9-2.3,3.8
					c0.2,0.2,0.3,0.3,0.5,0.4c1.5,0.7,2.5,1.9,3.5,3.1c1.5,2,2.8,2.2,5,0.8c0.3-0.2,0.7-0.4,1.1-0.7
					C208.9,40.9,209.1,40.6,209.4,40.3z"/>
				<path class="st0" d="M209.4,40.3c-0.3,0.3-0.5,0.6-0.9,0.9c-0.1,0.1-0.1,0.2-0.2,0.3c-2.1,2.4-2,4.8-0.3,7.3
					c0.9,1.4,1.9,2.8,2.7,4.2h0.1c0.7-1.2,1.9-1.5,3.1-1.8c3.6-0.8,4.6-1.8,4.8-5.3c0.1-2.7-0.7-5.2-2.1-7.8
					c-0.3,1.4-0.5,2.6-0.8,3.8c-0.1,0-0.1,0-0.2,0c0.1-0.9,0.2-1.8,0.2-2.7s-0.2-1.8-0.2-2.7c-0.1,0-0.2-0.1-0.3-0.1
					c-1.7,1.2-3.5,2.4-5.2,3.5C209.9,40,209.7,40.1,209.4,40.3z"/>
				<path class="st0" d="M226.2,49.8c-0.2-1.2-0.4-2.3-0.5-3.4c-0.1-1.1-0.2-2.3-0.2-3.5c0.9,1,1.9,1.9,3.4,1.5c1-0.3,1.6-1,2-2.1
					c-1.4,0.1-1.5-1-2-1.8c-1-1.9-2.2-3.7-3.9-5.1c-1.6-1.3-3.5-2-5.9-1.6c1,0.5,1.9,1,2.7,1.5l-0.1,0.1c-1.1-0.2-2.2-0.4-3.4-0.6
					c0,0.1-0.1,0.2-0.1,0.2c0.7,0.7,1.3,1.3,2,2c0,0.1-0.1,0.1-0.1,0.2c-0.8-0.6-1.5-1.1-2.3-1.7c-0.1,0-0.1,0-0.2,0.1
					c0.2,0.8,0.4,1.6,0.7,2.3c0.9,2.5,1.2,5,1.2,7.6c0,0.8,0.2,1.7,0.4,2.5c0.5,1.6,1.9,2.2,3.7,1.9C224.4,50,225.3,49.9,226.2,49.8
					z"/>
				<path class="st0" d="M217.2,32.5c0.2-0.3,0.5-0.5,0.9-0.9c0,0.4,0.1,0.7,0.1,1c1.9-0.3,2.5-1.6,1.4-2.9
					c-0.5-0.6-1.2-1.2-1.9-1.7c-0.3-0.3-0.8-0.5-1-0.9c-0.5-1.2-1.9-1-2.8-1.1c-0.5-0.1-0.7,0.2-0.5,0.6c0,0.1,0.1,0.3,0.2,0.4
					c1.4,1.7,2.8,3.3,3.4,5.5C217,32.5,217.1,32.5,217.2,32.5z"/>
				<path class="st0" d="M217.5,33.9c-0.4-0.5-0.8-1-1.3-1.4s-1.1-0.1-1.2,0.6c-0.1,0.7,0.5,1.7,1.2,2c0.2,0.1,0.8,0.1,0.9-0.1
					C217.3,34.8,217.4,34.4,217.5,33.9z"/>
			</g>
		</g>
		<g>
			<path class="st0" d="M172.5,53c-2.2-2.2-4.4-4.4-5.8-7.6c-1,1.5-1.9,2.8-2.7,4.1c-0.1,0-0.1,0-0.2-0.1c0.3-1.2,0.8-2.5,1.2-3.8
				c-3.5,1.6-5.9,4-7.9,7.2c0.7-3.5,3.4-5.5,5.2-8.1c-1.6,0.4-3.2,0.9-4.8,1.3c0-0.1-0.1-0.1-0.1-0.2c0.9-0.5,1.6-1,2.5-1.5
				c0-0.1,0-0.2-0.1-0.2c-1.4,0.2-2.8,0.2-4.3,0.6c-2,0.5-4,1.1-5.8,2c-1.9,0.9-2.6,2.5-2.3,4.5c0.1,0.4,0.1,0.9,0.2,1.3
				c0.2,1.2,0.3,2.5-0.8,3.4c1.6,0.4,3.2,0.7,4.8,1c1.7,0.4,3.3,0,4.5-1.7c0,0.4,0,0.6,0,0.7c-0.2,3,1,4.8,4,6
				c2.1,0.8,4.2,1.7,5,3.9c0.3-0.2,0.5-0.3,0.8-0.5c1.4-1.7,3.5-2.6,5.6-3.5c3.4-1.4,4-2.9,2.7-6.1c-0.2-0.5-0.4-1-0.7-1.5
				C173.2,53.9,172.8,53.5,172.5,53z"/>
			<path class="st0" d="M172.5,53c0.3,0.4,0.7,0.9,1,1.3c0.1,0.1,0.3,0.2,0.4,0.4c2.8,3.2,6.6,3.8,10.7,2.5c2.3-0.7,4.6-1.5,7-2.2
				c0,0,0-0.1,0-0.2c-1.6-1.1-1.7-2.7-1.7-4.4c-0.1-4.7-1.4-6.3-6.4-7.5c-3.9-0.9-7.9-0.7-12.1,0.3c2,0.7,3.6,1.4,5.4,2.1
				c0,0.1-0.1,0.2-0.1,0.3c-1.3-0.3-2.6-0.8-3.9-1c-1.3-0.2-2.7-0.3-4-0.4c-0.1,0.1-0.2,0.2-0.2,0.4c1.2,2.5,2.5,5,3.7,7.6
				C172.2,52.4,172.3,52.7,172.5,53z"/>
			<path class="st0" d="M191.3,35c-1.7-0.1-3.5-0.1-5.2-0.3s-3.4-0.4-5.2-0.7c1.7-0.8,3.4-1.7,3.2-3.8c-0.1-1.4-1.1-2.3-2.5-3.1
				c-0.3,1.8-1.9,1.7-3.2,2c-3.1,0.7-6,1.7-8.6,3.4c-2.4,1.7-3.9,3.8-3.9,6.8c1.1-1.1,2.1-2,3.1-3c0.1,0.1,0.1,0.1,0.2,0.2
				c-0.7,1.3-1.2,2.7-1.9,4c0.1,0.1,0.2,0.1,0.3,0.2c1.2-0.6,2.4-1.3,3.6-1.9c0.1,0.1,0.1,0.2,0.2,0.2c-1.1,0.8-2.1,1.6-3.2,2.4
				c0,0.1,0,0.2,0,0.2c1.2,0,2.4,0,3.6-0.2c3.9-0.4,7.8,0,11.6,0.7c1.3,0.2,2.6,0.3,3.9,0.2c2.5-0.2,3.8-1.7,3.8-4
				C191.2,37.3,191.3,36.1,191.3,35z"/>
			<path class="st0" d="M163.1,41.2c-0.3-0.4-0.7-0.8-1.1-1.3c0.7,0.1,1.1,0.1,1.5,0.2c0.1-2.4-1.6-3.6-3.9-2.5
				c-1.1,0.5-2.1,1.2-3.1,1.8c-0.5,0.3-1,0.8-1.5,0.9c-2,0.4-2,2-2.5,3.2c-0.2,0.6,0.1,0.9,0.8,0.8c0.2,0,0.4-0.1,0.7-0.2
				c2.8-1.2,5.7-2.6,9.1-2.6C163.1,41.4,163.1,41.3,163.1,41.2z"/>
			<path class="st0" d="M165.4,41.1c-0.9,0.4-1.7,0.7-2.4,1.2c-0.8,0.6-0.4,1.4,0.5,1.7c1,0.3,2.7-0.1,3.3-1
				c0.2-0.3,0.3-0.9,0.1-1.1C166.6,41.6,166.1,41.5,165.4,41.1z"/>
		</g>
	</g>
	<g id="Flores_2_1_">
		<g>
			<path class="st0" d="M42,27.9c-0.3-1-1.2-1.5-0.1-3.8c1.2-2.5,2.7-4,3.6-4c-1.3,1-2,2.3-2.2,4c1.9-1.3,3.7-2.3,4.7-4.3
				c0.3,1.2,0,2.1-2.2,4.4C44,26.2,42.6,27.3,42,27.9z"/>
			<path class="st0" d="M36.7,15.4c1.6,0.6,2.8,1.3,3.7,2.5c0.3,0.4,1,0.7,1.5,0.9c1.5,0.6,3.1,0.5,4.7,0.1c0.4-0.1,0.8-0.4,1.1-0.7
				c-2.3-0.3-4.7-0.4-6.2-2.5c1.1-0.6,2.2-0.7,3.3-0.2c1.1,0.4,2.1,0.9,3.3,1.4c-0.1-0.5-0.2-0.9-0.4-1.5c0.4,0.3,0.8,0.5,1.4,0.8
				c-0.7-2-1.6-3.8-1.5-5.9c2,1.1,2.4,2.7,2.7,4.4C51,12.8,51,11,49.8,9.3c-1.2-1.6-3-2-5-2.2c-0.8,2.5-1.2,4.8,1.1,6.7
				C42.4,12.6,39.5,13.2,36.7,15.4z"/>
			<path class="st0" d="M51.9,15.9c1,0.3,1.7,0.3,2.5,0c1.4-0.6,2.6-1.4,3.4-2.8c0.8-1.5,1.4-3,2.1-4.5c0-0.1,0-0.2,0.1-0.5
				c-1.5,0.3-3.1,0.5-4.6,0.9c-2.8,0.7-3.9,2.1-4,4.8c0,0.2,0,0.3,0,0.5c1-0.2,1.5-0.8,2.1-1.4c1-1.1,1.9-1.7,3.1-2.1
				C55.7,13.1,53.5,14.2,51.9,15.9z"/>
			<path class="st0" d="M59,18.9c-2.3-0.5-4.3-0.9-6.6-0.9c1.2,1.4,2.5,2.3,4,2.8c1.3,0.4,2.5,0.4,3.8,0.2c1-0.1,2-0.2,3-0.2
				c-0.1-0.2-0.2-0.4-0.3-0.6c-0.8-1-1.6-2-2.4-3c-1-1.4-2.5-1.8-4.2-1.5c-0.9,0.2-1.7,0.5-2.6,0.9C55.7,16.9,57.7,17,59,18.9z"/>
			<path class="st0" d="M52.8,28.6c1.1-1.5,2.1-3.1,2.4-4.9c0.2-1.5-0.7-2.6-2.6-3.5c0,0.6,0.2,1,0.5,1.4c0.9,1,1,2,0.5,3.1
				c-0.1,0.2-0.8,1.9-1,2.1c-0.3-0.8-0.8-1.6-1.1-3c-0.3-1-0.1-2.9-0.9-3.8c-0.4,1.5-1,3-1,4.5c0,0.6,0.2,1.3,0.5,1.8
				C51,27.2,51.7,28,52.8,28.6z"/>
		</g>
		<g>
			<path class="st0" d="M61.7,66.8c-0.2,1.2,0.5,2.2-1.9,4.1c-2.6,2.2-5.1,3.2-6,2.7c2-0.5,3.3-1.6,4.5-3.4
				c-2.7,0.5-5.2,0.8-7.4,2.5c0.3-1.5,1.1-2.3,4.8-3.8C58.6,67.8,60.8,67.2,61.7,66.8z"/>
			<path class="st0" d="M60.8,82.7c-1.4-1.4-2.4-2.7-2.7-4.4c-0.1-0.6-0.7-1.2-1.1-1.6c-1.3-1.3-3.1-2-5-2.1
				c-0.5-0.1-1.1,0.1-1.6,0.3c2.3,1.4,4.8,2.5,5.4,5.5c-1.5,0.2-2.7-0.3-3.6-1.2c-0.9-1-1.7-1.9-2.8-3c-0.1,0.6-0.2,1.1-0.3,1.8
				c-0.3-0.5-0.7-0.9-1.1-1.5c-0.4,2.5-0.2,4.9-1.5,7.1c-1.5-2-1.1-4-0.5-6c-1.7,1.7-2.7,3.7-2.3,6.1c0.4,2.3,2.1,3.5,4.3,4.6
				c2.1-2.4,3.8-4.6,2.4-7.8C53.2,83.2,56.7,83.8,60.8,82.7z"/>
			<path class="st0" d="M44.8,75.3c-0.9-0.8-1.7-1.1-2.7-1.1c-1.9,0-3.7,0.4-5.1,1.5c-1.5,1.3-3.1,2.6-4.6,3.9
				c-0.1,0.1-0.1,0.2-0.3,0.5c1.9,0.4,3.6,0.9,5.4,1.1c3.5,0.5,5.5-0.5,7-3.4c0.1-0.2,0.1-0.4,0.2-0.6c-1.2-0.2-2.2,0.2-3.1,0.6
				c-1.6,0.8-2.8,1-4.5,0.9C39,76.6,42,76.5,44.8,75.3z"/>
			<path class="st0" d="M38.6,68.9c2.2,1.5,4,2.9,6.6,3.9c-0.5-2.1-1.4-3.6-3-4.8c-1.2-1-2.5-1.6-4-2c-1.1-0.3-2.2-0.7-3.4-1.1
				c0,0.2,0,0.6,0.1,0.9c0.3,1.4,0.8,2.9,1,4.3c0.3,1.9,1.7,3,3.7,3.4c1.1,0.2,2.2,0.2,3.3,0.1C41,72.5,39,71.6,38.6,68.9z"/>
			<path class="st0" d="M50.3,61.2c-2.1,1.2-3.9,2.4-5.2,4.2c-1.1,1.5-0.8,3.1,1,4.9c0.3-0.6,0.2-1.2,0.1-1.7
				c-0.4-1.5,0-2.6,1.1-3.6c0.2-0.2,1.9-1.7,2.3-1.8c-0.1,1-0.1,2-0.3,3.7c-0.2,1.3-1.4,3.2-1.1,4.5c1.3-1.4,2.7-2.7,3.4-4.4
				c0.3-0.7,0.4-1.5,0.3-2.2C51.6,63.6,51.3,62.4,50.3,61.2z"/>
		</g>
		<g>
			<path class="st0" d="M116.7,51.5c-0.7,0.8-0.7,1.8-3.3,2.4c-3,0.6-5.1,0.5-5.7-0.2c1.6,0.3,3.2,0.1,4.8-0.8
				c-2.3-0.6-4.2-1.3-6.6-0.9c0.9-1,1.9-1.3,5.2-1C113.9,51.1,115.8,51.5,116.7,51.5z"/>
			<path class="st0" d="M108.9,63c-0.4-1.5-0.5-2.9-0.1-4.2c0.2-0.5,0-1.1-0.1-1.6c-0.4-1.5-1.4-2.6-2.7-3.4
				c-0.3-0.2-0.8-0.3-1.3-0.4c1.1,1.9,2.4,3.7,1.5,6c-1.2-0.4-1.9-1.2-2.2-2.3c-0.2-1-0.4-2.1-0.8-3.3c-0.3,0.4-0.7,0.7-1.1,1.2
				c0-0.5-0.1-0.9-0.1-1.5c-1.4,1.7-2.3,3.5-4.3,4.7c-0.2-2,1-3.4,2.2-4.7c-2.1,0.6-3.7,1.7-4.4,3.7c-0.7,1.8,0,3.4,1.1,5
				c2.6-1,4.8-2,5.1-4.9C103.1,60.5,105.3,62.3,108.9,63z"/>
			<path class="st0" d="M100.3,51.6c-0.3-0.9-0.8-1.5-1.5-1.8c-1.4-0.7-2.8-1.1-4.5-0.8s-3.5,0.8-5.1,1.2c-0.1,0-0.2,0.1-0.5,0.3
				c1.2,1,2.3,2,3.5,2.8c2.4,1.7,4.3,1.6,6.7,0.1c0.1-0.1,0.2-0.2,0.4-0.3c-0.8-0.6-1.6-0.7-2.5-0.7c-1.5-0.1-2.5-0.3-3.7-1
				C95.5,50.4,97.8,51.4,100.3,51.6z"/>
			<path class="st0" d="M98.6,44.6c0.9,2,1.7,3.6,3.2,5.4c0.5-1.7,0.5-3.2,0-4.7c-0.4-1.1-1.2-2.1-2.1-3c-0.7-0.6-1.3-1.3-2-2
				c-0.1,0.2-0.2,0.4-0.3,0.7c-0.4,1.2-0.8,2.4-1.2,3.6c-0.5,1.6-0.1,2.9,1.2,3.9c0.7,0.5,1.5,0.9,2.4,1.3
				C98.7,48.2,97.8,46.7,98.6,44.6z"/>
			<path class="st0" d="M110.7,43.2c-2,0.1-3.9,0.3-5.7,1.2c-1.4,0.7-1.9,2-1.5,4c0.5-0.3,0.8-0.8,0.9-1.2c0.3-1.2,1.1-1.9,2.4-2.2
				c0.2-0.1,2.1-0.5,2.5-0.5c-0.5,0.7-1,1.5-2,2.6c-0.8,0.9-2.5,1.8-2.7,2.9c1.6-0.6,3.2-1,4.5-2c0.5-0.4,1-0.9,1.2-1.5
				C110.7,45.5,110.9,44.4,110.7,43.2z"/>
		</g>
		<g>
			<path class="st0" d="M141.4,61.8c0.5,1.2,0.9,2.3,0.8,3.4c-0.1,0.4,0.1,0.9,0.3,1.3c0.5,1.1,1.5,1.9,2.7,2.4
				c0.3,0.1,0.7,0.2,1.1,0.2c-1.2-1.4-2.6-2.7-2.2-4.7c1.1,0.2,1.7,0.7,2.1,1.5c0.3,0.8,0.7,1.6,1.1,2.6c0.2-0.4,0.4-0.7,0.7-1.1
				c0.1,0.4,0.2,0.7,0.3,1.2c0.9-1.6,1.3-3.1,2.7-4.4c0.5,1.6-0.2,2.8-1.1,4.1c1.5-0.8,2.7-1.9,3-3.6c0.2-1.6-0.5-2.8-1.6-3.9
				c-2,1.1-3.6,2.3-3.4,4.6C146.5,63.1,144.3,62,141.4,61.8z"/>
			<path class="st0" d="M150.1,69.9c0.4,0.7,0.9,1.1,1.5,1.3c1.2,0.4,2.5,0.5,3.7,0c1.3-0.5,2.6-1.1,4-1.6c0.1,0,0.2-0.1,0.3-0.3
				c-1.1-0.6-2.2-1.3-3.3-1.8c-2.2-1-3.7-0.8-5.5,0.8c-0.1,0.1-0.2,0.2-0.3,0.3c0.8,0.4,1.4,0.3,2.2,0.2c1.3-0.2,2.1-0.1,3.2,0.3
				C154.3,70.2,152.2,69.8,150.1,69.9z"/>
			<path class="st0" d="M146,69.7c-0.5-0.6-1.1-0.9-1.7-1c-1.3-0.2-2.5-0.1-3.7,0.6s-2.4,1.5-3.6,2.3c-0.1,0.1-0.1,0.2-0.3,0.3
				c1.2,0.4,2.4,0.9,3.6,1.2c2.3,0.6,3.7,0.1,5.1-1.7c0.1-0.1,0.1-0.2,0.2-0.4c-0.8-0.3-1.5-0.1-2.2,0.1c-1.2,0.4-2.1,0.4-3.2,0.2
				C141.9,70.1,144,70.2,146,69.7z"/>
			<path class="st0" d="M152.6,75.4c-1.1-1.5-2-2.7-3.4-3.9c-0.1,1.5,0.1,2.7,0.8,3.8c0.5,0.9,1.3,1.5,2.2,2.1
				c0.7,0.4,1.3,0.9,2,1.4c0-0.2,0.1-0.4,0.2-0.6c0.1-1,0.2-2,0.3-3c0.2-1.4-0.4-2.3-1.6-3c-0.7-0.4-1.4-0.6-2.2-0.8
				C151.9,72.5,152.9,73.6,152.6,75.4z"/>
			<path class="st0" d="M144.4,75.9c1.1-1.4,2-2.7,2.7-4.3c-1.5,0.4-2.6,1-3.5,2.1c-0.7,0.8-1.1,1.7-1.3,2.7
				c-0.2,0.7-0.4,1.4-0.7,2.2c0.2,0,0.4,0,0.7-0.1c1.1-0.3,2.2-0.6,3.2-0.8c1.4-0.3,2.2-1.2,2.4-2.5c0.1-0.7,0-1.4,0-2.1
				C147.2,74.3,146.5,75.6,144.4,75.9z"/>
		</g>
	</g>
</g>
</svg>
