<?xml version="1.0" encoding="utf-8"?>
<!-- Generator: Adobe Illustrator 21.1.0, SVG Export Plug-In . SVG Version: 6.00 Build 0)  -->
<svg version="1.1" id="Capa_1" xmlns="http://www.w3.org/2000/svg" xmlns:xlink="http://www.w3.org/1999/xlink" x="0px" y="0px"
	 viewBox="0 0 683.3 149.3" style="enable-background:new 0 0 683.3 149.3;" xml:space="preserve">
<style type="text/css">
	.st0{fill:#FFFFFF;}
</style>
<g id="NUMEROS">
	<path class="st0" d="M242.7,31.7c0,5.8-1.8,11.7-7.3,11.7c-5.6,0-7.3-5.9-7.3-11.7c0-5.8,1.7-11.7,7.3-11.7
		C241,20,242.7,25.9,242.7,31.7 M230.4,31.7c0,4.4,1,9.7,5,9.7c3.9,0,5-5.3,5-9.7c0-4.4-1.1-9.8-5-9.8
		C231.5,21.9,230.4,27.3,230.4,31.7"/>
	<polygon class="st0" points="219.3,42.8 217.1,42.8 217.1,23.3 213,26.8 211.6,25.2 217.3,20.5 219.3,20.5 	"/>
	<path class="st0" d="M261,31.7c0,5.8-1.8,11.7-7.3,11.7c-5.6,0-7.3-5.9-7.3-11.7c0-5.8,1.7-11.7,7.3-11.7
		C259.2,20,261,25.9,261,31.7 M248.7,31.7c0,4.4,1,9.7,5,9.7c3.9,0,5-5.3,5-9.7c0-4.4-1.1-9.8-5-9.8
		C249.7,21.9,248.7,27.3,248.7,31.7"/>
	<path class="st0" d="M269.5,31.2c-3.1,0-5.5-2.4-5.5-5.5c0-3.1,2.4-5.5,5.5-5.5s5.5,2.4,5.5,5.5C275.1,28.8,272.7,31.2,269.5,31.2
		 M269.5,22c-2,0-3.6,1.5-3.6,3.6c0,2.1,1.7,3.6,3.6,3.6s3.6-1.5,3.6-3.6C273.2,23.6,271.5,22,269.5,22 M269.6,43.8l-1.6-0.8
		l14.2-23.4l1.6,0.8L269.6,43.8z M282.3,43.2c-3.1,0-5.5-2.4-5.5-5.5c0-3.1,2.4-5.5,5.5-5.5c3.1,0,5.5,2.4,5.5,5.5
		C287.8,40.8,285.4,43.2,282.3,43.2 M282.3,34.1c-2,0-3.6,1.5-3.6,3.6c0,2.1,1.7,3.6,3.6,3.6c2,0,3.6-1.5,3.6-3.6
		C285.9,35.6,284.3,34.1,282.3,34.1"/>
	<path class="st0" d="M318.6,39.2c-1.5,2.2-4.3,4.2-8.3,4.2c-6.7,0-11.6-4.9-11.6-11.7c0-6.8,5-11.7,11.6-11.7
		c3.3,0,6.4,1.4,7.9,3.5l-1.9,1.4c-0.9-1.4-3.2-2.9-6-2.9c-5.8,0-9.2,4.5-9.2,9.7c0,5.2,3.5,9.7,9.2,9.7c2.5,0,5-1,6.5-3.3
		L318.6,39.2z"/>
	<path class="st0" d="M328.8,43.2c-4.6,0-7.8-3.3-7.8-7.7s3.3-7.7,7.8-7.7c4.6,0,7.9,3.3,7.9,7.7S333.4,43.2,328.8,43.2 M328.8,29.5
		c-3.4,0-5.6,2.6-5.6,5.9s2.2,5.9,5.6,5.9c3.4,0,5.6-2.6,5.6-5.9S332.2,29.5,328.8,29.5"/>
	<rect x="341.3" y="19" class="st0" width="2.1" height="23.8"/>
	<path class="st0" d="M355.9,43.2c-4.6,0-7.8-3.3-7.8-7.7s3.3-7.7,7.8-7.7c4.6,0,7.9,3.3,7.9,7.7S360.5,43.2,355.9,43.2 M355.9,29.5
		c-3.4,0-5.6,2.6-5.6,5.9s2.2,5.9,5.6,5.9c3.4,0,5.6-2.6,5.6-5.9S359.3,29.5,355.9,29.5"/>
	<path class="st0" d="M375.3,27.7c1.6,0,3.6,0.6,4.5,3.1c1-2,2.8-3.1,5.2-3.1c3.7,0,5.6,2.4,5.6,6.1v9h-2.1v-8.1
		c0-3.1-1-5.2-3.8-5.2c-3.1,0-4.2,2.7-4.2,5.5v7.8h-2.1v-8.6c0-2.9-0.7-4.7-3.6-4.7c-2,0-4.3,1.8-4.3,5.8v7.5h-2.1V31.3
		c0-0.8,0-2.2-0.1-3.2h2c0.1,0.8,0.1,1.9,0.1,2.5h0.1C371.3,28.9,373.2,27.7,375.3,27.7"/>
	<path class="st0" d="M398.4,40.3v2.5h-2.1V19h2.1v11.6h0.1c1.3-1.9,3.5-2.9,5.6-2.9c4.6,0,7.6,3.4,7.6,7.7s-3,7.7-7.6,7.7
		C401.9,43.2,399.7,42.2,398.4,40.3L398.4,40.3z M403.8,29.5c-3.3,0-5.7,2.6-5.7,5.9c0,3.4,2.4,5.9,5.7,5.9c3.6,0,5.6-2.6,5.6-5.9
		C409.3,32.2,407.3,29.5,403.8,29.5"/>
	<path class="st0" d="M417.3,23.9c-0.8,0-1.5-0.6-1.5-1.5s0.8-1.5,1.5-1.5c0.8,0,1.5,0.6,1.5,1.5S418.1,23.9,417.3,23.9 M418.4,42.8
		h-2.1V28.1h2.1V42.8z"/>
	<path class="st0" d="M433.4,33.3c0-2.5-1.4-3.8-3.9-3.8c-1.7,0-3.3,0.7-4.4,1.7l-1.2-1.4c1.2-1.2,3.3-2.1,5.8-2.1
		c3.2,0,5.7,1.8,5.7,5.3v6.4c0,1.1,0.1,2.5,0.3,3.3h-1.9c-0.1-0.7-0.2-1.6-0.2-2.4h-0.1c-1.4,1.9-3,2.8-5.3,2.8
		c-2.2,0-5.1-1.2-5.1-4.5c0-4.5,5-4.9,10.4-4.9V33.3z M432.7,35.4c-3.5,0-7.6,0.4-7.6,3.2c0,2.1,1.8,2.8,3.5,2.8
		c3,0,4.7-2.3,4.7-4.9v-1.1H432.7z"/>
	<path class="st0" d="M442.8,28.1c0.1,0.8,0.1,1.9,0.1,2.5h0.1c0.8-1.7,3-2.9,5-2.9c3.7,0,5.6,2.4,5.6,6.1v9h-2.1v-8.1
		c0-3.1-0.9-5.2-4-5.2c-2.3,0-4.5,1.8-4.5,5.8v7.5h-2.1V31.3c0-0.8,0-2.2-0.1-3.2H442.8z"/>
	<path class="st0" d="M465.9,43.2c-4.6,0-7.8-3.3-7.8-7.7s3.3-7.7,7.8-7.7c4.6,0,7.9,3.3,7.9,7.7S470.5,43.2,465.9,43.2 M465.9,29.5
		c-3.4,0-5.6,2.6-5.6,5.9s2.2,5.9,5.6,5.9c3.4,0,5.6-2.6,5.6-5.9S469.3,29.5,465.9,29.5"/>
</g>
<g id="FLOR">
	<path class="st0" d="M332.6,107.6c6.2-3.4,12.3-6.8,17.5-12.8c0.9,4.1,1.6,7.6,2.4,11.1c0.2,0,0.3,0,0.5,0c0.2-3,0.3-6,0.5-9.3
		c5.8,6,9,13.1,10.5,21.5c1.4-8.2-2.8-14.5-4.6-21.6c2.9,2.1,5.8,4.2,8.7,6.3c0.1-0.1,0.2-0.2,0.3-0.3c-1.3-1.7-2.6-3.4-3.9-5.1
		c0.1-0.2,0.2-0.3,0.3-0.5c2.7,1.4,5.6,2.5,8.1,4.2c3.6,2.5,7.3,5.2,10.4,8.4c3.1,3.3,3.5,7.4,1.2,11.6c-0.5,0.9-0.9,1.8-1.4,2.7
		c-1.5,2.6-2.6,5.2-0.9,8.1c-3.6-0.4-7-0.7-10.4-1.1c-3.9-0.5-6.6-2.4-7.7-6.9c-0.4,0.9-0.5,1.3-0.6,1.6c-2,6.9-5.6,9.9-12.7,10.5
		c-4.9,0.4-9.7,0.9-13.1,5.2c-0.5-0.7-0.9-1.1-1.1-1.7c-1.7-4.8-5.1-8.3-8.8-11.7c-5.8-5.3-6-9.3-0.8-15.3c0.8-1,1.7-1.9,2.5-2.8
		C330.5,109.1,331.5,108.3,332.6,107.6z"/>
	<path class="st0" d="M332.6,107.6c-1,0.7-2.1,1.5-3.1,2.2c-0.4,0.2-0.8,0.3-1.1,0.5c-8.3,5.1-16.2,3.8-23.6-1.8
		c-4.2-3.2-8.2-6.5-12.4-9.8c0,0,0-0.3,0.2-0.4c4.2-1.3,5.6-4.8,7-8.5c3.8-10.4,7.7-12.9,18.8-12.1c8.7,0.7,16.5,4.1,24.3,9.1
		c-4.5,0.3-8.5,0.6-12.5,0.8c0,0.2,0,0.4,0,0.6c2.9,0.2,5.9,0.1,8.7,0.5c2.9,0.4,5.7,1.2,8.6,1.8c0.1,0.3,0.2,0.6,0.2,1
		c-4.5,4.7-8.9,9.4-13.4,14.2C333.7,106.4,333.1,107,332.6,107.6z"/>
	<path class="st0" d="M308,54.5c3.6,1,7.2,2.2,10.8,3c3.6,0.9,7.3,1.5,11.1,2.2c-2.9-3-5.6-6.2-3.6-10.7c1.3-2.9,3.9-4.3,7.4-5
		c-0.8,4.2,2.5,5,4.9,6.6c5.7,3.7,11,7.9,14.9,13.7c3.6,5.4,5.1,11.2,2.8,18c-1.4-3.1-2.6-5.9-3.9-8.7c-0.2,0.1-0.3,0.1-0.5,0.2
		c0.2,3.4,0.4,6.8,0.7,10.1c-0.3,0.1-0.5,0.1-0.8,0.2c-1.9-2.2-3.9-4.5-5.8-6.7c-0.2,0.1-0.4,0.3-0.6,0.4c1.5,2.5,3.1,5,4.6,7.5
		c-0.1,0.2-0.2,0.3-0.3,0.5c-2.4-1-4.9-1.8-7.3-2.9c-7.6-3.6-15.7-5.4-23.9-6.6c-2.7-0.4-5.5-1.2-8-2.3c-4.9-2.2-6.5-6.4-4.8-11.6
		C306.6,59.6,307.3,57,308,54.5z"/>
	<path class="st0" d="M360.5,87.9c1-0.6,1.9-1.3,3.3-2.1c-1.4-0.3-2.4-0.5-3.3-0.7c1.6-5.5,5.9-6.8,9.8-2.9c1.8,1.8,3.3,4.1,4.9,6.1
		c0.8,1.1,1.4,2.6,2.5,3.2c3.8,2.2,2.4,5.7,2.6,8.9c0.1,1.5-0.9,1.9-2.2,1.2c-0.4-0.2-0.9-0.5-1.3-0.8c-4.9-4.7-9.6-9.8-16.4-12.1
		C360.4,88.4,360.5,88.2,360.5,87.9z"/>
	<path class="st0" d="M355.9,86.2c1.4,1.5,3,2.8,4,4.4c1.1,1.8-0.2,3.3-2.3,3.3c-2.3,0-5.4-2.2-5.9-4.5c-0.2-0.8,0-2.1,0.5-2.5
		C353.1,86.4,354.4,86.5,355.9,86.2z"/>
</g>
<g id="Ornament_R">
	<g id="circulos">
		<path class="st0" d="M500,131.2c0,4.5,3.7,8.2,8.2,8.2c4.5,0,8.2-3.7,8.2-8.2c0-4.5-3.7-8.2-8.2-8.2
			C503.6,123.1,500,126.7,500,131.2"/>
		<path class="st0" d="M481.2,136.1c0,2.8,2.3,5.1,5.1,5.1c2.8,0,5.1-2.3,5.1-5.1s-2.3-5.1-5.1-5.1
			C483.5,131,481.2,133.3,481.2,136.1"/>
		<path class="st0" d="M463,136.5c0,2.3,1.8,4.1,4.1,4.1c2.3,0,4.1-1.8,4.1-4.1c0-2.3-1.8-4.1-4.1-4.1
			C464.9,132.4,463,134.3,463,136.5"/>
		<path class="st0" d="M446.5,133.1c0,1.6,1.3,2.9,2.9,2.9c1.6,0,2.9-1.3,2.9-2.9c0-1.6-1.3-2.8-2.9-2.8
			C447.8,130.2,446.5,131.5,446.5,133.1"/>
		<path class="st0" d="M432.4,127.4c0,1.1,0.9,2,2,2c1.1,0,2-0.9,2-2c0-1.1-0.9-2-2-2C433.3,125.4,432.4,126.3,432.4,127.4"/>
		<path class="st0" d="M419.1,119.4c0,1.1,0.9,2,2,2c1.1,0,2-0.9,2-2c0-1.1-0.9-2-2-2C420,117.4,419.1,118.3,419.1,119.4"/>
		<path class="st0" d="M407.8,109.5c0,1.1,0.9,2,2,2c1.1,0,2-0.9,2-2c0-1.1-0.9-2-2-2C408.7,107.5,407.8,108.4,407.8,109.5"/>
		<path class="st0" d="M565.9,89.7c0,2.8,2.3,5.1,5.1,5.1c2.8,0,5.1-2.3,5.1-5.1c0-2.8-2.3-5.1-5.1-5.1
			C568.2,84.6,565.9,86.9,565.9,89.7"/>
		<path class="st0" d="M582.8,86.9c0,2.8,2.3,5.1,5.1,5.1c2.8,0,5.1-2.3,5.1-5.1c0-2.8-2.3-5.1-5.1-5.1
			C585,81.8,582.8,84,582.8,86.9"/>
		<path class="st0" d="M599.1,92c0,2.8,2.3,5.1,5.1,5.1c2.8,0,5.1-2.3,5.1-5.1c0-2.8-2.3-5.1-5.1-5.1
			C601.4,86.9,599.1,89.2,599.1,92"/>
		<path class="st0" d="M605.2,108.4c0,2.8,2.3,5.1,5.1,5.1c2.8,0,5.1-2.3,5.1-5.1c0-2.8-2.3-5.1-5.1-5.1
			C607.5,103.3,605.2,105.6,605.2,108.4"/>
	</g>
	<g id="lineas">
		<path class="st0" d="M388.1,75.4c-0.5,0.2,0.6,1.8,1.7,3.4c5,7.3,16.2,20.8,30.6,32.8c16.3,13.5,33.9,17.3,45.8,17.6
			c23.2,0.7,42-8,51.6-20.8c9.7-12.8,12.2-33.4,2.9-46.8c-3.9-5.6-10.4-11.1-17.6-13.9c-10-4-22-3-28.9,0.1
			c-6.9,3.1-11.2,7.4-14.2,12.2c-7.9,12.5-4.8,27.3,2,35.2c6.3,7.2,14,8.7,18.3,8.9c5.8,0.3,10-2,12.1-4.2
			c4.6-4.7,2.5-12.3-4.1-13.1c-4.7-0.6-8.2,3.3-8,6.9c0.2,2.4,2.2,4.5,4.2,5.1c1.9,0.6,4.1,0.2,4.1,0.2s-3.7,3.2-11.2,0.9
			c-4.7-1.4-9.6-5.1-12.8-10.5c-2.8-4.8-4-10.5-3.3-17.6c1-9.5,7.2-16.1,12.5-19.1c6.8-3.8,15.5-4,21.1-2.8
			c13.1,2.8,24.8,12.9,26.7,27.9c1,8-1.3,21.7-11.3,32c-8.8,9.1-22.6,16.6-42.7,16.3c-16.6-0.2-28.8-5.9-39.8-13
			c-8.9-5.7-17.7-14.5-22.5-19.5c-4.8-5-9.3-10.6-12.7-14.6C389.7,75.5,389.3,74.9,388.1,75.4"/>
		<path class="st0" d="M418.1,101.1c0,0,7.3,6.2,16.6,11.8c5.1,3.1,10,5.5,15.9,7.6c9.5,3.3,16.9,3.3,22.9,2.9
			c9.8-0.6,17.9-4,24-8.3c2.8-1.9,6-5,8.1-8c1.7-2.5,3.4-6.5,4-9.7c0.5-2.7,0.5-6.4-0.4-8.9c-0.7-1.9-1.7-3.5-3.2-4.6
			c-1.7-1.3-3.8-1.6-5.5-1.1c-3.6,1.1-4.2,4.9-2.9,7.1c1.1,1.7,4,2.4,5.3,0.6c0.5-0.7,0.5-1.5,0.2-2.2c-0.3-0.7-1.1-1.1-1.7-0.9
			c-1.4,0.4-1.6-2.3,0.1-2.8c0.9-0.3,2.2,0,3.1,0.7c1.3,0.9,2,2,2.7,4.2c0.5,1.7,0.8,6.6-0.5,10.3c-1.8,5.4-5.5,9.9-10,13.3
			c-5.2,4-12.4,7.3-23.1,8.2c-6.8,0.5-16.5-0.2-22.9-2.7c-3.9-1.5-9.5-3.6-15.9-7C425.7,106.9,418.4,100.2,418.1,101.1"/>
		<path class="st0" d="M494.1,53.6c-4.9-1.1-12.4-0.9-18.4,2.5c-4.6,2.6-10,8.4-10.9,16.7c-0.7,6.3,0.4,11.3,2.8,15.5
			c1.5,2.6,4.2,5.3,6.6,6.7c0,0-5.2-5.5-7-12.1c-1.7-6.6-0.4-13.5,0.7-15.9c1.1-2.4,2.7-4.6,4.8-6.4c1.9-1.7,4.1-3.2,8.3-4.5
			c1.4-0.4,10.1-2,17,0.6c7.5,2.8,11.5,6.9,13.5,10.8c1.4,2.7,1.2,6.5,0.6,8.6c-0.4,1.4-1.6,3-2.9,3.8c-2.1,1.2-4.4,1.5-6.2,0.3
			c-1.8-1.1-3.4-3.5-1.8-7.2c0.6-1.5,0.2-2.3-0.7-1.4c-1.4,1.3-2,3.2-1.6,6c0.5,3.3,3.9,5.3,6.7,5.4c4.3,0.1,7.9-3.1,8.6-7.3
			c0.4-2.3,0.6-7-2.1-10.8C506.9,57.3,499,54.7,494.1,53.6z"/>
		<path class="st0" d="M514.5,114c0,0,18.1-14.8,25.6-20.7c7.5-5.9,18.8-12.3,32.5-16.2c9.6-2.8,27.4-5.2,39.6,5.9
			c3.4,3.1,5.8,6.3,7.4,9.7c3.3,6.8,3.8,12.2,2.5,19c-1.6,8.2-7.9,17-18.5,21.3c-5.4,2.2-12.4,2.6-17.5,1.2c-3.5-1-7.3-2.9-10.3-6.8
			c-2-2.6-2.9-6.7-2.9-9.5c0-2.9,1-6.4,2.4-8.5c4.5-6.3,10.7-7,15.2-4.3c4.2,2.5,4.4,8.1,1.2,10.1c-2.6,1.6-6.3,0.7-7.6-1.6
			c-1.2-2.2-1.1-4.6,0.5-6.1c1.6-1.4-4.2-1-7.1,3.6c-2.6,4.1-1.6,12,1.6,15.6c1.9,2,4.8,3.6,7.5,4.4c3.8,1.2,8.4,1,13.9-0.5
			c4.9-1.3,9.9-5.3,13.2-9.8c2.6-3.6,4-7.4,4.6-10.7c1.7-9.1-1.7-18.8-8.2-24.5c-4.8-4.2-10.5-7.3-19.9-7.7
			c-4.6-0.2-10.9-0.1-18,1.9c-5,1.4-9,3.3-13.8,5.6c-7.1,3.5-12.7,6.8-16.6,9.7c-5.1,3.8-19.7,15.3-26,19.4
			C515.8,114.6,514.9,114.3,514.5,114"/>
		<path class="st0" d="M677.8,30.6c-2.3-3.6-5.4-6.4-9.3-8.3c-1.9-0.9-3.9-1.6-5.8-2.4c0,0.1-0.1,0.2-0.1,0.3
			c0.3,0.1,0.6,0.2,0.9,0.3c4.1,1.3,7.7,3.4,10.7,6.5c4,4,6,8.7,4.9,14.5c-0.7,3.9-4,9.7-9.4,12.4c-3.8,1.9-9.2,1.2-9.5,1.1
			c-3.2-0.5-6.3-1.5-8.9-3.6c-5.5-4.4-9.1-9.6-13.6-13c-9.7-7.4-32.9-10.4-48.5-1.4c-20,11.5-15,37.4-2.4,37.2
			c9.5-0.2,8.5-8.9,5.5-10.7c-5.1-3-9.7,1.8-6.9,6.5c-1.8-0.6-6.2-0.8-6.8-10.2c-0.5-7.1,3-17,16.5-23.1c12.7-5.8,29.4-3.3,39.5,2.5
			c7.2,4.1,9.6,10.8,11.2,13.4c2.1,3.4,4.9,8.8,6.7,12.4c0.1-0.2,0.6-1.1,0.7-1.2c-1.1-2.2-2.9-6-4-8.2c-1.2-2.4-2.7-4.7-4-7
			c0.5,0.2,1,0.6,1.4,0.9c3,2.5,11.3,8.2,19.7,6.6c7.7-1.4,11.3-8.3,12.2-10.3C680.8,40.7,681,35.5,677.8,30.6z"/>
		<path class="st0" d="M539.9,63c-0.1,1.2-1.1,5.4-2.2,8.5c-3.3,9.5-4.6,11.3-4.7,11.4c0-0.6,0-1.1,0-1.7c0.1-9.6-2.5-18.7-7.9-27
			c-2.3-3.6-5.2-6.1-8.4-7.8c-0.3-0.2-0.7-0.3-1-0.5c-0.1,0-0.1,0-0.4,0.1c0.8,0.5,1.5,0.8,2.1,1.2c4.4,2.7,7.7,6.9,10.1,12.3
			c4,9.1,5.8,18.1,3.9,27.1c-0.8,3.7-2.2,6.8-4,9.4c0.3,0.2,0.5,0.5,0.8,0.7c1-1.5,1.9-3.2,2.7-5c4.4-9.7,8.8-23.6,9.9-28.3
			C540.6,63.5,540.2,63,539.9,63z"/>
	</g>
	<g id="hojas">
		<path class="st0" d="M544.6,87.8c0.3-3.4-0.3-6.9,0.5-10.4c4.3,3.7,3.7,10,0.3,11.4c2.3-2.3,2.6-5.2,0.6-8c-0.4,2.4-0.8,4.7-1.2,7
			C544.7,87.8,544.7,87.8,544.6,87.8z"/>
		<path class="st0" d="M666.5,58c2.7,0.7,5.2,2.2,8.1,2.5c-1.6-4.3-6.7-5.6-8.7-3.4c2.4-1.1,4.7-0.5,6.3,1.8c-2-0.4-3.9-0.7-5.7-1.1
			C666.5,57.9,666.5,57.9,666.5,58z"/>
		<path class="st0" d="M555.4,99.8c-3.6-1.6-7-3.8-11.3-3.3c1.4-0.7,2.8-0.7,8.1,0.1c-0.9-3.3-5.5-4-9.5-1.1c2-2.4,4.3-3.3,7-2.6
			C552.7,93.5,555,96.5,555.4,99.8z"/>
		<path class="st0" d="M661.5,47.1c1.1,2.3,2.6,4.3,2.5,7.2c0.4-1,0.4-1.9-0.3-5.4c2.2,0.3,2.7,3.3,1,6.2c1.5-1.5,2-3.1,1.5-4.9
			C665.5,48.3,663.6,47.1,661.5,47.1z"/>
		<g>
			<path class="st0" d="M536.5,63.9c-1.7-0.9-3.3-1.1-4.8,0.3c0.6-0.8,1.3-1.4,1.2-2.7c-0.6,0.8-1.2,1.4-1.7,2.1
				c0.5-1.5,1.4-2.6,2.6-3.5c0,0,0,0,0,0c-0.2,0.9-0.4,1.8-0.6,2.8c2-0.5,3.8-0.3,5.1,1.6c-1.6,0.1-3.2,0.2-4.7,0.3
				c0.4,0.6,0.9,1.2,1.2,1.8c0.3,0.7,0.3,1.5-0.2,2.2c-0.9-1.2-1.8-2.4-2.7-3.6c0.8,0.7,1.5,1.3,2.3,2c0.2-1.2-0.6-2.1-2.4-2.5
				C533.4,64.5,534.9,64.2,536.5,63.9z"/>
			<path class="st0" d="M529.8,58.9c1.6,0.7,2,2.8,0.9,5c0.2-1.2,0.5-2.3-0.3-3.4c-0.2,1-0.4,2-0.6,3.2L529.8,58.9z"/>
		</g>
	</g>
	<g id="flores1">
		<g>
			<g>
				<path class="st0" d="M510.6,40.3c-1.3-1.8-2.5-3.5-4.6-4.9c1.2-0.4,2.3-0.8,3.3-1.2c0-0.1,0-0.1,0-0.2c-0.9,0.1-1.9,0.1-2.9,0.2
					c1.6-2,3.6-3.2,6.2-4c-2.6-0.1-4.3,1.4-6.4,2.2c0.5-1,1.1-1.9,1.6-2.9c0,0-0.1-0.1-0.1-0.1c-0.5,0.5-0.9,0.9-1.4,1.4
					c-0.1,0-0.1,0-0.2-0.1c0.3-0.9,0.5-1.8,1-2.6c0.6-1.2,1.3-2.4,2.2-3.5c0.9-1.1,2.1-1.4,3.5-0.8c0.3,0.1,0.6,0.2,0.9,0.3
					c0.8,0.4,1.7,0.6,2.5,0c0,1.1,0.1,2.2,0.1,3.2c0,1.2-0.5,2.1-1.8,2.6c0.3,0.1,0.4,0.1,0.5,0.1c2.2,0.3,3.2,1.3,3.7,3.5
					c0.3,1.5,0.6,2.9,2.1,3.8c-0.2,0.2-0.3,0.3-0.5,0.4c-1.4,0.7-2.3,1.9-3.2,3.1c-1.4,2-2.6,2.2-4.6,0.8c-0.3-0.2-0.6-0.4-1-0.7
					C511.1,40.8,510.8,40.5,510.6,40.3z"/>
				<path class="st0" d="M510.6,40.3c0.3,0.3,0.5,0.6,0.8,0.9c0.1,0.1,0.1,0.2,0.2,0.3c1.9,2.4,1.8,4.8,0.3,7.3
					c-0.8,1.4-1.7,2.8-2.5,4.2c0,0-0.1,0-0.1,0c-0.6-1.2-1.7-1.5-2.8-1.8c-3.3-0.8-4.2-1.8-4.4-5.3c-0.1-2.7,0.6-5.2,1.9-7.8
					c0.3,1.4,0.5,2.6,0.7,3.8c0.1,0,0.1,0,0.2,0c-0.1-0.9-0.2-1.8-0.2-2.7c0-0.9,0.2-1.8,0.2-2.7c0.1,0,0.2-0.1,0.3-0.1
					c1.6,1.2,3.2,2.4,4.8,3.5C510.2,40,510.4,40.1,510.6,40.3z"/>
				<path class="st0" d="M495.3,49.8c0.2-1.2,0.4-2.3,0.5-3.4c0.1-1.1,0.2-2.3,0.2-3.5c-0.8,1-1.7,1.9-3.1,1.5
					c-0.9-0.3-1.5-1-1.8-2.1c1.3,0.1,1.4-1,1.8-1.8c0.9-1.9,2-3.7,3.6-5.1c1.5-1.3,3.2-2,5.4-1.6c-0.9,0.5-1.7,1-2.5,1.5
					c0,0,0.1,0.1,0.1,0.1c1-0.2,2-0.4,3.1-0.6c0,0.1,0.1,0.2,0.1,0.2c-0.6,0.7-1.2,1.3-1.8,2c0,0.1,0.1,0.1,0.1,0.2
					c0.7-0.6,1.4-1.1,2.1-1.7c0.1,0,0.1,0,0.2,0.1c-0.2,0.8-0.4,1.6-0.6,2.3c-0.8,2.5-1.1,5-1.1,7.6c0,0.8-0.2,1.7-0.4,2.5
					c-0.5,1.6-1.7,2.2-3.4,1.9C496.9,50,496.1,49.9,495.3,49.8z"/>
				<path class="st0" d="M503.5,32.5c-0.2-0.3-0.5-0.5-0.8-0.9c0,0.4-0.1,0.7-0.1,1c-1.7-0.3-2.3-1.6-1.3-2.9
					c0.5-0.6,1.1-1.2,1.7-1.7c0.3-0.3,0.7-0.5,0.9-0.9c0.5-1.2,1.7-1,2.6-1.1c0.5-0.1,0.6,0.2,0.5,0.6c0,0.1-0.1,0.3-0.2,0.4
					c-1.3,1.7-2.6,3.3-3.1,5.5C503.7,32.5,503.6,32.5,503.5,32.5z"/>
				<path class="st0" d="M503.1,33.9c0.4-0.5,0.7-1,1.2-1.4c0.5-0.4,1-0.1,1.1,0.6c0.1,0.7-0.5,1.7-1.1,2c-0.2,0.1-0.7,0.1-0.8-0.1
					C503.3,34.8,503.3,34.4,503.1,33.9z"/>
			</g>
		</g>
		<g>
			<path class="st0" d="M544.4,53c2-2.2,4-4.4,5.3-7.6c0.9,1.5,1.7,2.8,2.5,4.1c0.1,0,0.1,0,0.2-0.1c-0.3-1.2-0.7-2.5-1.1-3.8
				c3.2,1.6,5.4,4,7.2,7.2c-0.6-3.5-3.1-5.5-4.8-8.1c1.5,0.4,2.9,0.9,4.4,1.3c0-0.1,0.1-0.1,0.1-0.2c-0.8-0.5-1.5-1-2.3-1.5
				c0-0.1,0-0.2,0.1-0.2c1.3,0.2,2.6,0.2,3.9,0.6c1.8,0.5,3.7,1.1,5.3,2c1.7,0.9,2.4,2.5,2.1,4.5c-0.1,0.4-0.1,0.9-0.2,1.3
				c-0.2,1.2-0.3,2.5,0.7,3.4c-1.5,0.4-2.9,0.7-4.4,1c-1.6,0.4-3,0-4.1-1.7c0,0.4,0,0.6,0,0.7c0.2,3-0.9,4.8-3.7,6
				c-1.9,0.8-3.8,1.7-4.6,3.9c-0.3-0.2-0.5-0.3-0.7-0.5c-1.3-1.7-3.2-2.6-5.1-3.5c-3.1-1.4-3.7-2.9-2.5-6.1c0.2-0.5,0.4-1,0.6-1.5
				C543.8,53.9,544.1,53.4,544.4,53z"/>
			<path class="st0" d="M544.4,53c-0.3,0.4-0.6,0.9-0.9,1.3c-0.1,0.1-0.3,0.2-0.4,0.4c-2.6,3.2-6,3.8-9.8,2.5
				c-2.1-0.7-4.2-1.5-6.4-2.2c0,0,0-0.1,0-0.2c1.5-1.1,1.6-2.7,1.6-4.4c0.1-4.7,1.3-6.3,5.9-7.5c3.6-0.9,7.2-0.7,11.1,0.3
				c-1.8,0.7-3.3,1.4-4.9,2.1c0,0.1,0.1,0.2,0.1,0.3c1.2-0.3,2.4-0.8,3.6-1c1.2-0.2,2.5-0.3,3.7-0.4c0.1,0.1,0.2,0.2,0.2,0.4
				c-1.1,2.5-2.3,5-3.4,7.6C544.7,52.3,544.6,52.7,544.4,53z"/>
			<path class="st0" d="M527.2,35c1.6-0.1,3.2-0.1,4.8-0.3c1.6-0.2,3.1-0.4,4.8-0.7c-1.6-0.8-3.1-1.7-2.9-3.8c0.1-1.4,1-2.3,2.3-3.1
				c0.3,1.8,1.7,1.7,2.9,2c2.8,0.7,5.5,1.7,7.9,3.4c2.2,1.7,3.6,3.8,3.6,6.8c-1-1.1-1.9-2-2.8-3c-0.1,0.1-0.1,0.1-0.2,0.2
				c0.6,1.3,1.1,2.7,1.7,4c-0.1,0.1-0.2,0.1-0.3,0.2c-1.1-0.6-2.2-1.3-3.3-1.9c-0.1,0.1-0.1,0.2-0.2,0.2c1,0.8,1.9,1.6,2.9,2.4
				c0,0.1,0,0.2,0,0.2c-1.1,0-2.2,0-3.3-0.2c-3.6-0.4-7.1,0-10.6,0.7c-1.2,0.2-2.4,0.3-3.6,0.2c-2.3-0.2-3.5-1.7-3.5-4
				C527.3,37.3,527.2,36.1,527.2,35z"/>
			<path class="st0" d="M553,41.2c0.3-0.4,0.6-0.8,1-1.3c-0.6,0.1-1,0.1-1.4,0.2c-0.1-2.4,1.5-3.6,3.6-2.5c1,0.5,1.9,1.2,2.8,1.8
				c0.5,0.3,0.9,0.8,1.4,0.9c1.8,0.4,1.8,2,2.3,3.2c0.2,0.6-0.1,0.9-0.7,0.8c-0.2,0-0.4-0.1-0.6-0.2c-2.6-1.2-5.2-2.6-8.3-2.6
				C553,41.4,553,41.3,553,41.2z"/>
			<path class="st0" d="M550.9,41.1c0.8,0.4,1.6,0.7,2.2,1.2c0.7,0.6,0.4,1.4-0.5,1.7c-0.9,0.3-2.5-0.1-3-1
				c-0.2-0.3-0.3-0.9-0.1-1.1C549.8,41.6,550.3,41.4,550.9,41.1z"/>
		</g>
	</g>
	<g id="Flores_2">
		<g>
			<path class="st0" d="M663.7,27.9c0.3-1,1.1-1.5,0.1-3.8c-1.1-2.5-2.5-4-3.3-4c1.2,1,1.8,2.3,2,4c-1.7-1.3-3.4-2.3-4.3-4.3
				c-0.3,1.2,0,2.1,2,4.4C661.9,26.2,663.3,27.3,663.7,27.9z"/>
			<path class="st0" d="M668.7,15.4c-1.5,0.6-2.6,1.3-3.4,2.5c-0.3,0.4-0.9,0.7-1.4,0.9c-1.4,0.6-2.8,0.5-4.3,0.1
				c-0.4-0.1-0.7-0.4-1-0.7c2.1-0.3,4.3-0.4,5.7-2.5c-1-0.6-2-0.7-3-0.2c-1,0.4-1.9,0.9-3,1.4c0.1-0.5,0.2-0.9,0.4-1.5
				c-0.4,0.3-0.7,0.5-1.3,0.8c0.6-2,1.5-3.8,1.4-5.9c-1.8,1.1-2.2,2.7-2.5,4.4c-0.6-1.9-0.6-3.7,0.5-5.4c1.1-1.6,2.7-2,4.6-2.2
				c0.7,2.5,1.1,4.8-1,6.7C663.4,12.6,666.1,13.2,668.7,15.4z"/>
			<path class="st0" d="M654.8,15.9c-0.9,0.3-1.6,0.3-2.3,0c-1.3-0.6-2.4-1.4-3.1-2.8c-0.7-1.5-1.3-3-1.9-4.5c0-0.1,0-0.2-0.1-0.5
				c1.4,0.3,2.8,0.5,4.2,0.9c2.6,0.7,3.6,2.1,3.7,4.8c0,0.2,0,0.3,0,0.5c-0.9-0.2-1.4-0.8-1.9-1.4c-0.9-1.1-1.7-1.7-2.8-2.1
				C651.2,13.1,653.3,14.2,654.8,15.9z"/>
			<path class="st0" d="M648.3,18.9c2.1-0.5,3.9-0.9,6-0.9c-1.1,1.4-2.3,2.3-3.7,2.8c-1.2,0.4-2.3,0.4-3.5,0.2
				c-0.9-0.1-1.8-0.2-2.7-0.2c0.1-0.2,0.2-0.4,0.3-0.6c0.7-1,1.5-2,2.2-3c0.9-1.4,2.3-1.8,3.8-1.5c0.8,0.2,1.6,0.5,2.4,0.9
				C651.2,16.9,649.5,17,648.3,18.9z"/>
			<path class="st0" d="M653.8,28.6c-1-1.5-1.9-3.1-2.2-4.9c-0.2-1.5,0.6-2.6,2.4-3.5c0,0.6-0.2,1-0.5,1.4c-0.8,1-0.9,2-0.5,3.1
				c0.1,0.2,0.7,1.9,0.9,2.1c0.3-0.8,0.7-1.6,1-3c0.3-1,0.1-2.9,0.8-3.8c0.4,1.5,0.9,3,0.9,4.5c0,0.6-0.2,1.3-0.5,1.8
				C655.6,27.2,654.9,27.9,653.8,28.6z"/>
		</g>
		<g>
			<path class="st0" d="M645.8,66.7c0.2,1.2-0.4,2.2,1.7,4.2c2.4,2.2,4.7,3.2,5.5,2.7c-1.8-0.5-3-1.6-4.1-3.4
				c2.5,0.5,4.8,0.8,6.8,2.5c-0.3-1.5-1-2.3-4.4-3.8C648.6,67.7,646.6,67.2,645.8,66.7z"/>
			<path class="st0" d="M646.5,82.7c1.3-1.4,2.2-2.7,2.5-4.4c0.1-0.6,0.6-1.2,1-1.6c1.2-1.3,2.8-2,4.6-2.1c0.5-0.1,1,0.1,1.5,0.3
				c-2.1,1.4-4.4,2.5-4.9,5.5c1.4,0.2,2.5-0.3,3.3-1.2c0.8-1,1.6-1.9,2.6-3c0.1,0.6,0.2,1.1,0.3,1.8c0.3-0.5,0.6-0.9,1-1.5
				c0.4,2.5,0.2,4.9,1.4,7.1c1.4-2,1-4,0.5-6c1.6,1.7,2.5,3.7,2.1,6.1c-0.4,2.3-1.9,3.5-3.9,4.6c-1.9-2.4-3.5-4.6-2.2-7.8
				C653.6,83.1,650.4,83.8,646.5,82.7z"/>
			<path class="st0" d="M661.3,75.3c0.8-0.8,1.6-1.1,2.5-1.1c1.7,0,3.4,0.4,4.7,1.5c1.5,1.2,2.8,2.6,4.3,3.9
				c0.1,0.1,0.1,0.2,0.3,0.5c-1.7,0.4-3.3,0.9-4.9,1.1c-3.2,0.5-5-0.5-6.4-3.4c-0.1-0.2-0.1-0.4-0.2-0.6c1.1-0.2,2,0.2,2.8,0.6
				c1.5,0.8,2.6,1,4.1,0.9C666.5,76.6,663.8,76.4,661.3,75.3z"/>
			<path class="st0" d="M666.8,68.9c-2,1.5-3.7,2.9-6,3.9c0.5-2.1,1.3-3.6,2.7-4.8c1.1-1,2.3-1.6,3.7-2c1-0.3,2-0.7,3.1-1.1
				c0,0.2,0,0.6-0.1,0.9c-0.3,1.4-0.7,2.9-0.9,4.3c-0.3,1.9-1.6,3-3.4,3.4c-1,0.2-2,0.2-3,0.1C664.7,72.5,666.5,71.6,666.8,68.9z"/>
			<path class="st0" d="M656.1,61.1c1.9,1.2,3.6,2.4,4.8,4.2c1,1.5,0.7,3.1-0.9,4.9c-0.3-0.6-0.2-1.2-0.1-1.7c0.4-1.5,0-2.6-1-3.6
				c-0.2-0.2-1.7-1.7-2.1-1.8c0.1,1,0.1,2,0.3,3.7c0.2,1.3,1.3,3.2,1,4.5c-1.2-1.4-2.5-2.7-3.1-4.4c-0.3-0.7-0.4-1.5-0.3-2.2
				C654.9,63.5,655.3,62.3,656.1,61.1z"/>
		</g>
		<g>
			<path class="st0" d="M595.5,51.5c0.6,0.8,0.6,1.8,3,2.4c2.7,0.6,4.7,0.5,5.2-0.2c-1.5,0.3-2.9,0.1-4.4-0.8c2.1-0.6,3.8-1.3,6-0.9
				c-0.8-1-1.7-1.3-4.8-1C598,51.1,596.3,51.5,595.5,51.5z"/>
			<path class="st0" d="M602.5,63c0.4-1.5,0.5-2.9,0.1-4.2c-0.2-0.5,0-1.1,0.1-1.6c0.4-1.5,1.3-2.6,2.5-3.4c0.3-0.2,0.7-0.3,1.2-0.4
				c-1,1.9-2.2,3.7-1.4,6c1.1-0.4,1.7-1.2,2-2.3c0.2-1,0.4-2.1,0.7-3.3c0.3,0.4,0.6,0.7,1,1.2c0-0.5,0.1-0.9,0.1-1.5
				c1.3,1.7,2.1,3.5,3.9,4.7c0.2-2-0.9-3.4-2-4.7c1.9,0.6,3.4,1.7,4,3.7c0.6,1.8,0,3.4-1,5c-2.4-1-4.4-2-4.7-4.9
				C607.9,60.5,605.8,62.2,602.5,63z"/>
			<path class="st0" d="M610.5,51.6c0.3-0.9,0.7-1.5,1.4-1.8c1.3-0.7,2.6-1.1,4.1-0.8c1.6,0.3,3.2,0.8,4.7,1.2
				c0.1,0,0.2,0.1,0.5,0.3c-1.1,1-2.1,2-3.2,2.8c-2.2,1.7-3.9,1.6-6.1,0.1c-0.1-0.1-0.2-0.2-0.4-0.3c0.7-0.6,1.5-0.7,2.3-0.7
				c1.4-0.1,2.3-0.3,3.4-1C614.9,50.4,612.8,51.4,610.5,51.6z"/>
			<path class="st0" d="M612,44.6c-0.8,2-1.6,3.6-2.9,5.4c-0.5-1.7-0.5-3.2,0-4.7c0.4-1.1,1.1-2.1,1.9-3c0.6-0.6,1.2-1.3,1.8-2
				c0.1,0.2,0.2,0.4,0.3,0.7c0.4,1.2,0.7,2.4,1.1,3.6c0.5,1.6,0.1,2.9-1.1,3.9c-0.6,0.5-1.4,0.9-2.2,1.3
				C611.8,48.2,612.8,46.7,612,44.6z"/>
			<path class="st0" d="M600.9,43.2c1.8,0.1,3.6,0.3,5.2,1.2c1.3,0.7,1.7,2,1.4,4c-0.5-0.3-0.7-0.8-0.8-1.2c-0.3-1.2-1-1.9-2.2-2.2
				c-0.2-0.1-1.9-0.5-2.3-0.5c0.5,0.7,0.9,1.5,1.8,2.6c0.7,0.9,2.3,1.8,2.5,2.9c-1.5-0.6-2.9-1-4.1-2c-0.5-0.4-0.9-0.9-1.1-1.5
				C601,45.4,600.8,44.4,600.9,43.2z"/>
		</g>
		<g>
			<path class="st0" d="M572.9,61.8c-0.5,1.2-0.8,2.3-0.7,3.4c0.1,0.4-0.1,0.9-0.3,1.3c-0.5,1.1-1.4,1.9-2.5,2.4
				c-0.3,0.1-0.6,0.2-1,0.2c1.1-1.4,2.4-2.7,2-4.7c-1,0.2-1.6,0.7-1.9,1.5c-0.3,0.8-0.6,1.6-1,2.6c-0.2-0.4-0.4-0.7-0.6-1.1
				c-0.1,0.4-0.2,0.7-0.3,1.2c-0.8-1.6-1.2-3.1-2.5-4.4c-0.5,1.6,0.2,2.8,1,4.1c-1.4-0.8-2.5-1.9-2.7-3.6c-0.2-1.6,0.5-2.8,1.5-3.9
				c1.8,1.1,3.3,2.3,3.1,4.6C568.2,63.1,570.1,62,572.9,61.8z"/>
			<path class="st0" d="M564.9,69.9c-0.4,0.7-0.8,1.1-1.4,1.3c-1.1,0.4-2.3,0.5-3.4,0c-1.2-0.5-2.4-1.1-3.7-1.6
				c-0.1,0-0.2-0.1-0.3-0.3c1-0.6,2-1.3,3-1.8c2-1,3.4-0.8,5,0.8c0.1,0.1,0.2,0.2,0.3,0.3c-0.7,0.4-1.3,0.3-2,0.2
				c-1.2-0.2-1.9-0.1-2.9,0.3C561.1,70.2,563,69.7,564.9,69.9z"/>
			<path class="st0" d="M568.6,69.7c0.5-0.6,1-0.9,1.6-1c1.2-0.2,2.3-0.1,3.4,0.6c1.1,0.7,2.2,1.5,3.3,2.3c0.1,0.1,0.1,0.2,0.3,0.3
				c-1.1,0.4-2.2,0.9-3.3,1.2c-2.1,0.6-3.4,0.1-4.7-1.7c-0.1-0.1-0.1-0.2-0.2-0.4c0.7-0.3,1.4-0.1,2,0.1c1.1,0.4,1.9,0.4,2.9,0.2
				C572.4,70.1,570.4,70.2,568.6,69.7z"/>
			<path class="st0" d="M562.6,75.4c1-1.5,1.8-2.7,3.1-3.9c0.1,1.5-0.1,2.7-0.7,3.8c-0.5,0.9-1.2,1.5-2,2.1
				c-0.6,0.4-1.2,0.9-1.8,1.4c0-0.2-0.1-0.4-0.2-0.6c-0.1-1-0.2-2-0.3-3c-0.2-1.4,0.4-2.3,1.5-3c0.6-0.4,1.3-0.6,2-0.8
				C563.2,72.5,562.2,73.6,562.6,75.4z"/>
			<path class="st0" d="M570,75.9c-1-1.4-1.8-2.7-2.5-4.3c1.4,0.4,2.4,1,3.2,2.1c0.6,0.8,1,1.7,1.2,2.7c0.2,0.7,0.4,1.4,0.6,2.2
				c-0.2,0-0.4,0-0.6-0.1c-1-0.3-2-0.6-2.9-0.8c-1.3-0.3-2-1.2-2.2-2.5c-0.1-0.7,0-1.4,0-2.1C567.6,74.3,568.2,75.6,570,75.9z"/>
		</g>
	</g>
</g>
<g id="Ornamento_L">
	<g id="circulos_1_">
		<path class="st0" d="M180.3,131.3c0,4.5-3.7,8.2-8.2,8.2c-4.5,0-8.2-3.7-8.2-8.2c0-4.5,3.7-8.2,8.2-8.2
			C176.6,123.1,180.3,126.8,180.3,131.3"/>
		<path class="st0" d="M199.1,136.1c0,2.8-2.3,5.1-5.1,5.1c-2.8,0-5.1-2.3-5.1-5.1c0-2.8,2.3-5.1,5.1-5.1
			C196.8,131,199.1,133.3,199.1,136.1"/>
		<path class="st0" d="M217.2,136.5c0,2.3-1.8,4.1-4.1,4.1c-2.3,0-4.1-1.8-4.1-4.1c0-2.3,1.8-4.1,4.1-4.1
			C215.4,132.4,217.2,134.3,217.2,136.5"/>
		<path class="st0" d="M233.7,133.1c0,1.6-1.3,2.9-2.9,2.9c-1.6,0-2.9-1.3-2.9-2.9c0-1.6,1.3-2.8,2.9-2.8
			C232.5,130.2,233.7,131.5,233.7,133.1"/>
		<path class="st0" d="M247.9,127.4c0,1.1-0.9,2-2,2c-1.1,0-2-0.9-2-2c0-1.1,0.9-2,2-2C247,125.4,247.9,126.3,247.9,127.4"/>
		<path class="st0" d="M261.2,119.4c0,1.1-0.9,2-2,2s-2-0.9-2-2c0-1.1,0.9-2,2-2S261.2,118.3,261.2,119.4"/>
		<path class="st0" d="M272.5,109.6c0,1.1-0.9,2-2,2c-1.1,0-2-0.9-2-2c0-1.1,0.9-2,2-2C271.5,107.5,272.5,108.4,272.5,109.6"/>
		<path class="st0" d="M114.4,89.7c0,2.8-2.3,5.1-5.1,5.1c-2.8,0-5.1-2.3-5.1-5.1c0-2.8,2.3-5.1,5.1-5.1
			C112.1,84.6,114.4,86.9,114.4,89.7"/>
		<path class="st0" d="M97.5,86.9c0,2.8-2.3,5.1-5.1,5.1c-2.8,0-5.1-2.3-5.1-5.1c0-2.8,2.3-5.1,5.1-5.1
			C95.2,81.8,97.5,84.1,97.5,86.9"/>
		<path class="st0" d="M81.1,92c0,2.8-2.3,5.1-5.1,5.1c-2.8,0-5.1-2.3-5.1-5.1c0-2.8,2.3-5.1,5.1-5.1C78.8,86.9,81.1,89.2,81.1,92"
			/>
		<path class="st0" d="M75,108.4c0,2.8-2.3,5.1-5.1,5.1c-2.8,0-5.1-2.3-5.1-5.1c0-2.8,2.3-5.1,5.1-5.1C72.7,103.3,75,105.6,75,108.4
			"/>
	</g>
	<g id="lineas_1_">
		<path class="st0" d="M292.2,75.4c0.5,0.2-0.6,1.8-1.7,3.4c-5,7.3-16.2,20.8-30.6,32.8c-16.3,13.5-33.9,17.3-45.8,17.6
			c-23.2,0.7-42-8-51.6-20.8c-9.7-12.8-12.2-33.4-2.9-46.8c3.9-5.6,10.4-11.1,17.6-13.9c10-4,22-3,28.9,0.1
			c6.9,3.1,11.2,7.4,14.2,12.2c7.9,12.5,4.8,27.3-2,35.2c-6.3,7.2-14,8.7-18.3,8.9c-5.8,0.3-10-2-12.1-4.2
			c-4.6-4.7-2.5-12.3,4.1-13.1c4.7-0.6,8.2,3.3,8,6.9c-0.2,2.4-2.2,4.5-4.2,5.1c-1.9,0.6-4.1,0.2-4.1,0.2s3.7,3.2,11.2,0.9
			c4.7-1.4,9.6-5.1,12.8-10.5c2.8-4.8,4-10.5,3.3-17.6c-1-9.5-7.2-16.1-12.5-19.1c-6.8-3.8-15.5-4-21.1-2.8
			c-13.1,2.8-24.8,12.9-26.7,27.9c-1,8,1.3,21.7,11.3,32c8.8,9.1,22.6,16.6,42.7,16.3c16.6-0.2,28.8-5.9,39.8-13
			c8.9-5.7,17.7-14.5,22.5-19.5c4.8-5,9.3-10.6,12.7-14.6C290.6,75.6,291,75,292.2,75.4"/>
		<path class="st0" d="M262.1,101.1c0,0-7.3,6.2-16.6,11.8c-5.1,3.1-10,5.5-15.9,7.6c-9.5,3.3-16.9,3.3-22.9,2.9
			c-9.8-0.6-17.9-4-24-8.3c-2.8-1.9-6-5-8.1-8c-1.7-2.5-3.4-6.5-4-9.7c-0.5-2.7-0.5-6.4,0.4-8.9c0.7-1.9,1.7-3.5,3.2-4.6
			c1.7-1.3,3.8-1.6,5.5-1.1c3.6,1.1,4.2,4.9,2.9,7.1c-1.1,1.7-4,2.4-5.3,0.6c-0.5-0.7-0.5-1.5-0.2-2.2c0.3-0.7,1.1-1.1,1.7-0.9
			c1.4,0.4,1.6-2.3-0.1-2.8c-0.9-0.3-2.2,0-3.1,0.7c-1.3,0.9-2,2-2.7,4.2c-0.5,1.7-0.8,6.6,0.5,10.3c1.8,5.4,5.5,9.9,10,13.3
			c5.2,4,12.4,7.3,23.1,8.2c6.8,0.5,16.5-0.2,22.9-2.7c3.9-1.5,9.5-3.6,15.9-7C254.6,106.9,261.9,100.2,262.1,101.1"/>
		<path class="st0" d="M186.1,53.6c4.9-1.1,12.4-0.9,18.4,2.5c4.6,2.6,10,8.4,10.9,16.7c0.7,6.3-0.4,11.3-2.8,15.5
			c-1.5,2.6-4.2,5.3-6.6,6.7c0,0,5.2-5.5,7-12.1c1.7-6.6,0.4-13.5-0.7-15.9c-1.1-2.4-2.7-4.6-4.8-6.4c-1.9-1.7-4.1-3.2-8.3-4.5
			c-1.4-0.4-10.1-2-17,0.6c-7.5,2.8-11.5,6.9-13.5,10.8c-1.4,2.7-1.2,6.5-0.6,8.6c0.4,1.4,1.6,3,2.9,3.8c2.1,1.2,4.4,1.5,6.2,0.3
			c1.8-1.1,3.4-3.5,1.8-7.2c-0.6-1.5-0.2-2.3,0.7-1.4c1.4,1.3,2,3.2,1.6,6c-0.5,3.3-3.9,5.3-6.7,5.4c-4.3,0.1-7.9-3.1-8.6-7.3
			c-0.4-2.3-0.6-7,2.1-10.8C173.3,57.3,181.2,54.7,186.1,53.6z"/>
		<path class="st0" d="M165.7,114c0,0-18.1-14.8-25.6-20.7c-7.5-5.9-18.8-12.3-32.5-16.2c-9.6-2.8-27.4-5.2-39.6,5.9
			c-3.4,3.1-5.8,6.3-7.4,9.7c-3.3,6.8-3.8,12.2-2.5,19c1.6,8.2,7.9,17,18.5,21.3c5.4,2.2,12.4,2.6,17.5,1.2c3.5-1,7.3-2.9,10.3-6.8
			c2-2.6,2.9-6.7,2.9-9.5c0-2.9-1-6.4-2.4-8.5c-4.5-6.3-10.7-7-15.2-4.3c-4.2,2.5-4.4,8.1-1.2,10.1c2.6,1.6,6.3,0.7,7.6-1.6
			c1.2-2.2,1.1-4.6-0.5-6.1c-1.6-1.4,4.2-1,7.1,3.6c2.6,4.1,1.6,12-1.6,15.6c-1.9,2-4.8,3.6-7.5,4.4c-3.8,1.2-8.4,1-13.9-0.5
			c-4.9-1.3-9.9-5.3-13.2-9.8c-2.6-3.6-4-7.4-4.6-10.7c-1.7-9.1,1.7-18.8,8.2-24.5c4.8-4.2,10.5-7.3,19.9-7.7
			c4.6-0.2,10.9-0.1,18,1.9c5,1.4,9,3.3,13.8,5.6c7.1,3.5,12.7,6.8,16.6,9.7c5.1,3.8,19.7,15.3,26,19.4
			C164.4,114.6,165.3,114.3,165.7,114"/>
		<path class="st0" d="M2.4,30.6c2.3-3.6,5.4-6.4,9.3-8.3c1.9-0.9,3.9-1.6,5.8-2.4c0,0.1,0.1,0.2,0.1,0.3c-0.3,0.1-0.6,0.2-0.9,0.3
			C12.6,21.9,9,24,6,27.1c-4,4-6,8.7-4.9,14.5c0.7,3.9,4,9.7,9.4,12.4c3.8,1.9,9.2,1.2,9.5,1.1c3.2-0.5,6.3-1.5,8.9-3.6
			c5.5-4.4,9.1-9.6,13.6-13c9.7-7.4,32.9-10.4,48.5-1.4c20,11.5,15,37.4,2.4,37.2c-9.5-0.2-8.5-8.9-5.5-10.7c5.1-3,9.7,1.8,6.9,6.5
			c1.8-0.6,6.2-0.8,6.8-10.2c0.5-7.1-3-17-16.5-23.1c-12.7-5.8-29.4-3.3-39.5,2.5c-7.2,4.1-9.6,10.8-11.2,13.4
			c-2.1,3.4-4.9,8.8-6.7,12.4c-0.1-0.2-0.6-1.1-0.7-1.2c1.1-2.2,2.9-6,4-8.2c1.2-2.4,2.7-4.7,4-7c-0.5,0.2-1,0.6-1.4,0.9
			c-3,2.5-11.3,8.2-19.7,6.6C6.1,54.8,2.4,47.9,1.6,45.9C-0.5,40.7-0.8,35.5,2.4,30.6z"/>
		<path class="st0" d="M140.3,63c0.1,1.2,1.1,5.4,2.2,8.5c3.3,9.5,4.6,11.3,4.7,11.4c0-0.6,0-1.1,0-1.7c-0.1-9.6,2.5-18.7,7.9-27
			c2.3-3.6,5.2-6.1,8.4-7.8c0.3-0.2,0.7-0.3,1-0.5c0.1,0,0.1,0,0.4,0.1c-0.8,0.5-1.5,0.8-2.1,1.2c-4.4,2.7-7.7,6.9-10.1,12.3
			c-4,9.1-5.8,18.1-3.9,27.1c0.8,3.7,2.2,6.8,4,9.4c-0.3,0.2-0.5,0.5-0.8,0.7c-1-1.5-1.9-3.2-2.7-5c-4.4-9.7-8.8-23.6-9.9-28.3
			C139.6,63.5,140.1,63,140.3,63z"/>
	</g>
	<g id="hojas_1_">
		<path class="st0" d="M135.7,87.8c-0.3-3.4,0.3-6.9-0.5-10.4c-4.3,3.7-3.7,10-0.3,11.4c-2.3-2.3-2.6-5.2-0.6-8
			c0.4,2.4,0.8,4.7,1.2,7C135.5,87.8,135.6,87.8,135.7,87.8z"/>
		<path class="st0" d="M13.8,58c-2.7,0.7-5.2,2.2-8.1,2.5c1.6-4.3,6.7-5.6,8.7-3.4C11.9,56,9.6,56.6,8,58.9c2-0.4,3.9-0.7,5.7-1.1
			C13.7,57.9,13.8,57.9,13.8,58z"/>
		<path class="st0" d="M124.9,99.8c3.6-1.6,7-3.8,11.3-3.3c-1.4-0.7-2.8-0.7-8.1,0.1c0.9-3.3,5.5-4,9.5-1.1c-2-2.4-4.3-3.3-7-2.6
			C127.6,93.6,125.3,96.5,124.9,99.8z"/>
		<path class="st0" d="M18.8,47.1c-1.1,2.3-2.6,4.3-2.5,7.2c-0.4-1-0.4-1.9,0.3-5.4c-2.2,0.3-2.7,3.3-1,6.2c-1.5-1.5-2-3.1-1.5-4.9
			C14.7,48.3,16.7,47.1,18.8,47.1z"/>
		<g>
			<path class="st0" d="M143.8,64c1.7-0.9,3.3-1.1,4.8,0.3c-0.6-0.8-1.3-1.4-1.2-2.7c0.6,0.8,1.2,1.4,1.7,2.1
				c-0.5-1.5-1.4-2.6-2.6-3.5c0,0,0,0,0,0c0.2,0.9,0.4,1.8,0.6,2.8c-2-0.5-3.8-0.3-5.1,1.6c1.6,0.1,3.2,0.2,4.7,0.3
				c-0.4,0.6-0.9,1.2-1.2,1.8c-0.3,0.7-0.3,1.5,0.2,2.2c0.9-1.2,1.8-2.4,2.7-3.6c-0.8,0.7-1.5,1.3-2.3,2c-0.2-1.2,0.6-2.1,2.4-2.5
				C146.8,64.5,145.3,64.2,143.8,64z"/>
			<path class="st0" d="M150.5,58.9c-1.6,0.7-2,2.8-0.9,5c-0.2-1.2-0.5-2.3,0.3-3.4c0.2,1,0.4,2,0.6,3.2L150.5,58.9z"/>
		</g>
	</g>
	<g id="flores1_1_">
		<g>
			<g>
				<path class="st0" d="M169.7,40.3c1.3-1.8,2.5-3.5,4.6-4.9c-1.2-0.4-2.3-0.8-3.3-1.2c0-0.1,0-0.1,0-0.2c0.9,0.1,1.9,0.1,2.9,0.2
					c-1.6-2-3.6-3.2-6.2-4c2.6-0.1,4.3,1.4,6.4,2.2c-0.5-1-1.1-1.9-1.6-2.9c0,0,0.1-0.1,0.1-0.1c0.5,0.5,0.9,0.9,1.4,1.4
					c0.1,0,0.1,0,0.2-0.1c-0.3-0.9-0.5-1.8-1-2.6c-0.6-1.2-1.3-2.4-2.2-3.5c-0.9-1.1-2.1-1.4-3.5-0.8c-0.3,0.1-0.6,0.2-0.9,0.3
					c-0.8,0.4-1.7,0.6-2.5,0c0,1.1-0.1,2.2-0.1,3.2c0,1.2,0.5,2.1,1.8,2.6c-0.3,0.1-0.4,0.1-0.5,0.1c-2.2,0.3-3.2,1.3-3.7,3.5
					c-0.3,1.5-0.6,2.9-2.1,3.8c0.2,0.2,0.3,0.3,0.5,0.4c1.4,0.7,2.3,1.9,3.2,3.1c1.4,2,2.6,2.2,4.6,0.8c0.3-0.2,0.6-0.4,1-0.7
					C169.2,40.9,169.4,40.6,169.7,40.3z"/>
				<path class="st0" d="M169.7,40.3c-0.3,0.3-0.5,0.6-0.8,0.9c-0.1,0.1-0.1,0.2-0.2,0.3c-1.9,2.4-1.8,4.8-0.3,7.3
					c0.8,1.4,1.7,2.8,2.5,4.2c0,0,0.1,0,0.1,0c0.6-1.2,1.7-1.5,2.8-1.8c3.3-0.8,4.2-1.8,4.4-5.3c0.1-2.7-0.6-5.2-1.9-7.8
					c-0.3,1.4-0.5,2.6-0.7,3.8c-0.1,0-0.1,0-0.2,0c0.1-0.9,0.2-1.8,0.2-2.7c0-0.9-0.2-1.8-0.2-2.7c-0.1,0-0.2-0.1-0.3-0.1
					c-1.6,1.2-3.2,2.4-4.8,3.5C170.1,40,169.9,40.1,169.7,40.3z"/>
				<path class="st0" d="M185,49.8c-0.2-1.2-0.4-2.3-0.5-3.4c-0.1-1.1-0.2-2.3-0.2-3.5c0.8,1,1.7,1.9,3.1,1.5c0.9-0.3,1.5-1,1.8-2.1
					c-1.3,0.1-1.4-1-1.8-1.8c-0.9-1.9-2-3.7-3.6-5.1c-1.5-1.3-3.2-2-5.4-1.6c0.9,0.5,1.7,1,2.5,1.5c0,0-0.1,0.1-0.1,0.1
					c-1-0.2-2-0.4-3.1-0.6c0,0.1-0.1,0.2-0.1,0.2c0.6,0.7,1.2,1.3,1.8,2c0,0.1-0.1,0.1-0.1,0.2c-0.7-0.6-1.4-1.1-2.1-1.7
					c-0.1,0-0.1,0-0.2,0.1c0.2,0.8,0.4,1.6,0.6,2.3c0.8,2.5,1.1,5,1.1,7.6c0,0.8,0.2,1.7,0.4,2.5c0.5,1.6,1.7,2.2,3.4,1.9
					C183.4,50,184.2,49.9,185,49.8z"/>
				<path class="st0" d="M176.8,32.5c0.2-0.3,0.5-0.5,0.8-0.9c0,0.4,0.1,0.7,0.1,1c1.7-0.3,2.3-1.6,1.3-2.9
					c-0.5-0.6-1.1-1.2-1.7-1.7c-0.3-0.3-0.7-0.5-0.9-0.9c-0.5-1.2-1.7-1-2.6-1.1c-0.5-0.1-0.6,0.2-0.5,0.6c0,0.1,0.1,0.3,0.2,0.4
					c1.3,1.7,2.6,3.3,3.1,5.5C176.6,32.5,176.7,32.5,176.8,32.5z"/>
				<path class="st0" d="M177.1,33.9c-0.4-0.5-0.7-1-1.2-1.4c-0.5-0.4-1-0.1-1.1,0.6c-0.1,0.7,0.5,1.7,1.1,2
					c0.2,0.1,0.7,0.1,0.8-0.1C176.9,34.8,177,34.4,177.1,33.9z"/>
			</g>
		</g>
		<g>
			<path class="st0" d="M135.9,53c-2-2.2-4-4.4-5.3-7.6c-0.9,1.5-1.7,2.8-2.5,4.1c-0.1,0-0.1,0-0.2-0.1c0.3-1.2,0.7-2.5,1.1-3.8
				c-3.2,1.6-5.4,4-7.2,7.2c0.6-3.5,3.1-5.5,4.8-8.1c-1.5,0.4-2.9,0.9-4.4,1.3c0-0.1-0.1-0.1-0.1-0.2c0.8-0.5,1.5-1,2.3-1.5
				c0-0.1,0-0.2-0.1-0.2c-1.3,0.2-2.6,0.2-3.9,0.6c-1.8,0.5-3.7,1.1-5.3,2c-1.7,0.9-2.4,2.5-2.1,4.5c0.1,0.4,0.1,0.9,0.2,1.3
				c0.2,1.2,0.3,2.5-0.7,3.4c1.5,0.4,2.9,0.7,4.4,1c1.6,0.4,3,0,4.1-1.7c0,0.4,0,0.6,0,0.7c-0.2,3,0.9,4.8,3.7,6
				c1.9,0.8,3.8,1.7,4.6,3.9c0.3-0.2,0.5-0.3,0.7-0.5c1.3-1.7,3.2-2.6,5.1-3.5c3.1-1.4,3.7-2.9,2.5-6.1c-0.2-0.5-0.4-1-0.6-1.5
				C136.5,53.9,136.2,53.5,135.9,53z"/>
			<path class="st0" d="M135.9,53c0.3,0.4,0.6,0.9,0.9,1.3c0.1,0.1,0.3,0.2,0.4,0.4c2.6,3.2,6,3.8,9.8,2.5c2.1-0.7,4.2-1.5,6.4-2.2
				c0,0,0-0.1,0-0.2c-1.5-1.1-1.6-2.7-1.6-4.4c-0.1-4.7-1.3-6.3-5.9-7.5c-3.6-0.9-7.2-0.7-11.1,0.3c1.8,0.7,3.3,1.4,4.9,2.1
				c0,0.1-0.1,0.2-0.1,0.3c-1.2-0.3-2.4-0.8-3.6-1c-1.2-0.2-2.5-0.3-3.7-0.4c-0.1,0.1-0.2,0.2-0.2,0.4c1.1,2.5,2.3,5,3.4,7.6
				C135.6,52.4,135.7,52.7,135.9,53z"/>
			<path class="st0" d="M153.1,35c-1.6-0.1-3.2-0.1-4.8-0.3c-1.6-0.2-3.1-0.4-4.8-0.7c1.6-0.8,3.1-1.7,2.9-3.8
				c-0.1-1.4-1-2.3-2.3-3.1c-0.3,1.8-1.7,1.7-2.9,2c-2.8,0.7-5.5,1.7-7.9,3.4c-2.2,1.7-3.6,3.8-3.6,6.8c1-1.1,1.9-2,2.8-3
				c0.1,0.1,0.1,0.1,0.2,0.2c-0.6,1.3-1.1,2.7-1.7,4c0.1,0.1,0.2,0.1,0.3,0.2c1.1-0.6,2.2-1.3,3.3-1.9c0.1,0.1,0.1,0.2,0.2,0.2
				c-1,0.8-1.9,1.6-2.9,2.4c0,0.1,0,0.2,0,0.2c1.1,0,2.2,0,3.3-0.2c3.6-0.4,7.1,0,10.6,0.7c1.2,0.2,2.4,0.3,3.6,0.2
				c2.3-0.2,3.5-1.7,3.5-4C153,37.3,153.1,36.1,153.1,35z"/>
			<path class="st0" d="M127.3,41.2c-0.3-0.4-0.6-0.8-1-1.3c0.6,0.1,1,0.1,1.4,0.2c0.1-2.4-1.5-3.6-3.6-2.5c-1,0.5-1.9,1.2-2.8,1.8
				c-0.5,0.3-0.9,0.8-1.4,0.9c-1.8,0.4-1.8,2-2.3,3.2c-0.2,0.6,0.1,0.9,0.7,0.8c0.2,0,0.4-0.1,0.6-0.2c2.6-1.2,5.2-2.6,8.3-2.6
				C127.3,41.4,127.3,41.3,127.3,41.2z"/>
			<path class="st0" d="M129.4,41.1c-0.8,0.4-1.6,0.7-2.2,1.2c-0.7,0.6-0.4,1.4,0.5,1.7c0.9,0.3,2.5-0.1,3-1
				c0.2-0.3,0.3-0.9,0.1-1.1C130.5,41.6,130,41.5,129.4,41.1z"/>
		</g>
	</g>
	<g id="Flores_2_1_">
		<g>
			<path class="st0" d="M16.5,27.9c-0.3-1-1.1-1.5-0.1-3.8c1.1-2.5,2.5-4,3.3-4c-1.2,1-1.8,2.3-2,4c1.7-1.3,3.4-2.3,4.3-4.3
				c0.3,1.2,0,2.1-2,4.4C18.3,26.2,17,27.3,16.5,27.9z"/>
			<path class="st0" d="M11.6,15.4c1.5,0.6,2.6,1.3,3.4,2.5c0.3,0.4,0.9,0.7,1.4,0.9c1.4,0.6,2.8,0.5,4.3,0.1c0.4-0.1,0.7-0.4,1-0.7
				c-2.1-0.3-4.3-0.4-5.7-2.5c1-0.6,2-0.7,3-0.2c1,0.4,1.9,0.9,3,1.4c-0.1-0.5-0.2-0.9-0.4-1.5c0.4,0.3,0.7,0.5,1.3,0.8
				c-0.6-2-1.5-3.8-1.4-5.9c1.8,1.1,2.2,2.7,2.5,4.4c0.6-1.9,0.6-3.7-0.5-5.4c-1.1-1.6-2.7-2-4.6-2.2c-0.7,2.5-1.1,4.8,1,6.7
				C16.8,12.6,14.2,13.2,11.6,15.4z"/>
			<path class="st0" d="M25.5,15.9c0.9,0.3,1.6,0.3,2.3,0c1.3-0.6,2.4-1.4,3.1-2.8c0.7-1.5,1.3-3,1.9-4.5c0-0.1,0-0.2,0.1-0.5
				c-1.4,0.3-2.8,0.5-4.2,0.9c-2.6,0.7-3.6,2.1-3.7,4.8c0,0.2,0,0.3,0,0.5c0.9-0.2,1.4-0.8,1.9-1.4c0.9-1.1,1.7-1.7,2.8-2.1
				C29,13.1,27,14.2,25.5,15.9z"/>
			<path class="st0" d="M32,18.9c-2.1-0.5-3.9-0.9-6-0.9c1.1,1.4,2.3,2.3,3.7,2.8c1.2,0.4,2.3,0.4,3.5,0.2c0.9-0.1,1.8-0.2,2.7-0.2
				c-0.1-0.2-0.2-0.4-0.3-0.6c-0.7-1-1.5-2-2.2-3c-0.9-1.4-2.3-1.8-3.8-1.5c-0.8,0.2-1.6,0.5-2.4,0.9C29,16.9,30.8,17,32,18.9z"/>
			<path class="st0" d="M26.4,28.6c1-1.5,1.9-3.1,2.2-4.9c0.2-1.5-0.6-2.6-2.4-3.5c0,0.6,0.2,1,0.5,1.4c0.8,1,0.9,2,0.5,3.1
				c-0.1,0.2-0.7,1.9-0.9,2.1c-0.3-0.8-0.7-1.6-1-3c-0.3-1-0.1-2.9-0.8-3.8c-0.4,1.5-0.9,3-0.9,4.5c0,0.6,0.2,1.3,0.5,1.8
				C24.7,27.2,25.4,28,26.4,28.6z"/>
		</g>
		<g>
			<path class="st0" d="M34.5,66.8C34.3,68,35,69,32.8,70.9c-2.4,2.2-4.7,3.2-5.5,2.7c1.8-0.5,3-1.6,4.1-3.4
				c-2.5,0.5-4.8,0.8-6.8,2.5c0.3-1.5,1-2.3,4.4-3.8C31.7,67.8,33.7,67.2,34.5,66.8z"/>
			<path class="st0" d="M33.7,82.7c-1.3-1.4-2.2-2.7-2.5-4.4c-0.1-0.6-0.6-1.2-1-1.6c-1.2-1.3-2.8-2-4.6-2.1c-0.5-0.1-1,0.1-1.5,0.3
				c2.1,1.4,4.4,2.5,4.9,5.5c-1.4,0.2-2.5-0.3-3.3-1.2c-0.8-1-1.6-1.9-2.6-3c-0.1,0.6-0.2,1.1-0.3,1.8c-0.3-0.5-0.6-0.9-1-1.5
				c-0.4,2.5-0.2,4.9-1.4,7.1c-1.4-2-1-4-0.5-6c-1.6,1.7-2.5,3.7-2.1,6.1c0.4,2.3,1.9,3.5,3.9,4.6c1.9-2.4,3.5-4.6,2.2-7.8
				C26.7,83.2,29.9,83.8,33.7,82.7z"/>
			<path class="st0" d="M19,75.3c-0.8-0.8-1.6-1.1-2.5-1.1c-1.7,0-3.4,0.4-4.7,1.5C10.4,77,9,78.3,7.6,79.6
				c-0.1,0.1-0.1,0.2-0.3,0.5c1.7,0.4,3.3,0.9,4.9,1.1c3.2,0.5,5-0.5,6.4-3.4c0.1-0.2,0.1-0.4,0.2-0.6c-1.1-0.2-2,0.2-2.8,0.6
				c-1.5,0.8-2.6,1-4.1,0.9C13.7,76.6,16.5,76.5,19,75.3z"/>
			<path class="st0" d="M13.4,68.9c2,1.5,3.7,2.9,6,3.9c-0.5-2.1-1.3-3.6-2.7-4.8c-1.1-1-2.3-1.6-3.7-2c-1-0.3-2-0.7-3.1-1.1
				c0,0.2,0,0.6,0.1,0.9c0.3,1.4,0.7,2.9,0.9,4.3c0.3,1.9,1.6,3,3.4,3.4c1,0.2,2,0.2,3,0.1C15.6,72.5,13.7,71.6,13.4,68.9z"/>
			<path class="st0" d="M24.1,61.2c-1.9,1.2-3.6,2.4-4.8,4.2c-1,1.5-0.7,3.1,0.9,4.9c0.3-0.6,0.2-1.2,0.1-1.7c-0.4-1.5,0-2.6,1-3.6
				c0.2-0.2,1.7-1.7,2.1-1.8c-0.1,1-0.1,2-0.3,3.7c-0.2,1.3-1.3,3.2-1,4.5c1.2-1.4,2.5-2.7,3.1-4.4c0.3-0.7,0.4-1.5,0.3-2.2
				C25.3,63.6,25,62.4,24.1,61.2z"/>
		</g>
		<g>
			<path class="st0" d="M84.8,51.5c-0.6,0.8-0.6,1.8-3,2.4c-2.7,0.6-4.7,0.5-5.2-0.2c1.5,0.3,2.9,0.1,4.4-0.8
				c-2.1-0.6-3.8-1.3-6-0.9c0.8-1,1.7-1.3,4.8-1C82.3,51.1,84,51.5,84.8,51.5z"/>
			<path class="st0" d="M77.7,63c-0.4-1.5-0.5-2.9-0.1-4.2c0.2-0.5,0-1.1-0.1-1.6c-0.4-1.5-1.3-2.6-2.5-3.4
				c-0.3-0.2-0.7-0.3-1.2-0.4c1,1.9,2.2,3.7,1.4,6c-1.1-0.4-1.7-1.2-2-2.3c-0.2-1-0.4-2.1-0.7-3.3c-0.3,0.4-0.6,0.7-1,1.2
				c0-0.5-0.1-0.9-0.1-1.5c-1.3,1.7-2.1,3.5-3.9,4.7c-0.2-2,0.9-3.4,2-4.7c-1.9,0.6-3.4,1.7-4,3.7c-0.6,1.8,0,3.4,1,5
				c2.4-1,4.4-2,4.7-4.9C72.4,60.5,74.4,62.3,77.7,63z"/>
			<path class="st0" d="M69.8,51.6c-0.3-0.9-0.7-1.5-1.4-1.8c-1.3-0.7-2.6-1.1-4.1-0.8c-1.6,0.3-3.2,0.8-4.7,1.2
				c-0.1,0-0.2,0.1-0.5,0.3c1.1,1,2.1,2,3.2,2.8c2.2,1.7,3.9,1.6,6.1,0.1c0.1-0.1,0.2-0.2,0.4-0.3c-0.7-0.6-1.5-0.7-2.3-0.7
				c-1.4-0.1-2.3-0.3-3.4-1C65.4,50.4,67.5,51.4,69.8,51.6z"/>
			<path class="st0" d="M68.3,44.6c0.8,2,1.6,3.6,2.9,5.4c0.5-1.7,0.5-3.2,0-4.7c-0.4-1.1-1.1-2.1-1.9-3c-0.6-0.6-1.2-1.3-1.8-2
				c-0.1,0.2-0.2,0.4-0.3,0.7c-0.4,1.2-0.7,2.4-1.1,3.6c-0.5,1.6-0.1,2.9,1.1,3.9c0.6,0.5,1.4,0.9,2.2,1.3
				C68.4,48.2,67.5,46.7,68.3,44.6z"/>
			<path class="st0" d="M79.3,43.2c-1.8,0.1-3.6,0.3-5.2,1.2c-1.3,0.7-1.7,2-1.4,4c0.5-0.3,0.7-0.8,0.8-1.2c0.3-1.2,1-1.9,2.2-2.2
				c0.2-0.1,1.9-0.5,2.3-0.5c-0.5,0.7-0.9,1.5-1.8,2.6c-0.7,0.9-2.3,1.8-2.5,2.9c1.5-0.6,2.9-1,4.1-2c0.5-0.4,0.9-0.9,1.1-1.5
				C79.3,45.5,79.5,44.4,79.3,43.2z"/>
		</g>
		<g>
			<path class="st0" d="M107.4,61.8c0.5,1.2,0.8,2.3,0.7,3.4c-0.1,0.4,0.1,0.9,0.3,1.3c0.5,1.1,1.4,1.9,2.5,2.4
				c0.3,0.1,0.6,0.2,1,0.2c-1.1-1.4-2.4-2.7-2-4.7c1,0.2,1.6,0.7,1.9,1.5c0.3,0.8,0.6,1.6,1,2.6c0.2-0.4,0.4-0.7,0.6-1.1
				c0.1,0.4,0.2,0.7,0.3,1.2c0.8-1.6,1.2-3.1,2.5-4.4c0.5,1.6-0.2,2.8-1,4.1c1.4-0.8,2.5-1.9,2.7-3.6c0.2-1.6-0.5-2.8-1.5-3.9
				c-1.8,1.1-3.3,2.3-3.1,4.6C112.1,63.1,110.1,62,107.4,61.8z"/>
			<path class="st0" d="M115.4,69.9c0.4,0.7,0.8,1.1,1.4,1.3c1.1,0.4,2.3,0.5,3.4,0c1.2-0.5,2.4-1.1,3.7-1.6c0.1,0,0.2-0.1,0.3-0.3
				c-1-0.6-2-1.3-3-1.8c-2-1-3.4-0.8-5,0.8c-0.1,0.1-0.2,0.2-0.3,0.3c0.7,0.4,1.3,0.3,2,0.2c1.2-0.2,1.9-0.1,2.9,0.3
				C119.2,70.2,117.3,69.8,115.4,69.9z"/>
			<path class="st0" d="M111.6,69.7c-0.5-0.6-1-0.9-1.6-1c-1.2-0.2-2.3-0.1-3.4,0.6c-1.1,0.7-2.2,1.5-3.3,2.3
				c-0.1,0.1-0.1,0.2-0.3,0.3c1.1,0.4,2.2,0.9,3.3,1.2c2.1,0.6,3.4,0.1,4.7-1.7c0.1-0.1,0.1-0.2,0.2-0.4c-0.7-0.3-1.4-0.1-2,0.1
				c-1.1,0.4-1.9,0.4-2.9,0.2C107.9,70.1,109.8,70.2,111.6,69.7z"/>
			<path class="st0" d="M117.7,75.4c-1-1.5-1.8-2.7-3.1-3.9c-0.1,1.5,0.1,2.7,0.7,3.8c0.5,0.9,1.2,1.5,2,2.1
				c0.6,0.4,1.2,0.9,1.8,1.4c0-0.2,0.1-0.4,0.2-0.6c0.1-1,0.2-2,0.3-3c0.2-1.4-0.4-2.3-1.5-3c-0.6-0.4-1.3-0.6-2-0.8
				C117,72.5,118,73.6,117.7,75.4z"/>
			<path class="st0" d="M110.2,75.9c1-1.4,1.8-2.7,2.5-4.3c-1.4,0.4-2.4,1-3.2,2.1c-0.6,0.8-1,1.7-1.2,2.7c-0.2,0.7-0.4,1.4-0.6,2.2
				c0.2,0,0.4,0,0.6-0.1c1-0.3,2-0.6,2.9-0.8c1.3-0.3,2-1.2,2.2-2.5c0.1-0.7,0-1.4,0-2.1C112.7,74.3,112.1,75.6,110.2,75.9z"/>
		</g>
	</g>
</g>
</svg>
