<?xml version="1.0" encoding="utf-8"?>
<!-- Generator: Adobe Illustrator 21.1.0, SVG Export Plug-In . SVG Version: 6.00 Build 0)  -->
<svg version="1.1" id="Capa_1" xmlns="http://www.w3.org/2000/svg" xmlns:xlink="http://www.w3.org/1999/xlink" x="0px" y="0px"
	 viewBox="0 0 456 170.5" style="enable-background:new 0 0 456 170.5;" xml:space="preserve">
<style type="text/css">
	.st0{fill:#FFFFFF;}
</style>
<path class="st0" d="M424.3,84.8c0.3-0.1-0.2,0-0.3-0.1c-2.2-1.9-3.4-8-1.5-13.8c2.1-6.2,8.3-12.9,13.4-12.1c4.6,0.7,5.5,9,6.7,17
	c0.9,6-0.3,21.1-3.8,28.6c-6.1,13-13.1,21.8-19.5,21.4c-6.3-0.4-15.5-12.1-25.9-27.7c-9.8-14.7-17.4-34.7-32.1-41.8
	c-28.8-13.8-59.1,0.6-72.5,12.9c-16.9,15.6-77.2,63.5-93.1,52.6c-18.5-12.6-22.6-67.3-78.6-110.3C100.3-1.4,69.9-1.1,50.7,13
	c-61,44.8-51.7,117.9-36,137.1c14.2,17.4,38.9,22.1,51.9,14.9c8.2-4.5,14.5-13.7,19-23.3c5.3-11.3,4-14,1.1-23
	c2.3,9.8,1.4,14.9-8.2,29.8c-3.2,5-18.3,17.6-29.4,15.3C-9,152.1,12.4,38.5,50.3,14.9c41.1-25.6,75,14.7,94,40.7
	c20.6,28.2,32.1,64.3,48.4,69.4c59.5,18.3,91.3-74.9,137.2-66c12.2,2.4,22.3,7.4,31.4,16.6c8.2,8.3,15.2,19.5,24.7,30
	c10.9,12,20.9,25.2,29.5,24.7c8.8-0.5,16.1-5.8,22.1-12.3c9.8-10.7,13.2-22.1,13.8-32.7c0.7-11.2-6.8-29.3-11.8-31
	c-6.2-2.1-14.8,2.9-18.5,8.7c-15.8,24.4,5.1,30.3,7.8,24.6C431.2,82.4,423.3,81.2,424.3,84.8z"/>
</svg>
