<?xml version="1.0" encoding="utf-8"?>
<!-- Generator: Adobe Illustrator 21.1.0, SVG Export Plug-In . SVG Version: 6.00 Build 0)  -->
<svg version="1.1" id="Capa_1" xmlns="http://www.w3.org/2000/svg" xmlns:xlink="http://www.w3.org/1999/xlink" x="0px" y="0px"
	 viewBox="0 0 317 569" style="enable-background:new 0 0 317 569;" xml:space="preserve">
<style type="text/css">
	.st0{fill:#3E3E3E;}
</style>
<path class="st0" d="M148.3,102c-1,1.6,2.3,2.8,5,2.5s11.5-6.7,9.5-19.1c-0.6-3.5-9.6-27.1-31.3-20.8c-25.7,7.4-10.2,41.3-7.4,47
	c7.4,14.8,32.4,23.2,49.6,16.3c18.9-7.6,27.2-26.9,25.1-47.8C194.1,34.4,136.1-21.7,65.3,9C-48.9,58.7,9.6,185,69.5,246.7
	c40.7,41.8,102.8,81.9,122.1,98.1c34.6,29.1,52.9,60.5,66.3,88.8c10.3,21.7,4.2,51.6-16.3,62.3c-16.6,8.6-33.9-3.8-39.4-18.5
	c-4.9-13.2-0.7-28.4,11.2-32.3c17.8-5.9,26.2,13.2,28.8,12c3.6-1.7-8.3-22.3-21.7-21.9c-42.6,1-35,54.1-6.3,67.3
	c29.8,13.8,44.1-7.6,44.1-7.6s-18.3,37,5.5,61.7c18.4,19.1,38.3,11.8,46.7,4c3.3-3,13.5-25.9-4-35.3c-17.6-9.4-23.2,5.6-18.8,5.7
	c4.4,0,5.2-4.7,11.9-2.9c5.2,1.4,11.9,4.2,13.7,11.7c1.8,7.9-1.9,21.7-14,25.3c-21.7,6.6-39.9-10.3-45.3-33.3
	c-7.6-32.8,21.9-54.3,17.7-79c-2.8-16.4-18.9-56-50.9-87.7C168,312.5,57.9,256,24.2,172.9C-0.9,110.9,7.4,42.6,67,18.3
	c103.8-42.4,163.5,80.6,109.2,105.9c-51.5,24-73.6-49.5-42.2-53.4C145.2,69.4,162.4,80,148.3,102z"/>
</svg>
