<?xml version="1.0" encoding="utf-8"?>
<!-- Generator: Adobe Illustrator 21.1.0, SVG Export Plug-In . SVG Version: 6.00 Build 0)  -->
<svg version="1.1" id="Capa_1" xmlns="http://www.w3.org/2000/svg" xmlns:xlink="http://www.w3.org/1999/xlink" x="0px" y="0px"
	 viewBox="0 0 102.4 39.5" style="enable-background:new 0 0 102.4 39.5;" xml:space="preserve">
<style type="text/css">
	.st0{fill:#3E3E3D;}
</style>
<path class="st0" d="M61.9,17.1c0,0,1.2-0.3,2.3-1.8c0.8-1.1,1.2-2.5,2.3-2.7c0.8-0.2,1.7,0.5,2.5,0.7c1.3,0.3,2.7,0.3,2.7,0.3
	s-0.7,0.8-1.4,2c-0.6,1.1-1.7,2.2-2.9,2.6C65,18.9,61.9,17.1,61.9,17.1z"/>
<path class="st0" d="M61.7,18.6c0,0,3-0.2,4,2.5c0.4,1.2-0.5,2.7-0.8,3.9c-0.2,1.5,0.1,2.6,0.1,2.6c0,0-1.3-0.9-1.5-2.2
	c-0.2-1.1,0.5-2.8,0.1-4C62.8,19.3,61.7,18.6,61.7,18.6z"/>
<path class="st0" d="M67,19.1c0,0,8.4,0.8,13.6-3.6s6.2-10.2,6.2-10.2S85.3,10.5,80,15C75.1,19.2,67,19.1,67,19.1z"/>
<path class="st0" d="M73.4,20.9c0,0,6.7,2.1,11.9-0.6c6-3.1,4.9-10.3,4.9-10.3s-0.3,5.4-5.2,8.8C79.7,22.4,73.4,20.9,73.4,20.9z"/>
<path class="st0" d="M72.6,21.8c0,0,5,2.4,7.4,4.5c3.3,2.9,4.3,6,4.3,6s-1.4-2.8-4.7-5.6C77.4,24.8,72.6,21.8,72.6,21.8z"/>
<path class="st0" d="M95.4,15.1c-1-0.6-0.3-2.1,1.1-2.2c1.4-0.2,5.8,0.5,5.3,3.9s-5.3,6.1-10.8,7C84.1,25,74.2,22,74.2,22
	s12.3,2.1,18.4,0.4c3.4-0.9,8.1-3.6,7.8-6.1c-0.2-2.1-4.1-2.5-4-2C96.7,15.2,95.4,15.1,95.4,15.1z"/>
<path class="st0" d="M72.4,32.7c0,0.6,2,0.9,2.6-0.8c0.5-1.5-0.9-3.3-3-3.2c-1.5,0.1-4.6,2.6-3.2,5.7c1.1,2.4,4.9,2.8,6.8,1.2
	c1.2-1,2.2-4.8,0.6-8c-3.1-6-12.5-9-12.5-9s8.5,3.6,11.5,8.2c1.5,2.3,1.2,6.8,0.1,8c-1.1,1.2-3.4,1.3-5-0.1c-1-0.9-1.3-3.4,0.3-4.6
	c1.4-1,3.3-0.1,3.4,0.6c0.2,1.1-0.4,1.2-0.5,1.1C73.2,31.6,72.4,32,72.4,32.7z"/>
<path class="st0" d="M40.6,17.1c0,0-1.2-0.3-2.3-1.8c-0.8-1.1-1.2-2.5-2.3-2.7c-0.8-0.2-1.7,0.5-2.5,0.7c-1.3,0.3-2.7,0.3-2.7,0.3
	s0.7,0.8,1.4,2c0.6,1.1,1.7,2.2,2.9,2.6C37.5,18.9,40.6,17.1,40.6,17.1z"/>
<path class="st0" d="M40.8,18.6c0,0-3-0.2-4,2.5c-0.4,1.2,0.5,2.7,0.8,3.9c0.2,1.5-0.1,2.6-0.1,2.6c0,0,1.3-0.9,1.5-2.2
	c0.2-1.1-0.5-2.8-0.1-4C39.7,19.3,40.8,18.6,40.8,18.6z"/>
<path class="st0" d="M35.5,19.1c0,0-8.4,0.8-13.6-3.6S15.7,5.3,15.7,5.3s1.5,5.2,6.8,9.7C27.4,19.2,35.5,19.1,35.5,19.1z"/>
<path class="st0" d="M29.2,20.9c0,0-6.7,2.1-11.9-0.6c-6-3.1-4.9-10.3-4.9-10.3s0.3,5.4,5.2,8.8C22.8,22.4,29.2,20.9,29.2,20.9z"/>
<path class="st0" d="M30,21.8c0,0-5,2.4-7.4,4.5c-3.3,2.9-4.3,6-4.3,6s1.4-2.8,4.7-5.6C25.1,24.8,30,21.8,30,21.8z"/>
<path class="st0" d="M7.1,15.1c1-0.6,0.3-2.1-1.1-2.2c-1.4-0.2-5.8,0.5-5.3,3.9s5.3,6.1,10.8,7C18.4,25,28.3,22,28.3,22
	S16,24.1,9.9,22.4c-3.4-0.9-8.1-3.6-7.8-6.1c0.2-2.1,4.1-2.5,4-2C5.8,15.2,7.1,15.1,7.1,15.1z"/>
<path class="st0" d="M30.2,32.7c0,0.6-2,0.9-2.6-0.8c-0.5-1.5,0.9-3.3,3-3.2c1.5,0.1,4.5,2.4,3.2,5.7c-0.8,2-5,2.7-6.9,1
	c-1-0.9-2.2-4.6-0.6-7.8c3.1-6,12.5-9,12.5-9s-8.5,3.6-11.5,8.2c-1.5,2.3-1.3,6.5-0.3,7.6c1.3,1.5,3.6,1.8,5.3,0.4
	c1-0.9,1.3-3.4-0.3-4.6c-1.4-1-3.3-0.1-3.4,0.6c-0.2,1.1,0.4,1.2,0.5,1.1C29.3,31.6,30.1,32,30.2,32.7z"/>
<g id="Capa_2">
</g>
<path class="st0" d="M63.2,12.4c-1.4,0.3-2.6,0.9-3.6,1.9c-0.4,0.3-0.9,0.6-1.4,0.7c-1.4,0.3-2.9,0.1-4.1-0.6
	c-0.4-0.2-0.7-0.5-0.9-0.8c2.1,0,4.2,0.2,5.8-1.6c-0.8-0.7-2.1-1.2-3-0.9c-1,0.3-1.8,0.8-2.9,1.2l0.6-1.4l-1.3,0.6
	c0.5-1,1.3-1.9,1.7-2.8C54.3,7.9,54.3,7,54.4,6c-1.8,0.8-2.5,2.3-3,3.9c-0.4-1.8,0-3.7,1.3-5.1c1.3-1.4,2.9-1.6,4.7-1.5
	c0.3,2.5,0.3,4.7-1.9,6.3C58.5,9,61,10,63.2,12.4z"/>
<path class="st0" d="M49.8,11c-0.7,0.2-1.5,0.1-2.2-0.3C46.4,10,45.4,8.9,45,7.6c-0.5-1.5-0.8-3.1-1.2-4.6c0-0.2,0-0.3,0-0.5
	c1.3,0.5,2.7,0.9,3.9,1.4c2.4,1.1,3.2,2.6,2.9,5.2c0,0.2-0.1,0.3-0.1,0.5c-0.7-0.3-1.3-0.9-1.7-1.7c-0.5-1-1.4-1.9-2.4-2.4
	C46.7,7.8,48.5,9.1,49.8,11z"/>
<path class="st0" d="M43.1,13c1.9-0.2,3.9-0.3,5.9-0.1c-1,1.1-2.4,1.9-4,2.2c-1.2,0.2-2.3,0.1-3.4-0.3c-0.8-0.2-1.7-0.4-2.6-0.6
	c0.1-0.2,0.3-0.4,0.4-0.6c0.8-0.9,1.7-1.7,2.5-2.6c0.9-1.1,2.5-1.5,3.9-0.9c0.8,0.3,1.5,0.7,2.1,1.2C46.2,11.4,44.5,11.3,43.1,13z"
	/>
<path class="st0" d="M48.8,14.2c-0.7,0.1-1.3,0.4-1.7,0.9c-0.7,0.9-1.1,2-1,3.1c0.2,1.3,0.4,2.5,0.6,3.8c0,0.1,0.1,0.3,0.2,0.4
	c0.9-0.8,1.8-1.4,2.6-2.3c1.6-1.5,1.7-2.9,0.6-4.7c-0.1-0.1-0.2-0.2-0.3-0.3c-0.5,0.5-0.8,1.1-0.8,1.7c-0.1,0.9-0.5,1.8-1.1,2.5
	C47.4,17.5,48.4,16,48.8,14.2z"/>
<path class="st0" d="M51.5,15c-0.4,0.5-0.6,1.2-0.4,1.8c0.2,1.1,0.7,2.1,1.6,2.8c1,0.7,2.1,1.4,3.2,2.1c0.1,0.1,0.3,0.1,0.4,0.1
	c0-1.2,0.2-2.3,0.1-3.5c-0.1-2.2-1-3.2-3.1-3.6c-0.1,0-0.3,0-0.4,0c0,0.7,0.3,1.3,0.8,1.7c0.6,0.7,1,1.6,1.1,2.5
	C53.1,18.2,52.6,16.4,51.5,15z"/>
</svg>
