<?xml version="1.0" encoding="utf-8"?>
<!-- Generator: Adobe Illustrator 21.1.0, SVG Export Plug-In . SVG Version: 6.00 Build 0)  -->
<svg version="1.1" id="Capa_1" xmlns="http://www.w3.org/2000/svg" xmlns:xlink="http://www.w3.org/1999/xlink" x="0px" y="0px"
	 viewBox="0 0 512 512" style="enable-background:new 0 0 512 512;" xml:space="preserve">
<style type="text/css">
	.st0{fill:#FFFFFF;}
</style>
<g>
	<path class="st0" d="M130.8,354.3c-6.5,0.3-12.1-0.6-17.2-4c-12.4-8.4-14.8-27-4.6-37.8c2.4-2.5,2-3.6-0.7-5.4
		c-6.2-4.1-12.1-8.8-18.3-12.8c-12-7.6-24.3-14.9-36.4-22.4c-7.3-4.5-14.6-9-21.8-13.5c-4.1-2.6-4.6-4.4-2-8.6
		c12.2-19.8,24.4-39.6,36.7-59.3c13.5-21.8,27-43.7,40.5-65.5c0.4-0.7,0.8-1.3,1.3-1.9c2.4-3.7,4.2-4.2,7.8-2
		c15.4,9.5,30.8,19,46,28.7c3.6,2.3,6.6,5.7,10.1,8.2c1.3,1,3.4,1.3,5.1,1.3c13.1-0.3,26.2-1.2,39.3-1.2c9.4,0,19,0,28.3,1.6
		c6,1,10.9-0.1,16.2-1.9c11.1-3.9,22.6-6.3,34.4-6.3c10.4,0.1,20.9,0.7,31.3,1.2c3.3,0.2,5.2-0.2,6.8-3.8c1.3-3,4.1-5.7,6.9-7.7
		c16.1-11.2,32.4-22.1,48.7-33.1c5.2-3.5,6.9-3.1,10.4,2.1c26.4,39.5,52.8,79,79.2,118.5c2.3,3.5,4.7,6.9,7,10.4
		c2.3,3.4,2,5.5-1.4,7.8c-16.9,11.6-33.8,23.3-51,34.6c-8.1,5.4-16.6,10.4-25.4,14.5c-3.9,1.8-3.5,3.9-3.5,6.8
		c0.3,12.1-4.8,21-15.6,26.4c-2.8,1.4-6,1.9-9.5,2.9c2.5,9.8,2.2,19.7-4.7,28.4c-7.1,8.9-16.5,11.4-27.6,8.8
		c0.7,11.8-2.4,21.6-12,28.1c-9.8,6.6-19.8,5.7-28.9-0.7c-1.2,4.5-1.7,9.4-3.7,13.5c-4.3,8.8-11.4,14.4-21.8,14.5
		c-4.5,0-8.6-1.7-12.2-4.3c-4.3-3-8.7-6-12.9-9.1c-1.8-1.3-2.9-1.3-4.5,0.3c-3.1,3.3-6.5,6-11,7.4c-12.1,3.9-26.5-3.7-30-16.1
		c-0.4-1.6-1-3.1-1.6-5.2c-7.9,7.2-16.7,9.9-26.5,5.9c-9.6-3.9-14.5-11.7-15.9-22.3c-9.1,4.3-17.8,3.7-25.7-2.3
		C132.5,372.9,129.8,364.4,130.8,354.3z M260.9,403.9c4.7,3.3,9.6,7.1,14.9,10.2c2.1,1.2,5.5,1.9,7.8,1.2c12.4-3.9,16.7-17.7,8.6-28
		c-2.9-3.7-6.9-6.4-10.3-9.7c-2.8-2.7-2.1-7,1.6-7.7c1.6-0.3,3.8,0.8,5.2,1.9c8,5.9,15.8,12,23.7,17.9c4.4,3.3,9.4,3.9,14.3,1.9
		c9.8-3.8,14.5-16.4,9.6-26.6c-2.9-6.1-8.6-9-13.5-12.7c-7-5.4-14.2-10.4-21.1-15.8c-1.3-1-2.4-3.1-2.2-4.6c0.1-1.3,1.9-3.3,3.2-3.5
		c1.5-0.3,3.6,0.6,5,1.6c12.8,9.3,25.5,18.7,38.3,28c5.1,3.8,10.7,4.4,16.3,1.2c12.3-7,13.2-24.7,1.5-33.1
		c-8.8-6.4-17.8-12.5-26.7-18.7c-3.8-2.6-7.6-5.2-11.2-8c-1.7-1.3-2.8-3.1-1.4-5.5c1.4-2.2,3.4-2.8,5.7-2.2c0.9,0.2,1.7,1,2.5,1.5
		c12.7,8.8,25.4,17.7,38.1,26.6c4.2,2.9,8.9,3.2,13.5,1.5c13.2-4.9,16.1-25.3,3.1-34.3c-11.8-8.2-23.4-16.7-35.1-25.1
		c-8.2-5.8-16.5-11.5-24.8-17.3c-6.1-4.3-12.2-8.8-18.4-13.1c-9.1-6.3-18.4-12.4-27.5-18.7c-2-1.4-3.4-1.3-5.3-0.1
		c-11.4,6.9-22.5,14.3-34.2,20.5c-7.1,3.8-14,7.6-20.8,11.9c-1.1,0.7-2.3,1.3-3.4,1.9c-4.2,2.5-8.2,5.6-12.7,7.2
		c-7.4,2.7-15.2,3.4-23.1,3.1c-1.1,0-2.3-0.2-3.2-0.7c-10.8-5.5-17.3-13.8-18.1-26.3c-0.8-12.2,4-21.4,14.4-27.5
		c19.2-11.2,38.6-22,57.9-33.1c0.9-0.5,1.8-1.3,2.8-2c-0.7-0.4-0.9-0.6-1-0.6c-17.3,0-34.6-0.1-51.9,0.1c-4.9,0-9.9,0.6-10.2,7.3
		c0,0.6-0.5,1.2-0.9,1.7c-2.4,3.9-4.8,7.8-7.2,11.8c-9.4,15.3-18.8,30.7-28.2,46c-4.2,6.8-8.3,13.6-12.9,20.1
		c-8.2,11.7-13.3,25.4-24,36c5.2,3.6,10.5,7,15.3,10.9c2.6,2.1,4.1,1.8,6.3-0.4c3.9-3.9,8.2-7.4,12-11.3c9.9-10.1,29.4-7.8,36.8,6.1
		c1.5,2.9,2.5,6.1,3.8,9.6c7.7-6.9,16.4-9.2,26.1-5.6c10,3.7,14.6,11.7,16.1,22c1.6-0.5,2.8-1,4.1-1.2c4-0.4,8.2-1.5,12-0.7
		c14.9,3.1,23.6,19.2,17.9,33.7c-0.8,2.1-0.2,2.9,1.8,3c0.8,0,1.6,0,2.3,0.2c15.8,5,21.8,21.4,15.8,34.6
		C268.1,395.5,264.3,399.3,260.9,403.9z M413.9,282c-2.3-2.6-4.5-4.5-6.1-6.8c-4.4-6.5-8.6-13.1-13-19.6c-6.9-10.1-13.9-20-20.8-30
		c-7.1-10.4-14.3-20.9-21.3-31.4c-6.9-10.3-13.6-20.7-20.5-31c-0.5-0.7-1.7-1.2-2.6-1.3c-7.1-0.6-14.3-1.7-21.4-1.6
		c-10.1,0.1-20.3,0.3-30.2,1.9c-13.6,2.3-26.4,7.7-38.4,14.5c-19.4,10.9-38.7,22-58,32.9c-6.1,3.5-10.3,8.2-11.6,15.4
		c-1.6,8.4,3,17.1,9.5,22.1c4.2,3.2,16.2,3.1,21.9-0.9c5.1-3.5,10.5-6.7,15.9-9.9c4.1-2.5,8.4-4.6,12.6-7
		c14.8-8.7,29.7-17.3,44.4-26.2c3.8-2.3,6.9-2,10.4,0.6c14.9,10.7,29.9,21.1,44.9,31.6c10.4,7.3,20.8,14.5,31.2,21.7
		c14.2,9.8,28.4,19.5,42.7,29.1c0.6,0.4,1.8,0.8,2.4,0.5C408.7,285.2,411.3,283.5,413.9,282z M339.8,157.3c1,2,1.7,4.2,3,6
		c21.2,31.2,42.4,62.4,63.6,93.6c3.2,4.6,6.3,9.3,9.6,13.8c3.6,4.9,8.4,5.8,13.5,2.4c14.8-10,29.6-20.1,44.4-30.1
		c2.2-1.5,2.2-2.5,0.8-4.6c-10.2-15.1-20.3-30.2-30.4-45.3c-16.7-24.9-33.4-49.9-50-74.8c-1.1-1.7-1.9-1.6-3.4-0.6
		c-15.3,10.5-30.7,20.9-46,31.4C342,150.9,340.5,153.6,339.8,157.3z M114.2,130.4c-5.8,9.4-11.2,18.3-16.7,27.2
		c-19.1,30.8-38.1,61.6-57.3,92.4c-1.1,1.7-1,2.5,0.8,3.6c15,9.2,29.8,18.5,44.8,27.6c4.9,3,9.8,1.8,12.8-3
		c6.4-10.2,12.9-20.5,19.2-30.7c5.9-9.5,11.6-19,17.4-28.5c9.5-15.4,19-30.8,28.5-46.3c3.5-5.7,2.3-10.1-3.3-13.6
		c-10-6.2-20-12.3-30-18.5C125.1,137.2,119.9,133.9,114.2,130.4z M155.1,374.8c4.7,0.3,8.2-2.2,11.3-5.2c3.5-3.5,7-7,10.5-10.5
		c8.5-8.3,17.2-16.4,25.6-24.9c6.6-6.6,6.3-16.9-0.4-23.3c-6.4-6.1-15.3-5.6-22,1.2c-4.2,4.3-8.3,8.6-12.5,12.7
		c-7.7,7.4-15.5,14.7-23.2,22.1c-5,4.9-6.4,12-3.8,17.9C143.4,371.3,148.6,374.9,155.1,374.8z M192.5,396.2c2.1,0.2,5.5-1.3,8.3-4
		c12.7-12.3,25.3-24.5,37.7-37c2.2-2.3,3.8-5.7,4.4-8.9c1.3-6.8-2.7-13.7-8.7-16.7c-6-3-13.4-1.4-18.1,3.4
		c-7.5,7.8-15.4,15.1-23.1,22.7c-4.4,4.3-8.9,8.5-13.2,12.9c-4.8,4.9-5.7,10.9-3.4,17.1C178.8,392.2,183.5,395.9,192.5,396.2z
		 M149.3,292c-3.6-0.1-6.7,1-9.3,3.5c-7.7,7.2-15.4,14.4-23.1,21.6c-3.1,2.9-4.8,6.4-5.3,10.6c-0.6,6.3,2.7,12.7,8.2,15.7
		c5.8,3.2,11.8,2.8,16.5-1.5c8.1-7.3,16.1-14.7,23.7-22.4c4.9-5,6.3-11.3,3.3-17.9C160.8,295.7,156.1,292.1,149.3,292z M217.4,395.1
		c0.7,2.4,1.1,4.9,2.1,7.1c3.9,8.4,15.3,11.5,22,5.9c6.1-5.2,12.1-10.6,17.7-16.3c6-6,5.6-16.4-0.5-22.6c-6-6.1-14.7-6.1-21.5,0.1
		c-4.8,4.4-9.5,8.9-14.2,13.4C219.5,385.9,217.6,390,217.4,395.1z"/>
	<path class="st0" d="M82.6,229.1c9-1,19.2,9,18.9,17.1c-0.5,12.2-9.5,20.6-19.3,20.2c-10.4-0.5-18.7-8.6-18.4-19.1
		C63.9,237.3,71.9,228.5,82.6,229.1z M82.5,234.6c-6.5-0.1-12.5,5.7-12.9,12.1c-0.4,7.4,4.7,13.9,12.9,13.9
		c6.4,0,12.6-4.1,12.9-14.1C95.6,240.9,88.8,234.7,82.5,234.6z"/>
</g>
</svg>
