<?xml version="1.0" encoding="utf-8"?>
<!-- Generator: Adobe Illustrator 21.1.0, SVG Export Plug-In . SVG Version: 6.00 Build 0)  -->
<svg version="1.1" id="Capa_1" xmlns="http://www.w3.org/2000/svg" xmlns:xlink="http://www.w3.org/1999/xlink" x="0px" y="0px"
	 viewBox="0 0 1767.5 383.8" style="enable-background:new 0 0 1767.5 383.8;" xml:space="preserve">
<style type="text/css">
	.st0{fill:#3E3E3E;}
	.st1{fill:#8DC040;}
</style>
<g>
	<g>
		<path class="st0" d="M0.7,311c0.4-1.2,1-2.5,1.2-3.7c2.7-16.7,10.9-30.6,22.5-42.5c10.6-10.8,23.2-18.9,36.7-25.6
			c8.2-4,16.7-7.3,25.3-10.2c0.9-0.3,1.8-0.4,2.6-1.2c-0.8-1-2.1-1.1-3.2-1.5c-9.9-3.8-18.7-9.2-26.1-16.8c-3.7-3.8-6.8-8-9-12.9
			c-4.3-9.8-3.8-19.4,1.5-28.6c3-5.1,6.9-9.5,11.3-13.4c9.3-8.3,20-14.5,31.2-19.9c20.8-10.1,42.7-17.2,65-23
			c17.3-4.5,34.8-8.1,52.5-10.6c8.7-1.2,17.4-2.3,26.1-2.3c4.7,0,5.3,0.7,6.6,5.3c2.8,10.2,5.8,20.3,8.7,30.4
			c0.5,1.8,0.9,3.7,1.4,5.6c0.6,1.9-0.1,3.3-1.6,4.4c-0.9,0.7-1.7,1.3-2.6,1.9c-10.9,6-22.5,9.5-35,9.4c-3.3,0-6.4-0.7-9.4-2.1
			c-4.3-2-7.1-5.3-8.3-9.8c-0.2-0.9-0.5-1.9,0-2.8c2.3-1.6,5.4-0.6,7.9-2c-0.4-1.7-1.7-2-2.9-2.4c-2.9-1-5.8-1.5-8.8-1.7
			c-8.4-0.5-16.8,0.5-25,2.2c-27.7,5.8-53.9,15.5-78.4,29.7c-5.1,3-9.9,6.3-14.3,10.3c-2.2,1.9-4.1,4-5.7,6.4
			c-0.8,1.2-1.5,2.5-1.8,3.9c-0.7,2.9-0.1,4.5,2.4,6.2c2,1.4,4.3,2.2,6.6,2.8c5.4,1.6,11,2.4,16.6,3c22.4,2.4,44.8,1.8,67.2,1.3
			c5.6-0.1,11.2-0.8,16.9-1.2c1.4-0.1,2.9-0.1,4.3-0.1c2.9,0,5,1.2,6.4,3.9c3.9,7.6,7.9,15.1,11.8,22.6c0.1,0.2,0.1,0.5,0.1,0.7
			c-1,1.4-2.5,1.1-3.9,1.1c-4.3,0.1-8.6,0-13,0.2c-10.2,0.3-20.4,0.8-30.5,2.2c-17.2,2.3-33.9,6.5-50.2,12.2
			c-15,5.2-29.6,11.3-43.3,19.4c-7.1,4.2-13.9,9-19.9,14.7c-4.7,4.5-8.9,9.4-12,15.2c-3.7,7.1-5.4,14.5-4.3,22.6
			c1.2,8.5,5.1,15.4,11.7,20.8c6,4.9,12.9,7.8,20.3,9.8c8.4,2.3,16.9,3.3,25.6,3.8c7.8,0.5,15.6,0.4,23.4-0.2
			c25.2-1.6,49.5-7.4,73-16.8c24.5-9.8,46.8-23.2,67.3-39.8c3.6-2.9,4.1-2.9,7.7-0.1c2.9,2.2,5.3,4.9,7.6,7.7c1.5,1.9,1.6,2.3,0,4.4
			c-2.9,4-6.2,7.7-9.5,11.3c-18.3,19.5-39.9,34.4-63.9,46c-21.7,10.4-44.4,17.5-68.1,21.3c-5,0.8-10,1.2-15,1.7
			c-0.9,0.1-1.9,0-2.8,0.5c-8.2,0-16.3,0-24.5,0c-0.7-0.5-1.6-0.5-2.4-0.5c-5.3-0.4-10.5-1.2-15.6-2.3c-12.3-2.6-23.9-6.9-34.2-14.4
			c-12.5-9.3-20.1-21.6-22.7-37c-0.3-1.7-0.7-3.3-1.4-4.8C0.7,320.6,0.7,315.8,0.7,311z"/>
		<path class="st0" d="M1352.9,239.2c5.3,1.5,10.7,2.7,15.9,5.1c3.3,1.6,4.9,3.9,4.4,7.7c-0.9,7.9-1.6,15.7-2.5,23.6
			c-1.1,9.4-2,18.8-2.7,28.3c-0.6,8-0.8,16.1-0.5,24.1c0.2,4,0.6,7.9,1.4,11.8c0.5,2.3,1.1,4.7,2.5,6.7c1.8,2.6,3.8,3,6.5,1.4
			c2.4-1.5,4.1-3.6,5.7-5.9c4.8-6.8,8.3-14.3,11.5-22c5.3-12.9,9.2-26.2,13.1-39.6c3.3-11.5,6.5-23.1,10.8-34.3
			c1.6-4.3,3.3-8.5,5.5-12.5c1.6-2.9,3.6-4.9,7.3-4.9c1.9,0,3.7-0.9,5.5-1.6c1.1-0.5,2.2-1,3.3-1.3c2-0.6,2.9-0.2,3.5,1.8
			c0.4,1.4,0.7,2.8,0.8,4.2c0.3,4.5,0.8,9.1,0.8,13.6c0,18.1,0,36.2,0,54.4c0,1.3,0,2.6,0.4,4.1c0.3-0.9,0.6-1.8,0.9-2.8
			c4-15.6,8.4-31,14.4-46c2-4.9,4.2-9.7,6.8-14.3c1.7-2.9,3.6-5.7,5.9-8.1c2.7-2.9,6-4.3,10-3.7c1.4,0.2,2.9,0.4,4.2,0.8
			c4.9,1.3,8.2,4.3,9.9,9.1c1,3,1.5,6,1.5,9.2c0,13.3,0.2,26.6-0.1,40c-0.2,8.5-0.5,17-1.9,25.9c1.3-1,1.5-2.2,1.9-3.3
			c4.1-10.9,8.2-21.8,12.3-32.7c4.5-12,9.2-24,15-35.4c3-6,6.3-11.9,10.4-17.2c1.3-1.7,2.8-3.3,4.2-4.9c1.7-1.8,3.7-2.1,5.9-1.3
			c4.4,1.7,8.3,4.3,11.5,7.8c1.6,1.8,1.8,3.7,0.9,6c-5.7,13.6-8.2,28-9.8,42.6c-0.9,8.1-1.4,16.2-1.4,24.4c0,8.6,1.1,17,3.7,25.2
			c1,3.2,2.3,6.3,4.3,9.1c3.5,5,7.6,6,13.1,3.4c2.6-1.2,4.9-3,7-5c0.6-0.6,1.2-1.2,1.9-1.7c0.6-0.5,1.3-0.7,2-0.5c1,0.3,1,1.3,1,2.1
			c-0.1,2.5-0.7,5-1.7,7.3c-3.7,8.4-9.8,14.3-18.4,17.1c-9.3,3-17.8,1-24.6-6.5c-2.8-3.2-4.8-6.9-6.4-10.8
			c-2.9-7.2-4.3-14.7-5.2-22.4c-1.6-13.6-1.4-27.3-0.7-41c0.1-1.4,0-2.9,0-4.6c-1.3,0.6-1.4,1.7-1.8,2.6c-3.6,7.9-6.3,16.1-8.7,24.4
			c-4.9,16.8-9.5,33.7-14.3,50.5c-0.9,3.1-1.9,6.2-2.8,9.3c-0.5,1.8-1.7,2.9-3.6,3c-5,0.3-10.1,0.5-15-0.7c-0.5-0.1-0.9-0.3-1.4-0.4
			c-2.6-1.1-3.5-2.4-3.2-5.3c1.1-11.2,1.7-22.5,2.2-33.7c0.6-14.1,1.3-28.3,1-42.4c-0.1-6.6-0.2-13.2-1.2-19.7
			c-0.2-1.5-0.5-3-1.3-4.4c-1.7-0.2-2.5,0.9-3.3,2c-1.6,2.1-2.8,4.5-3.9,6.9c-3.8,8.2-6.6,16.7-9.2,25.3
			c-6.9,22.7-12.3,45.9-16.7,69.2c-0.2,1.1-0.4,2.1-0.7,3.2c-1,4.2-3.6,6.7-7.9,7.3c-5.1,0.7-9.8-0.6-13.9-3.6c-2-1.4-3-3.3-2.7-5.9
			c1-10.5,2-21,2.9-31.5c1.2-14.5,2.3-28.9,3.4-43.4c0.7-9.1,1.2-18.2,1.3-27.3c0-1.2,0.3-2.6-0.9-3.8c-1.4,1.6-1.8,3.5-2.2,5.3
			c-2,7.9-3.9,15.8-5.9,23.7c-4.2,17-8.8,33.9-15.7,50c-3.3,7.6-6.9,15-11.9,21.7c-2.4,3.2-5,6.1-8.2,8.5c-7.1,5.4-15.1,5-21.1-2.8
			c-2.2-2.9-3.9-6.1-5.2-9.4c-3.1-7.7-4.7-15.8-5.7-24.1c-0.6-5.3-1-10.6-1.6-16.3c-1.1,1.3-1.3,2.6-1.8,3.8
			c-4.1,10.8-8.4,21.4-13.9,31.6c-2.6,4.8-5.4,9.4-8.8,13.6c-2.6,3.2-5.4,6.1-8.8,8.4c-7.4,5-17.8,4.2-23.9-4.2
			c-4-5.6-6-12-7.4-18.6c-1.3-6.1-2-12.3-2.2-18.5c-1-29.7,2.4-58.9,9.4-87.7c0.4-1.5,0.9-3,1.4-4.4c0.9-2.2,2.5-3.4,5-3.4
			c6,0.1,12-0.7,17.8-2c1.1-0.2,2.1-0.2,3.2,0.2c1.6,0.7,2.2,1.7,1.9,3.4c-0.2,1.3-0.6,2.6-1,3.8c-4.8,16.5-8.5,33.2-10.7,50.3
			c-1.2,9.3-2.1,18.6-2.6,27.9c-0.3,6.5-0.5,12.9-0.5,19.4c0,3,0.1,6,0.6,9c0.2,1.5,0.6,3.1,1.2,4.5c1.6,3.8,4.2,4.7,7.8,2.6
			c2.3-1.4,4.1-3.3,5.8-5.3c4.9-5.8,8.8-12.2,12.5-18.9c4.5-8.2,8.2-16.8,11.8-25.4c2.4-5.9,3.5-11.9,3.9-18.1
			c0.8-13.3,2.9-26.5,5.4-39.5C1351.8,241.3,1351.8,240.2,1352.9,239.2z"/>
		<path class="st0" d="M662.8,213.8c-14.6,3-28.9,5.7-43,8c-0.9,1.3-1,2.5-1.3,3.7c-3.7,19.7-6.6,39.5-8.5,59.4
			c-0.8,8.8-1.4,17.7-1.8,26.6c-0.4,7.6-0.5,15.1-0.6,22.7c0,3.1,0.3,6.2,1.4,9.2c2.6,6.6,8.5,8.6,14.6,4.9c2.2-1.3,4-3.1,5.6-5.1
			c2.7-3.4,4.6-7.3,6.1-11.4c0.4-1,0.7-2.1,1.3-2.9c0.7-1.1,1.8-1.6,3.1-1.2c1.3,0.4,1.2,1.6,1.2,2.7c0,0.6-0.1,1.2-0.2,1.8
			c-1.6,7.4-3.8,14.6-7.8,21.2c-2,3.3-4.5,6.2-7.6,8.6c-8,6.3-20.2,5.7-27.2-3.4c-2.9-3.8-4.9-8-6.4-12.4
			c-2.4-7.3-3.7-14.9-4.4-22.5c-1.4-13.5-1.2-27.1-0.5-40.6c0.7-14.8,2.1-29.7,3.9-44.4c0.5-4.2,0.9-8.3,1.3-12.5
			c-1.5-1-3-0.5-4.3-0.3c-6.9,0.9-13.9,0.7-20.8,0.6c-3.6,0-7.1-0.8-10.5-2.2c-3.9-1.7-6.9-4.4-8.5-8.3c-2.2-5.1-2.6-10.4-2-15.9
			c0.1-1.3,0.5-2.6,1.2-3.7c0.8-1.2,1.8-1.6,3-0.9c5.9,3.5,12.7,4.3,19.3,5.3c7.8,1.2,15.8,1.1,23.7,1.5c0.7,0,1.4,0.1,2.3-0.5
			c1.1-1.5,0.9-3.5,1.2-5.3c2.4-13.7,4.6-27.4,6.9-41.2c0.5-3.1,0.9-6.2,1.3-9.3c0.4-3.3,3-4.9,5.9-3.3c3.9,2,8.1,3,12.2,4.2
			c1.8,0.5,3.7,1,5.5,1.8c4.3,1.8,5.3,3.7,4.4,8.2c-1.2,6.1-2.5,12.2-3.7,18.3c-1.5,7.2-3,14.3-4.5,21.5c-0.2,1.2-0.3,2.3-0.5,3.5
			c3.8,0.7,33.2-2.6,40-4.4c0.8-1.2,0.8-2.7,0.9-4.1c0.8-11.1,1.6-22.2,2.5-33.4c1.1-13.5,2.2-27,3.3-40.5
			c0.6-7.5,1.1-15.1,1.7-22.6c0.2-2.4,0.2-4.7,1-6.9c1.6-0.4,2.7,0.4,3.8,1.2c6.6,4.7,12.2,10.4,16.8,17.2c1.6,2.3,2,4.8,1.7,7.5
			c-0.6,5.2-1.2,10.5-1.8,15.7c-1.1,9.6-2.2,19.3-3.3,28.9c-1.1,10.1-2.2,20.3-3.3,30.4c-0.1,0.9-0.3,1.9,0,2.8
			c1.2,0.6,2.4,0.2,3.6,0.1c4.2-0.5,8.3-1.2,12.5-0.5c0.4,0.1,0.7,0,1.1,0.1c1.4,0.3,3,0.5,3.3,2.3c0.3,1.7-1.1,2.4-2.3,2.8
			c-2.4,0.9-3.5,2.9-4.2,5.1c-0.8,2.3-2.3,3.4-4.6,4c-3.6,0.9-7.1,2-10.6,3c-0.9,1.1-1,2.3-1.1,3.5c-1.1,11.8-2,23.7-3.2,35.5
			c-1.2,12.3-1.8,24.6-2.5,37c-0.1,2.4-0.6,4.9,0.5,7.5c1.5-1,1.9-2.4,2.6-3.6c5.5-10.2,10.8-20.6,16.7-30.6
			c3.4-5.8,6.9-11.5,11-16.8c2.1-2.7,4.2-5.3,6.8-7.4c3.6-2.8,5.7-3,9.5-0.5c1.4,0.9,2.7,1.5,4.3,1.5c0.6,0,1.2,0.1,1.8,0.2
			c6.6,1.1,9.1,4.5,8.2,11c-1.9,13.5-3.4,27.1-4.3,40.8c-0.7,10.5-1.3,21.1-1.1,31.6c0.1,6.8,0.5,13.7,2,20.4
			c0.6,2.6,1.3,5.1,2.7,7.4c2.3,4,5.4,5.2,9.7,3.6c2.5-0.9,4.6-2.5,6.5-4.4c3.5-3.5,6.2-7.6,8.7-11.9c1.4-2.4,2.8-4.8,4.2-7.1
			c0.5-0.9,1.1-2,2.4-1.8c1.3,0.2,2,1.2,2.5,2.4c0.5,1.4,0.7,2.8,0.5,4.2c-0.4,3.9-1.1,7.8-2.7,11.5c-4.5,10.3-11.7,18-21.9,22.9
			c-11.1,5.2-22.1,2.4-29.4-7.4c-4.6-6.1-6.9-13.1-8.5-20.4c-2-8.8-3-17.7-3-26.8c0-9.7,0-19.4,0.3-29.2c0.1-5.3,0.6-10.5,1.1-15.8
			c0.3-3.9,0.2-5.4-1-7.9c-1.1,0.1-1.5,1.1-2,1.9c-10.1,17-20.1,34.1-24.9,53.6c-3.2,12.6-5,25.4-4.8,38.4
			c0.1,6.4,0.1,12.7,0.2,19.1c0,1.3,0.1,2.7-0.3,3.9c-0.6,1.8-1.6,2.3-3.3,1.6c-1-0.4-1.9-1-2.9-1.5c-5.4-3.1-10.7-6.4-16-9.7
			c-2.3-1.5-3.2-3.2-2.9-5.9c1.1-13.4,1.9-26.8,2.9-40.2c1.2-16.3,2.4-32.5,3.6-48.8c0.9-12.6,1.9-25.1,2.9-37.7
			c0.4-5.4,0.9-10.8,1.3-16.1C663,215.8,662.9,215.1,662.8,213.8z"/>
		<path class="st0" d="M1208.1,331.1c-0.5,12.1-3.1,23.5-10.4,33.4c-4,5.4-8.9,9.7-15.2,12.3c-10,4.1-20,1.5-26.9-6.8
			c-2.6-3.2-4.5-6.8-6-10.6c-2.8-7.4-3.9-15.1-4.1-22.9c-0.4-14.9,1.3-29.7,3.8-44.4c1.1-6.4,2.5-12.7,3.9-19.4
			c-3.6,0.9-7,2-10.4,2.7c-3.4,0.7-6.8,1.1-10.4,0.7c-1.1,3.6-1.2,7-1.8,10.4c-2.8,15.6-6.8,30.9-13,45.5c-2.7,6.4-5.9,12.6-10,18.3
			c-3.4,4.8-7.4,9.2-12.5,12.3c-5.6,3.4-11.5,4.7-17.9,3.1c-4.9-1.3-8.9-4.1-12.2-7.9c-3.8-4.5-6.2-9.7-8-15.2
			c-1.3-4.1-2.3-8.3-2.9-12.6c-0.1-0.7,0.1-1.5-0.8-2c-1.1,0.8-1.3,2.2-1.8,3.3c-2.9,6.6-6.2,13-10.2,19c-2.3,3.4-4.9,6.5-7.8,9.4
			c-8.2,7.8-17.2,8.9-28,3.1c-4.9-2.6-8.3-6.8-11-11.6c-3.9-6.9-6.1-14.4-7.1-22.1c-3.2-26.7,1.3-52.1,12.9-76.3
			c3-6.2,6.7-11.9,11.2-17.1c3.3-3.8,7.1-7.1,11.5-9.7c7.5-4.4,15.5-5.5,23.9-3.4c6.9,1.7,12.1,5.6,15.7,11.7
			c1.9,3.1,3.3,6.5,3.9,10c0.5,2.9,1.9,4.3,4.7,5c2.3,0.5,4.5,1.6,6.6,2.7c2.9,1.5,4.1,3.7,3.8,7.1c-1.1,10.7-2.2,21.5-3.2,32.2
			c-0.3,2.7-0.5,5.5-0.7,8.2c-0.7,12.3-1.7,24.7,0.4,37c0.5,3,1.2,5.9,2.7,8.5c2.1,3.7,4.7,4.9,9,4.2c3.7-0.6,6.8-2.3,9.5-4.8
			c3.2-3,5.6-6.5,7.6-10.4c4.4-8.4,7-17.3,9.2-26.4c2.6-10.9,4.2-21.9,5.6-33c0.2-1.4,0-2.5-1.2-3.5c-8-6.8-11.1-16-12.2-26.1
			c-0.7-6.1-0.4-12.2,1.4-18.2c1-3.4,2.5-6.5,4.8-9.2c3.8-4.2,9-5.2,14.5-3.4c3.2,1,5.2,3.4,6.2,6.6c1.1,3.6,1.4,7.3,1.1,11
			c-0.5,5.6-1,11.2-1.6,16.8c-0.2,2.2,0.1,4.3,0.4,6.4c0.4,2.3,1.6,3.1,3.9,2.4c1.2-0.4,2.4-1,3.6-1.7c4.6-2.6,8.7-6,12.7-9.5
			c5.6-4.9,11.1-9.9,16.7-14.8c4.6-4,6.6-3.8,10.8,0.8c1,1.1,2,2.4,2.8,3.7c2.2,3.3,2.6,6.8,1,10.6c-2.9,7.1-5.6,14.3-8.5,21.4
			c-5.9,14.6-9.5,29.6-10.1,45.4c-0.5,11.1,0.2,22,3.1,32.8c1,4,2.5,7.8,4.8,11.2c4.5,6.5,9.8,6.8,15,0.8c2.2-2.6,3.8-5.5,5.3-8.6
			c1.8-3.9,3.4-7.9,4.5-12.1c0.7-2.8,2.5-4.6,4.8-6C1206.1,331,1207.1,330.8,1208.1,331.1L1208.1,331.1z M1006,325.7
			c0,2.6-0.2,5.3,0,7.9c0.3,4.1,1.1,8.1,3.1,11.8c2.1,3.8,4.7,5,9,4.3c3-0.5,5.7-1.8,8.1-3.7c2.8-2.1,5-4.8,7-7.6
			c3.3-4.8,5.8-9.9,7.9-15.3c7.9-20.3,11.3-41.6,14.1-63c0.1-1,0-1.9-0.7-2.7c-2.6-3.1-5.5-6.1-9.2-7.9c-3.9-2-7.8-1.9-11.7,0.2
			c-2.9,1.6-5.2,3.8-7.3,6.4c-3,3.7-5.3,7.7-7.2,12C1010.8,286.3,1006.7,305.6,1006,325.7z"/>
		<path class="st0" d="M311.3,222c-1.4,5.1-2,10.1-2.9,15c-2.7,15.8-4.9,31.8-6.4,47.8c-0.8,8.8-1.4,17.7-1.8,26.6
			c-0.4,7.6-0.5,15.1-0.6,22.7c0,2.8,0.2,5.5,1,8.2c2.5,7.8,9.1,10.1,15.8,5.5c2.8-1.9,4.9-4.5,6.7-7.4c1.9-3,3.3-6.1,4.4-9.5
			c0.5-1.4,1.1-2.7,2.6-3.2c1.4-0.4,2.4,0.1,2.6,1.5c0.1,0.9,0.1,1.9-0.1,2.9c-1.5,7.6-3.9,14.9-8,21.5c-1.8,2.9-3.9,5.4-6.5,7.6
			c-8.4,7.2-21.3,6.7-28.5-3.2c-3.2-4.3-5.2-9.2-6.7-14.3c-1.9-6.3-2.9-12.9-3.6-19.4c-1.5-13.9-1.3-27.8-0.6-41.7
			c0.8-17,2.5-34,4.7-50.8c0.2-1.9,0.4-3.8,0.5-5.7c-1.2-1.2-2.6-0.6-3.8-0.5c-6.7,0.9-13.4,0.7-20.1,0.7c-3.5,0-6.9-0.6-10.2-1.7
			c-5.5-1.9-9.1-5.6-10.8-11.1c-1.3-4.2-1.6-8.5-1.3-12.8c0.1-1.6,0.5-3.1,1.3-4.5c0.8-1.4,1.8-1.8,3-1c4.4,2.8,9.4,3.6,14.3,4.5
			c9.7,1.9,19.5,2,29.4,2.3c0.5,0,0.9-0.1,1.3-0.2c1-0.7,1-1.7,1.1-2.7c2.8-16.6,5.5-33.1,8.3-49.7c0.2-1.3,0.2-2.6,0.4-3.9
			c0.4-3,3.1-4.6,5.8-3.1c3.9,2.1,8.1,3,12.2,4.2c2,0.6,3.9,1.1,5.8,1.9c4,1.7,5,3.6,4.2,7.9c-1,4.9-2,9.9-3,14.8
			c-1.8,8.5-3.6,16.9-5.3,25.4c-0.2,1.1-0.6,2.3-0.3,3.6c5,0.1,9.9-0.7,14.7-1.2c17.8-2,35.4-4.8,53.1-7.4c3.8-0.6,7.6-1,11.5-0.3
			c0.4,0.1,0.7,0,1.1,0.1c1.4,0.3,3,0.5,3.3,2.2c0.3,1.7-1,2.4-2.3,2.8c-2.4,0.9-3.5,2.9-4.3,5.1c-0.8,2.3-2.4,3.3-4.6,4
			c-10.3,3-20.7,5.4-31.1,7.6c-14.3,3.1-28.7,5.9-43.1,8.1C313.4,221.4,312.5,221.7,311.3,222z"/>
		<path class="st0" d="M384.4,302.7c0.5-1.2,1.1-2.3,1.6-3.5c5.4-12.7,10.4-25.5,16.4-38c3.9-8.1,8.1-16.1,13.2-23.5
			c2.6-3.8,5.5-7.3,8.6-10.6c2-2.1,4.3-2.5,6.9-1.4c4,1.7,7.6,4.2,10.6,7.3c1.8,1.9,2.4,3.9,1.3,6.5c-5.3,12.5-7.6,25.7-9.4,39
			c-1.2,8.7-1.6,17.4-1.8,26.2c-0.2,7.1,0.5,14.1,2.7,21c1,3.1,2.3,6.1,4.4,8.6c3.7,4.6,8.4,5.7,13.8,3.4c3.1-1.4,5.7-3.5,8.1-5.8
			c0.9-0.9,1.8-2,3.6-1.3c0.8,1.6,0.5,3.4,0.1,5.1c-2.9,13.1-16.5,23.2-27.8,22.5c-5.5-0.4-9.9-2.5-13.7-6.4c-3-3-5.1-6.6-6.9-10.5
			c-3.6-7.8-5.7-16-7.1-24.4c-1.8-10.4-2.6-20.9-2.8-31.5c0-0.5-0.1-0.9-0.1-1.4c-1.2-0.4-1.5,0.6-1.9,1.2
			c-3.6,4.8-6.4,10.1-8.7,15.7c-5.1,11.9-8.6,24.4-12.1,36.9c-2.6,9.4-4.9,18.8-7.9,28.1c-1,3-1.8,3.7-4.8,3.8
			c-4.1,0.1-7.9-0.7-10.4-4.4c-0.6-0.9-1.7-1.3-2.7-1.6c-3.3-0.9-3.5-2.5-3-5.1c0.7-4,1.2-8.1,1.5-12.1c0.6-8.7,1.4-17.4,2-26.2
			c0.9-11.1,1.8-22.2,2.6-33.3c0.5-7.1,1.1-14.1,1.1-21.2c0-4.8,0.7-9.6,0-14.4c-0.2-1.4-0.4-2.9-0.9-4.2c-1.3-3.4-3.7-4.5-7.2-3.2
			c-1.8,0.7-3.4,1.7-4.9,2.9c-3.1,2.4-5.9,5.3-8.6,8.2c-0.8,0.9-1.5,1.9-2.7,2.4c-1.5,0.7-3.3,0.4-4.3-0.8c-1.1-1.2-1.3-2.8-0.1-4.3
			c7.3-8.9,15.3-16.9,26.1-21.5c3.8-1.6,7.8-2.4,11.9-1.6c4.8,0.9,8.3,3.6,10.6,7.8c2.1,3.7,3.1,7.8,3.7,12
			c1.2,8.7,1.1,17.5,0.5,26.2c-0.6,9.1-1.4,18.1-2,27.2C383.9,302.5,384.1,302.6,384.4,302.7z"/>
		<path class="st0" d="M775.1,306.5c0.1-22.2,4-39.9,12.5-56.6c3.5-6.9,7.8-13.2,13.4-18.6c5.8-5.6,12.4-9.8,20.5-11.4
			c4.3-0.8,8.6-1,12.9,0c7.5,1.7,12.5,6.4,15.2,13.5c2.6,6.8,2.7,13.8,1.3,20.9c-2.5,12.8-8.8,23.7-17.1,33.6
			c-7.9,9.3-17.3,17-27.6,23.4c-1,0.6-2,1.3-3.1,1.9c-0.9,0.6-1.3,1.3-1.2,2.4c0.7,7.2,1.8,14.3,4.6,21c1.5,3.7,3.4,7.1,6.3,10
			c5.3,5.2,11.5,6.1,18.2,3.6c4.1-1.5,7.4-4.4,10.2-7.8c5.6-7,8.3-15,9-23.8c0.5-6.4-0.3-12.7-2.1-18.8c-1.1-4-0.1-5.2,4.1-5
			c4.5,0.3,8,2.3,10.4,6.1c1.4,2.2,2.3,4.5,2.8,7c3.9,19.2-0.9,35.7-15.5,48.9c-17,15.5-45.4,12.2-59.4-4
			c-6.7-7.7-10.6-16.8-12.9-26.6C775.7,318.6,774.9,310.9,775.1,306.5z M802.1,298.6c2.5-1.4,4.3-3.3,6-5.3
			c9.6-10.6,16.8-22.7,21.6-36.1c1.2-3.4,2-6.9,2.3-10.5c0.3-2.5,0.2-5.2-2.2-6.8c-2.4-1.7-5.1-0.9-7.5,0.3
			c-2.8,1.4-4.9,3.7-6.8,6.3c-2.9,3.9-5,8.2-6.7,12.7c-4.5,11.9-6.7,24.2-7.4,36.8C801.4,296.7,801.2,297.6,802.1,298.6z"/>
		<path class="st0" d="M520.5,259c1.4-1.6,3-2,4.4-2.7c2.4-1.2,4.9-2,7.2-3.3c4.4-2.5,8.1-2.6,12.4,0.8c5,4,11.2,5.3,17.6,5.3
			c2,0,4.1,0,6.1,0c3.8,0.1,4.4,1.2,2.7,4.7c-1.7,3.3-4.1,5.9-6.9,8.2c-2.4,1.8-5,3.2-7.5,4.7c-0.7,1.3-0.4,2.5-0.3,3.7
			c0.3,17.3-3,33.9-10.1,49.7c-3.2,7.2-7.3,13.8-12.6,19.6c-5,5.5-10.8,10.1-18.2,11.8c-12.7,2.9-24.3,0.4-34.1-8.7
			c-5.7-5.3-9.2-11.9-11.7-19.2c-2.6-7.4-3.9-15.1-4.2-22.9c-0.8-20.9,3.2-40.8,12.2-59.7c3.9-8.3,8.9-15.9,15.6-22.3
			c5.8-5.6,12.5-9.7,20.7-10.9c6.4-1,12.7-0.4,18.7,2c8.9,3.6,14.6,13.2,13.6,22.8c0,0.3-0.3,0.6-0.4,0.9c-1.3,0.3-2.4-0.4-3.5-0.8
			c-13.1-4.1-24.3-1.2-33.7,8.8c-3.9,4.2-6.9,8.9-9.4,14c-4.9,10-7.7,20.6-9.2,31.6c-0.8,5.9-1.4,11.9-1.2,17.9
			c0.2,7,0.7,13.9,2.6,20.6c0.8,2.8,1.7,5.5,3.1,8.1c1,1.8,2.1,3.5,3.5,5c4.2,4.3,9.6,5,14.8,1.9c3-1.8,5.3-4.5,7.3-7.4
			c4.6-6.8,7.2-14.3,9.2-22.1c2.3-8.9,3.4-17.9,3.5-27.1c0.1-5.4-0.3-10.8-1.4-16.1C529.5,270.7,527,263.9,520.5,259z"/>
		<path class="st0" d="M932.3,270.1c3.2-1.7,4.6-4.6,6-7.6c1.3-2.8,2.3-5.8,3-8.8c0.5-2.2,0.7-4.5,0.3-6.8c-0.4-2.4-1.5-3.1-3.8-2.5
			c-2.8,0.7-5.3,2.1-7.7,3.9c-4.2,3.3-7.5,7.4-10.4,11.8c-7.1,10.9-11.7,22.8-14.5,35.4c-1.7,7.4-2.5,14.9-2.2,22.5
			c0.3,7.2,1.7,14,5,20.4c2.5,4.8,5.8,8.8,10.4,11.7c9.4,5.9,20.5,3.9,27.2-4.9c3.4-4.5,5.2-9.7,6.2-15.2c1.6-9.2,0.5-18.2-1.9-27.1
			c-0.3-1.2-0.7-2.3-1-3.5c-0.4-2.2,0.2-3.1,2.5-3.5c3-0.4,5.7,0.6,8,2.4c2.7,2.1,4.6,4.9,6.1,7.9c2.5,5,3.8,10.4,4.2,15.9
			c0.6,7.7-0.2,15.4-2.9,22.7c-7.2,19.5-25.3,26.3-40.9,24.1c-20.2-2.9-33.4-14.7-41.1-33c-4.8-11.4-5.7-23.4-4.7-35.7
			c1.1-13.9,4.3-27.2,9.7-40c4.1-9.8,9.4-18.9,16.6-26.8c4.2-4.6,9-8.7,14.6-11.5c4.7-2.4,9.6-3.8,14.8-3.8
			c8.7-0.1,15.2,3.7,19.7,11.1c3.3,5.4,4.7,11.5,5.6,17.7c0.3,2.1,0.5,4.3,0.8,6.4c2.2,15.9-12.8,24.3-25,21.1
			C934.9,273.9,932.9,273.1,932.3,270.1z"/>
		<path class="st0" d="M1208.2,331.2c-0.1-2.8-0.1-5.5-0.3-8.3c-0.8-16.6,0.7-33,2.8-49.5c1.4-10.5,3.2-20.8,5.3-31.2
			c0.4-1.9,0.8-3.7,1.8-5.4c1-1.7,2.3-2.7,4.3-2.7c6.3,0,12.4-0.8,18.5-2.1c3.5-0.7,5.2,1.1,4.5,4.7c-2.6,14.4-5.2,28.8-7.7,43.2
			c-2.6,15.1-4.7,30.3-4.9,45.7c-0.1,4.9-0.6,9.8,0.1,14.7c0.3,2.2,0.7,4.3,1.7,6.2c1.5,2.8,3.9,3.8,7,3c2.4-0.6,4.4-1.9,6.3-3.4
			c5.2-4.1,9.2-9.1,12.2-14.9c0.7-1.3,1.2-2.6,2.6-3.3c1.7-0.9,3.1-0.2,3.3,1.8c0,0.6,0,1.2-0.2,1.8c-2.5,10.7-7.2,20-15.5,27.4
			c-4,3.6-8.5,6.2-13.9,7.1c-7.8,1.4-14.2-0.9-19-7.3c-3.8-5-5.7-10.8-7-16.8C1209.4,338.4,1208.8,334.8,1208.2,331.2L1208.2,331.2z
			"/>
		<path class="st0" d="M1262.3,160.8c-0.3,9.1-3.6,17-10.2,23.3c-3.4,3.3-7.4,5-12.3,4.8c-6-0.3-10.7-3.6-12.8-9.3
			c-1.5-4-1.7-8.1-0.9-12.4c1.1-5.9,3.4-11.2,7.5-15.7c4.5-4.9,10-7.3,16.7-6.5c7.1,0.9,11.5,5.3,12.1,12.4
			C1262.4,158.6,1262.3,159.7,1262.3,160.8z"/>
	</g>
	<g>
		<path class="st1" d="M1691.1,150.9c-1.7,0.6-2.4,1.6-3.2,2.4c-8.2,8.1-17,15.5-26.1,22.6c-13.7,10.7-29.3,16.6-46.3,19.2
			c-6.9,1-13.8,1.6-20.8,1.9c-7.3,0.3-14.6-0.3-21.9-1.3c-0.5-0.1-1-0.1-1.3-0.7c-0.1-1.2,1-1.8,1.7-2.5
			c9.8-10.1,19.1-20.6,27.9-31.5c5.2-6.4,9.8-13.4,14.6-20c4.3-5.9,8.8-11.6,14.1-16.8c8.5-8.4,18.7-13.1,30.7-14.2
			c6.6-0.6,13.2-0.2,19.7,0.5c14.5,1.5,28.7,0.2,42.8-3.5c6.3-1.6,12.5-3.4,18.6-5.5c0.6-0.2,1.3-0.7,2.1-0.2
			c0.1,1.2-0.9,1.9-1.5,2.6c-10.2,12.7-16.7,27.1-19.4,43.2c-1.3,8-2.8,16.1-4.4,24.1c-1.2,5.9-2.9,11.6-5.7,17
			c-1.9,3.7-4.4,6.8-7.6,9.4c-10.7,8.6-23.1,13.7-36.5,16.1c-18.7,3.3-37.3,2.3-55.7-1.6c-0.7-0.1-1.4-0.1-2-0.9
			c1-0.9,2.4-1,3.6-1.4c10.5-3.1,20.6-7,30.5-11.8c13.2-6.4,24.2-15.5,33.2-27c4.2-5.4,8.1-11,11.5-16.9
			C1690.2,153.1,1690.5,152.2,1691.1,150.9z"/>
		<path class="st1" d="M1576.8,249.9c2.4-1.1,5-1.1,7.6-1.4c8.7-1.1,17.5-1.1,26.2-0.8c16.5,0.5,32.2,4.5,47.4,11
			c13.6,5.9,26.5,13,38.9,21c1.1,0.7,2.1,1.6,3.4,2c0.8-0.7,0.1-1.3-0.2-1.8c-5.3-9.5-11.9-18-20-25.2c-8.6-7.6-18.9-12.2-29.7-15.7
			c-10.8-3.4-21.8-5.6-33.1-6.7c-1.4-0.1-2.7-0.4-4.2-1.3c2-0.8,3.9-1.7,5.9-2.5c13.4-5.4,27.3-9,41.8-10.1
			c12.8-1,25.4,0.5,37.4,5.5c7.8,3.3,13.8,8.4,18,15.8c3.3,5.7,5.9,11.8,8.3,18c1.5,3.9,3.1,7.8,4.6,11.7
			c6.7,17.5,17.3,32.2,30.9,45c0.7,0.7,1.8,1.1,2,2.5c-1.7,0.5-3.3-0.1-4.9-0.2c-13.3-0.5-26.6,0.8-39.8,2.5
			c-15.2,2-30.5,3.7-45.9,3.3c-5.5-0.1-11-0.7-16.4-1.8c-12-2.3-21.4-8.8-29.2-17.8c-3.1-3.6-6.2-7.3-9-11.2
			c-9.2-12.8-20.5-23.5-31.9-34.1c-2.2-2-4.5-3.9-6.8-5.9C1577.4,251.4,1576.7,251,1576.8,249.9z"/>
		<path class="st1" d="M1395,49.6c1.1,0.2,1.7,0.9,2.3,1.4c13.3,11.3,28.8,17.4,46,19.6c9,1.1,18.1,1.9,27.1,3.6
			c5.7,1.1,11.2,2.5,16.4,5.3c3,1.6,5.6,3.6,7.8,6.2c8.7,10.3,13.4,22.3,15.8,35.4c3.3,17.5,2.3,34.9-0.9,52.2
			c-0.1,0.5-0.2,0.9-1,1.4c-5-15.1-11.3-29.5-21.3-42c-10-12.4-22.4-21.8-36.4-30c-0.3,1.6,0.6,2.1,1.2,2.7
			c7.9,8.7,15.2,17.9,21.4,28c9.4,15.2,14.7,31.7,16.4,49.4c1.1,10.8,1.4,21.5,0.5,32.3c-0.1,1,0.2,2.2-0.7,3
			c-0.9-0.1-1.2-0.8-1.6-1.4c-7.5-10.5-17.1-18.8-27.7-25.9c-6.9-4.6-13.9-9-20.5-14c-5.7-4.2-11-8.8-15.7-14.2
			c-7.2-8.2-11.2-18.1-14.2-28.4c-2.8-10-4.5-20.1-5.7-30.4c-2.2-17.4-4.9-34.7-9-51.7C1394.9,51.4,1394.5,50.6,1395,49.6z"/>
		<path class="st1" d="M1569.8,2.6c0.3,2.4,0.5,4.4,0.8,6.4c2,11.7,6.4,22.3,13.5,31.8c5.7,7.7,11.6,15.3,17.3,23
			c4.1,5.5,7.7,11.3,10.9,17.4c8.6,16.2,8.3,32.4,0.7,48.8c-4,8.6-9.4,16.2-15.7,23.1c-9.3,10.3-20.1,18.9-31.8,26.3
			c-0.5,0.3-1,0.7-1.9,0.6c0.3-1.6,1.4-2.7,2.2-3.9c6.1-9.9,11.3-20.3,15.4-31.3c5.7-15.4,5.9-30.9,1.3-46.6
			c-2.2-7.4-5-14.5-8.4-21.4c-0.7-1.3-1.2-2.8-2.5-3.9c-0.8,1.2-0.3,2.2-0.2,3.2c1.2,8.2,1.7,16.4,2,24.7
			c0.7,19.4-4.3,37.3-13.5,54.1c-6.3,11.5-13.5,22.4-21.9,32.5c-0.5,0.6-0.9,1.1-1.4,1.6c-0.2,0.2-0.4,0.2-0.6,0.3
			c-1-0.2-0.7-1.1-0.8-1.7c-2.1-13.4-5.9-26.4-9.7-39.5c-2.9-10-5.4-20.1-7-30.5c-2.8-18.4,0.7-35.3,10.8-50.9
			c3.7-5.8,7.7-11.3,11.9-16.7c10.8-13.7,19.3-28.6,26.7-44.3c0.4-0.8,0.7-1.5,1.1-2.3C1568.9,3.3,1569.2,3.2,1569.8,2.6z"/>
	</g>
</g>
</svg>
