<?xml version="1.0" encoding="utf-8"?>
<!-- Generator: Adobe Illustrator 21.1.0, SVG Export Plug-In . SVG Version: 6.00 Build 0)  -->
<svg version="1.1" id="Capa_1" xmlns="http://www.w3.org/2000/svg" xmlns:xlink="http://www.w3.org/1999/xlink" x="0px" y="0px"
	 viewBox="0 0 512 512" style="enable-background:new 0 0 512 512;" xml:space="preserve">
<style type="text/css">
	.st0{fill:#FFFFFF;}
</style>
<g>
	<path class="st0" d="M132.7,328.4c0-17.7,0-34.9,0-52.7c35.3,0,70.2,0,105.5,0c0.1-20.5-9.5-35.2-23.7-47.6
		c-0.6,0.1-0.9,0.1-0.9,0.2c-20,22.5-45,25.1-71.8,16.5c-36.5-11.7-61.7-35.2-69.3-74c-5-25.4-0.6-50.1,8.5-74
		c4.1-10.7,9.2-21,14.2-32.4c2.1,2.7,3.7,4.6,5,6.6c8.3,12.8,20.1,20.8,34.4,25.1c15.8,4.7,31.7,8.8,47.7,12.9
		c24.3,6.2,43.3,19.3,55,41.9c9.4,18.3,9.2,36.4-1.5,54.2c-0.4,0.7-0.9,1.4-1.4,2.1c-0.2,0.3-0.5,0.4-1.1,0.9
		c-4.5-3.1-9.1-6.3-13.5-9.4c0-0.6,0-0.8,0.1-0.9c12.1-25.7,2.9-52.2-23.8-64.6c-11.9-5.5-25.2-8.2-37.9-12.1
		c-13-4-26.2-7.5-39-12.2c-6.9-2.5-13-7.1-19.9-11c-10.1,26.8-16.6,54.2-6,82.1c11.7,30.7,36.1,46.3,67.8,51.1
		c12.8,2,24.5-0.8,34.4-9.6c1.4-1.2,3-2.1,5.5-3.9c-8.6-5.2-15.8-9.2-22.8-13.7c-14.6-9.3-29.4-18.3-43.4-28.4
		c-6.5-4.8-11.3-12-17.4-18.7c6.2-3.3,11.1-6,16.4-8.8c9.6,15.5,24.7,24.1,39.6,32.9c8.2,4.9,16.5,9.4,24.6,14.3
		c18.7,11.2,36.4,23.5,47.5,41.6c7.7-13.1,14.9-26.6,23.2-39.4c12.2-18.5,28.6-32.8,47.5-44.3c7.1-4.4,14.2-8.6,21.4-12.9
		c18.3-10.9,33.1-25.1,42.7-45c5.3,2.6,10.3,5.1,15.6,7.8c-7.2,14.9-16.4,27.8-29.1,37.9c-8.3,6.6-17.4,12.2-26.3,18.1
		c-10.4,6.9-20.9,13.7-31.3,20.5c-1.8,1.2-3.3,2.7-5.4,4.5c7.5,4,15.2,5.2,22.9,5.8c43.9,3.3,82.3-27.6,89.1-71.1
		c2.9-18.3,1.7-36.2-3-53.9c-0.3-1.1-0.6-2.2-1-3.3c-0.1-0.4-0.4-0.8-0.8-1.6c-26.1,17.1-56.8,19.1-85.6,27.3
		c-7.8,2.2-15.7,4.9-22.7,8.8c-23,12.5-30.7,41.7-17.3,65c-4.2,3.7-8.6,7.4-13,11.3c-6.8-8-9.3-17.2-10.4-26.9
		c-3.5-32.8,11.9-59.1,43.1-70c17.5-6.1,36-9.4,54-14.1c8.2-2.1,16.4-4.3,24.4-7.1c10.4-3.6,19.6-9.2,27.2-17.2
		c2.3-2.4,4.2-5.2,6.2-7.8c0.8,0.2,1.7,0.5,2.5,0.7c3.9,12.1,8.7,23.9,11.6,36.2c6.5,26.7,5.9,53.3-4.7,79
		c-25.7,62.7-94,73.7-133,54.3c-1.2-0.6-4,0-4.7,1.1c-15.7,20.4-28.3,42.3-32.4,68.3c-0.4,2.2-0.3,4.5-0.5,7.3c41.3,0,82,0,123.2,0
		c0,17.7,0,34.9,0,52.5c-1,0.2-2.1,0.7-3.1,0.5c-5.9-1.1-8.1,1.6-9.6,7.2c-11.9,43.7-24.1,87.2-36.3,130.8
		c-3.8,13.5-13,20.7-26.9,20.8c-31.5,0.1-63,0.1-94.5,0c-14-0.1-23.2-7.2-27-20.7c-12.3-43.7-24.6-87.4-36.7-131.2
		c-1.4-5.1-3.2-8-8.9-6.9C135.2,328.8,134.2,328.5,132.7,328.4z M350.2,329c-63,0-125.5,0-188.4,0c0.3,1.6,0.4,2.9,0.8,4.1
		c12,42.7,23.9,85.5,35.9,128.2c1.9,6.9,4.3,8.6,11.4,8.6c30.3,0,60.6,0,90.9,0c8.7,0,10.7-1.5,13-9.8c7.7-27.6,15.3-55.1,23-82.7
		C341.3,361.4,345.7,345.4,350.2,329z M361.7,293.6c-70.7,0-141.1,0-211.3,0c0,6,0,11.6,0,17.1c70.6,0,140.9,0,211.3,0
		C361.7,305,361.7,299.5,361.7,293.6z"/>
	<path class="st0" d="M350.2,329c-4.5,16.4-8.9,32.4-13.4,48.4c-7.6,27.6-15.3,55.1-23,82.7c-2.3,8.3-4.3,9.8-13,9.8
		c-30.3,0-60.6,0-90.9,0c-7.2,0-9.5-1.7-11.4-8.6c-12-42.7-24-85.5-35.9-128.2c-0.3-1.2-0.5-2.5-0.8-4.1
		C224.7,329,287.2,329,350.2,329z"/>
	<path class="st0" d="M361.7,293.6c0,5.9,0,11.3,0,17.1c-70.5,0-140.7,0-211.3,0c0-5.5,0-11.1,0-17.1
		C220.6,293.6,291,293.6,361.7,293.6z"/>
</g>
</svg>
