<svg xmlns="http://www.w3.org/2000/svg" xmlns:xlink="http://www.w3.org/1999/xlink" viewBox="0 0 396.53 398.31"><defs><style>.cls-1{fill:url(#linear-gradient);}.cls-2{fill:url(#linear-gradient-2);}.cls-3{fill:#fff;fill-rule:evenodd;}</style><linearGradient id="linear-gradient" x1="491.79" y1="493.54" x2="492.79" y2="493.54" gradientTransform="matrix(0, -384.52, -384.52, 0, 189972.28, 189493.59)" gradientUnits="userSpaceOnUse"><stop offset="0" stop-color="#20b038"/><stop offset="1" stop-color="#60d66a"/></linearGradient><linearGradient id="linear-gradient-2" x1="491.74" y1="493.48" x2="492.74" y2="493.48" gradientTransform="matrix(0, -398.31, -398.31, 0, 196755.54, 196263.49)" gradientUnits="userSpaceOnUse"><stop offset="0" stop-color="#f9f9f9"/><stop offset="1" stop-color="#fff"/></linearGradient></defs><g id="Layer_2" data-name="Layer 2"><g id="svg41"><path id="path138" class="cls-1" d="M8.46,197.43a190.19,190.19,0,0,0,25.45,95.25h0l-27,98.74,101-26.5A190.53,190.53,0,0,0,199,388.11h.09c105,0,190.55-85.48,190.59-190.54h0A189.31,189.31,0,0,0,333.89,62.78h0A189.38,189.38,0,0,0,199.06,6.9h0C94,6.9,8.51,92.37,8.46,197.43M199.07,388.11h0m0,0h0"/><path id="path208" class="cls-2" d="M1.66,197.36A197,197,0,0,0,28,296h0L0,398.31l104.66-27.45a197.26,197.26,0,0,0,94.35,24h.09c108.81,0,197.38-88.55,197.43-197.37h0A196.19,196.19,0,0,0,338.76,57.88h0A196.21,196.21,0,0,0,199.1,0h0C90.27,0,1.7,88.54,1.66,197.36M64,290.88l-3.91-6.2A163.63,163.63,0,0,1,35,197.37h0c0-90.45,73.65-164,164.17-164h0a163,163,0,0,1,116,48.11h0a163,163,0,0,1,48,116.06h0c0,90.45-73.65,164.05-164.09,164.05H199a164,164,0,0,1-83.52-22.87h0l-6-3.56L47.4,351.42Zm135.11,104h0m0,0h0"/><path id="path262" class="cls-3" d="M149.75,114.85c-3.7-8.21-7.59-8.38-11.1-8.52-2.88-.12-6.17-.12-9.46-.12A18.13,18.13,0,0,0,116,112.39c-4.52,4.93-17.27,16.87-17.27,41.14s17.68,47.72,20.15,51S153,259.24,203.19,279c41.67,16.43,50.15,13.16,59.19,12.34s29.19-11.93,33.3-23.45,4.11-21.39,2.88-23.45-4.52-3.29-9.46-5.76-29.18-14.4-33.71-16.05-7.81-2.46-11.1,2.48-12.73,16-15.61,19.33-5.76,3.71-10.69,1.24-20.82-7.68-39.67-24.48C163.65,208.13,153.75,192,150.87,187s-.31-7.6,2.17-10.06c2.21-2.21,4.93-5.76,7.4-8.64s3.28-4.94,4.93-8.23.82-6.17-.41-8.64-10.82-26.86-15.21-36.62"/></g></g></svg>