<?xml version="1.0" encoding="utf-8"?>
<!-- Generator: Adobe Illustrator 21.1.0, SVG Export Plug-In . SVG Version: 6.00 Build 0)  -->
<svg version="1.1" id="Capa_1" xmlns="http://www.w3.org/2000/svg" xmlns:xlink="http://www.w3.org/1999/xlink" x="0px" y="0px"
	 viewBox="0 0 512 512" style="enable-background:new 0 0 512 512;" xml:space="preserve">
<style type="text/css">
	.st0{fill:#FFFFFF;}
</style>
<g>
	<path class="st0" d="M88,198.8c1.9-11,4.1-21.9,5.5-32.9c0.3-2.3-1.9-5.1-3.3-7.5c-2.5-4.2-1.1-15.4,2.6-18.4
		c0.9-0.7,2.5-1,3.7-1.1c4.5-0.2,9-0.3,13.5-0.2c8.9,0.3,14.8,11.5,9.7,19c-3.1,4.5-4,8.7-2.9,14c1.9,9.1,3.3,18.3,6.2,27.7
		c0.7-1.7,1.5-3.4,2-5.1c5.6-17.6,11.2-35.2,16.8-52.9c2.2-6.8,3.7-7.8,10.9-7.1c8.8,0.8,17.7,1,26.3,2.6c7.4,1.4,14.7,3.9,21.7,6.6
		c9.7,3.8,19,8.9,28.8,12.6c11.2,4.2,22.8,4.4,34.4,1.2c15.7-4.4,31.4-8.8,47.2-12.9c4.5-1.2,9.2-2.2,13.7-2
		c12.9,0.7,21.9,9.1,23.7,21.1c2.1,13.2-3.9,23.6-16.5,28.5c-26.5,10.2-53.8,17.9-82.2,20.4c-7.2,0.7-15-1-22-3.1
		c-14-4.2-27.7-9.5-41.6-14.4c-1.5-0.5-3.1-1-5.4-1.7c-0.4,2.9-0.9,5.3-1.1,7.7c-3.2,34.5-6.3,69-9.6,103.5
		c-3.7,39-7.7,77.9-11.5,116.8c-1.2,12.4-1.9,24.9-3.2,37.3c-2.2,21-16.2,35-37.6,36.7c-9.7,0.8-19.7,0.6-29.4-0.4
		c-18.9-1.9-32.9-16.2-34.6-35.1c-2.6-29-4.8-58.1-7.1-87.2c-1.7-21.4-5.9-42.1-16.7-61.2c-9.2-16.3-16.4-33.6-18.7-52.4
		c-0.7-5.9-0.7-12-0.7-17.9c-0.1-18.7-0.1-37.3,0.1-56c0.2-26.9,21.3-49.1,48-51c4.6-0.3,7.1,1.5,8.4,5.9
		c5.4,17.5,11.1,34.9,16.7,52.4c0.7,2.2,1.5,4.3,2.3,6.4C86.9,198.9,87.4,198.8,88,198.8z"/>
	<path class="st0" d="M321.9,392.8c-2.4,2.6-4.7,5.3-7.3,7.9c-18.6,18.7-37.2,37.3-55.8,55.9c-2.2,2.2-4.8,4.2-7.5,5.7
		c-5.3,2.8-10.8,1.7-14.6-2.4c-3.8-4-4.7-9.1-1.9-14.3c1.5-2.7,3.5-5.3,5.7-7.5c15.9-16.1,32-32.1,48.1-48.1
		c1.3-1.2,3.2-1.8,4.8-2.7c-0.5-0.8-1-1.5-1.5-2.3c-3.4,0-6.8,0.1-10.2,0c-6.4-0.2-10.5-3.2-11.7-8.3c-1.5-6.7,0.7-12.5,6.7-15.1
		c2.9-1.3,3.6-2.9,3.5-5.6c-0.1-3.3-0.2-6.7,0.1-10c0.4-4.3-1-5.7-5.5-5.7c-22.3,0.3-44.7,0.6-67,0.2c-6.5-0.1-13-2.3-19.5-3.7
		c-3-0.6-3.7-2.7-3.4-5.6c1.1-8.9,2.1-17.9,3.3-28.7c3.4,11.3,11.2,11.7,19.4,11.7c75.8-0.1,151.6,0,227.5,0c2.2,0,4.3,0,6.5-0.1
		c9.4-0.5,14.3-5.4,14.3-14.9c0.1-17.3,0-34.7,0-52c0-56.5,0-113,0-169.5c0-1.7,0-3.3,0-5.4c-89.3,0-178.3,0-267.8,0
		c0,15.7,0,31.3,0,47.6c-8.4-0.8-16.3-1.5-24.2-2.4c-0.7-0.1-1.9-1.2-1.9-1.8c0.3-3.7-0.2-8,1.5-11.1c9.9-17.7,12.2-36,6.6-55.4
		c-0.2-0.6-0.3-1.3-0.4-1.9c0-0.3,0.1-0.7,0.2-1.5c45.7,0,91.4,0,137.6,0c0.3-5.4,0.3-10.4,0.9-15.2c1.3-9.8,8.6-14.4,18-11.8
		c5.5,1.5,8.8,6,9.3,12.8c0.2,2.3,0.1,4.7,0.1,7c0,2.1,0,4.3,0,7.2c2.5,0,4.6,0,6.7,0c48.3,0,96.7,0,145,0c9.2,0,15,4.7,15.3,12.2
		c0.3,7.4-4.9,13.1-12.9,13.7c-2.5,0.2-4.9,0-8.1,0c0,2.5,0,4.4,0,6.3c0.1,71.8,0.1,143.6,0.3,215.5c0.1,28.2-18.8,47.2-46.9,47.1
		c-21.5-0.1-43-0.2-64.5-0.3c-2.1,0-4.3,0-6.9,0c0,6.3-0.1,12.1,0.1,17.9c0,1,1.7,2.2,2.8,2.8c6,3.2,8.8,8.7,7.5,14.8
		c-1.3,6-5.5,8.9-13.1,9c-2.9,0-5.9,0-10.1,0c2.2,2.4,3.4,3.8,4.8,5.2c16,16,32.1,32,48,48.2c2.5,2.5,4.7,5.7,6.2,8.9
		c2,4.4,1,8.9-2.5,12.5c-3.5,3.7-8,5.3-12.7,3.2c-3.5-1.6-7-4-9.7-6.7c-20.8-20.9-41.5-41.9-62.2-62.9
		C322.9,393.2,322.5,393.1,321.9,392.8z"/>
	<path class="st0" d="M104.8,120.3c-28.4,0-51-22.6-51-51.1c0-27.6,23.3-50.9,51-51c28-0.1,51.1,23.1,51.1,51.3
		C155.9,98,133.5,120.3,104.8,120.3z"/>
</g>
</svg>
