<?xml version="1.0" encoding="utf-8"?>
<!-- Generator: Adobe Illustrator 21.1.0, SVG Export Plug-In . SVG Version: 6.00 Build 0)  -->
<svg version="1.1" id="Capa_1" xmlns="http://www.w3.org/2000/svg" xmlns:xlink="http://www.w3.org/1999/xlink" x="0px" y="0px"
	 viewBox="0 0 367 910" style="enable-background:new 0 0 367 910;" xml:space="preserve">
<style type="text/css">
	.st0{fill:#3E3E3E;}
</style>
<path class="st0" d="M100,46c1.3-2.4,12.2,2.4,19-3c7.4-6,9.8-20.3-1-32c-13.5-14.7-33.6-4.8-43,3c-17.2,14.2-9.3,52.4-3,63
	c9.8,16.5,35.1,54.5,40,71c14.5,49.5,35.6,114.4,14,165c-26.2,61.3-36.7,64.4-61,100C4.2,502,6.7,564.8,15,608
	c10.3,53.7,45.5,108.3,128,105c13.4-0.5,54.1-16.2,76-46c17.4-23.7,17.2-58.9,14-69c-4.2-13.6-15.6-38.6-42-42
	c-31.3-4-48.8,26.6-48,37c0.7,9.8,1.3,24.5,9,32c6.9,6.7,22,5.9,24,4c21.3-19.9-0.6-34.6-3-39c0.1-2.8,8.7-10.2,15,0
	c2.8,4.5,6.1,10.2,7,17c1.2,8.7-2.8,18.5-9,24c-11.7,10.4-43.3,12.4-44-29c-0.2-13.5,5.7-50.8,50-48c43.7,2.7,63.9,67.6,33,115
	c-19.2,29.4-65.3,69.5-133,50C37.3,703.3-5.8,657.5,1,566c7.3-98.9,87.8-198.6,115-248c24.8-45.1,8.2-122.7-11-176
	C92.4,107,45.7,69.8,66,23C76-0.1,100.4-5.3,117,7c12.2,9,18.6,38.1-2,46C105.6,56.6,98.7,48.4,100,46z M6,658c3.6,2,25.7,48,78,65
	c47.1,15.3,123.9,1.7,150-11c41.8-20.3,65.2-45.4,70-85c3-24.4-10.1-44.8-21-46c-24.6-2.7-22.6,28.3-18,30s7.8,0.8,9,4
	c2.3,6.1-2.4,11.5-11,10c-23.3-3.9-9.6-42.9,3-45c15.7-2.6,35.6-1.7,40,29c10.4,73.2-72,104-72,104s73.2-29,108,6
	c44.4,44.6,19.2,89.8,2,109c-6.3,7-26,19.6-46,15c-30.4-7-41-30.4-39-53c3.3-37.5,29.4-46.9,45-40c12.3,5.5,14.9,19.3,10,28
	c-5.6,10-16,7-16,7s11.8,0.6,15-9c3.8-11.5-0.9-20.7-12-26c-8.7-4.1-28,5.1-36,21c-5.7,11.4-5.6,36.5,1,46
	c23.2,33.1,56.7,25.7,69,16c34.8-27.5,31.9-62.1,26-79c-22.1-63.2-92-50.3-122-39c-110.2,41.7-179,5-179,5s29.8,25.3,82,25
	c68.5-0.3,141.9-42.3,179-9c23.8,21.4,18,53.1,12,62c-18.3,27.1-50.1,28.2-58-6c-4.6-19.9,13.3-31.1,17-31c8,0.2,6,5,6,5
	s-25.8,17-2,41c9.8,9.9,50.3-11.5,33-53c-9.6-23-34.8-31.1-53-29c-38,4.3-113,21-113,21s84,5.2,75,93c-6.1,59.5-41.3,78.1-72,67
	c-81.9-29.6-32-115-32-115s-44.2,80.2,33,113c30.4,12.9,71.6-15.3,69-79c-2-48.7-42-68-42-68s21.5,14.7,27,40
	c4.9,22.7-4.1,55.9-35,63c-30.6,7-62.4-11.6-53-57c5.9-28.7,44.2-40.7,48-14c2.2,15.4-3.5-24.5-31-1c-6.6,5.6-24.8,53.2,16,64
	c36.8,9.7,53.1-32.6,53-42c-0.1-11.1-7.1-36.9-15-28c-1.8-3.7-10.1-11.6-22-19c-24.3-15.2-60.6-2-98-24C36.1,710.8,6.5,666.3,6,658z
	"/>
</svg>
