<svg xmlns="http://www.w3.org/2000/svg" viewBox="0 0 27.54 27.99"><defs><style>.cls-1{fill:#8dc040;}</style></defs><title>Recurso 1</title><g id="Capa_2" data-name="Capa 2"><g id="Capa_1-2" data-name="Capa 1"><g id="Ornament_R" data-name="Ornament R"><g id="Flores_2" data-name="Flores 2"><path class="cls-1" d="M1.09,22.56a8.47,8.47,0,0,0,2.46-4.38,3.7,3.7,0,0,1,1-1.63A7.05,7.05,0,0,1,9.18,14.4a3.48,3.48,0,0,1,1.48.26c-2.13,1.4-4.43,2.54-4.92,5.48a3.48,3.48,0,0,0,3.33-1.23c.83-1,1.63-1.93,2.57-3l.33,1.8,1-1.46c.37,2.5.2,4.86,1.37,7.1,1.4-2,1-4,.53-6a6.93,6.93,0,0,1,2.09,6.12c-.39,2.25-1.95,3.53-3.87,4.6-1.92-2.35-3.48-4.62-2.16-7.75C8.11,23,4.93,23.63,1.09,22.56Z"/><path class="cls-1" d="M15.81,15.19a3.43,3.43,0,0,1,2.47-1.13A6.81,6.81,0,0,1,23,15.55c1.47,1.25,2.85,2.6,4.26,3.91a2.91,2.91,0,0,1,.32.55c-1.7.39-3.3.86-4.94,1.12-3.19.49-5-.49-6.42-3.38-.08-.17-.13-.35-.23-.59a4,4,0,0,1,2.81.6,7.08,7.08,0,0,0,4.07.88C21.07,16.47,18.32,16.29,15.81,15.19Z"/><path class="cls-1" d="M21.38,8.75a30.49,30.49,0,0,1-6,3.94A8.77,8.77,0,0,1,18,7.84a9.75,9.75,0,0,1,3.71-2c1-.31,2-.7,3.07-1.08a5.36,5.36,0,0,1-.05.86c-.3,1.44-.66,2.86-.92,4.31a4,4,0,0,1-3.39,3.44,11.61,11.61,0,0,1-3,.13C19.22,12.39,21.06,11.41,21.38,8.75Z"/><path class="cls-1" d="M13.1,12.66A3.43,3.43,0,0,1,11,10.93a6.81,6.81,0,0,1-.7-4.87C10.79,4.2,11.4,2.37,12,.53A2.91,2.91,0,0,1,12.32,0c1.09,1.36,2.22,2.59,3.16,4,1.83,2.66,1.72,4.67-.24,7.25-.11.15-.26.27-.44.46a4,4,0,0,1-.69-2.79,7.08,7.08,0,0,0-1-4C12,7.37,13,9.92,13.1,12.66Z"/><path class="cls-1" d="M5.08,10.26A30.49,30.49,0,0,1,11.26,14a8.77,8.77,0,0,1-5.53-.3,9.75,9.75,0,0,1-3.41-2.47C1.59,10.42.81,9.7,0,8.9a5.36,5.36,0,0,1,.79-.33c1.42-.36,2.86-.65,4.28-1A4,4,0,0,1,9.64,9.08a11.61,11.61,0,0,1,1.43,2.65C9.29,10.61,7.61,9.38,5.08,10.26Z"/></g></g></g></g></svg>