<?xml version="1.0" encoding="utf-8"?>
<!-- Generator: Adobe Illustrator 21.1.0, SVG Export Plug-In . SVG Version: 6.00 Build 0)  -->
<svg version="1.1" id="Capa_1" xmlns="http://www.w3.org/2000/svg" xmlns:xlink="http://www.w3.org/1999/xlink" x="0px" y="0px"
	 viewBox="0 0 152.5 251.1" style="enable-background:new 0 0 152.5 251.1;" xml:space="preserve">
<style type="text/css">
	.st0{fill:#717073;stroke:#000000;stroke-width:3;stroke-miterlimit:10;}
</style>
<path id="svg_2" class="st0" d="M76.4,243.4c-5.5-27.2-15.3-49.8-27.1-70.8c-8.8-15.6-18.9-29.9-28.3-45c-3.1-5-5.8-10.4-8.9-15.6
	c-6-10.4-10.9-22.6-10.6-38.3c0.3-15.4,4.7-27.7,11.1-37.7C23.2,19.5,40.8,5.9,64.5,2.3c19.4-2.9,37.5,2,50.4,9.5
	c10.5,6.1,18.7,14.4,24.8,24c6.5,10.1,10.9,22,11.3,37.6c0.2,8-1.1,15.4-3,21.5c-1.9,6.2-4.9,11.4-7.5,16.9
	c-5.2,10.8-11.7,20.7-18.3,30.6C102.8,172.1,84.5,202.2,76.4,243.4z"/>
</svg>
